<svg xmlns="http://www.w3.org/2000/svg" xmlns:xlink="http://www.w3.org/1999/xlink" width="505" height="891.685" viewBox="0 0 505 891.685">
  <defs>
    <clipPath id="clip-path">
      <rect id="Rectángulo_374630" data-name="Rectángulo 374630" width="424.709" height="367.809" fill="none"/>
    </clipPath>
    <clipPath id="clip-path-3">
      <rect id="Rectángulo_374622" data-name="Rectángulo 374622" width="229.008" height="254.82" fill="none"/>
    </clipPath>
    <clipPath id="clip-path-5">
      <rect id="Rectángulo_374624" data-name="Rectángulo 374624" width="359.475" height="214.977" fill="none"/>
    </clipPath>
    <clipPath id="clip-path-7">
      <rect id="Rectángulo_374626" data-name="Rectángulo 374626" width="212.354" height="101.989" fill="none"/>
    </clipPath>
    <clipPath id="clip-path-8">
      <rect id="Rectángulo_374627" data-name="Rectángulo 374627" width="147.12" height="101.989" fill="none"/>
    </clipPath>
    <clipPath id="clip-path-9">
      <rect id="Rectángulo_374628" data-name="Rectángulo 374628" width="81.888" height="141.832" fill="none"/>
    </clipPath>
    <clipPath id="clip-path-10">
      <path id="path645" d="M0-682.665H66.474v42.323H0Z" transform="translate(0 702.522)"/>
    </clipPath>
  </defs>
  <g id="Grupo_1076381" data-name="Grupo 1076381" transform="translate(8756 5212)">
    <g id="Grupo_1076379" data-name="Grupo 1076379" transform="translate(0 355)">
      <g id="Grupo_1076380" data-name="Grupo 1076380">
        <path id="Trazado_824831" data-name="Trazado 824831" d="M0,0H891.685V505H0Z" transform="translate(-8251 -5567) rotate(90)" fill="#e4e9eb"/>
      </g>
    </g>
    <g id="Grupo_1076240" data-name="Grupo 1076240" transform="translate(55.667 302.667)">
      <path id="Trazado_824339" data-name="Trazado 824339" d="M-8506.559-4979.833H-8518.5V-5404.5h199.167v1H-8517.5v422.667h10.941Z" transform="translate(-284.667 125.373)"/>
      <path id="Trazado_824338" data-name="Trazado 824338" d="M-8314.5-4969.529H-8336v-1h20.5V-5403.5H-8518v-1h203.5Z" transform="translate(0 245.333)" fill="#5e5a5a"/>
      <g id="Grupo_1071444" data-name="Grupo 1071444" transform="translate(-8795 -4860.96)">
        <circle id="Elipse_7995" data-name="Elipse 7995" cx="4" cy="4" r="4" fill="#809299" opacity="0.45"/>
        <circle id="Elipse_7994" data-name="Elipse 7994" cx="5" cy="5" r="5" transform="translate(1 2)" fill="#12263f"/>
      </g>
      <g id="Grupo_1071436" data-name="Grupo 1071436" transform="translate(-8772.816 -5476.5)">
        <g id="Grupo_1071435" data-name="Grupo 1071435" clip-path="url(#clip-path)">
          <path id="Trazado_818190" data-name="Trazado 818190" d="M182.194,0,93.957,152.832,35.074,254.82,264.082,141.832Z" transform="translate(30.16)" fill="#b09353"/>
          <path id="Trazado_818192" data-name="Trazado 818192" d="M58.883,195.159,0,297.149,359.475,184.16,300.59,82.172Z" transform="translate(0 70.66)" fill="#ab6108"/>
          <path id="Trazado_818194" data-name="Trazado 818194" d="M93.958,82.172,35.073,184.161H329.315L270.431,82.172Z" transform="translate(30.16 70.66)" fill="#fcd888"/>
          <path id="Trazado_818195" data-name="Trazado 818195" d="M152.034,0,70.148,141.832H233.922Z" transform="translate(60.32)" fill="#faf5bd"/>
          <path id="Trazado_818196" data-name="Trazado 818196" d="M58.883,142.921,0,244.911H424.707l-58.883-101.99Z" transform="translate(0 122.898)" fill="#f7941d"/>
          <g id="Grupo_1071434" data-name="Grupo 1071434">
            <g id="Grupo_1071433" data-name="Grupo 1071433" clip-path="url(#clip-path)">
              <g id="Grupo_1071426" data-name="Grupo 1071426" transform="translate(212.354 265.819)" opacity="0.09">
                <g id="Grupo_1071425" data-name="Grupo 1071425">
                  <g id="Grupo_1071424" data-name="Grupo 1071424" clip-path="url(#clip-path-7)">
                    <path id="Trazado_818197" data-name="Trazado 818197" d="M114.175,244.911H326.529l-58.883-101.99H114.175Z" transform="translate(-114.175 -142.921)"/>
                  </g>
                </g>
              </g>
              <g id="Grupo_1071429" data-name="Grupo 1071429" transform="translate(212.354 152.832)" opacity="0.2">
                <g id="Grupo_1071428" data-name="Grupo 1071428" opacity="0.56">
                  <g id="Grupo_1071427" data-name="Grupo 1071427" clip-path="url(#clip-path-8)">
                    <path id="Trazado_818198" data-name="Trazado 818198" d="M114.175,82.172v101.99H261.3L202.413,82.172Z" transform="translate(-114.175 -82.172)"/>
                  </g>
                </g>
              </g>
              <g id="Grupo_1071432" data-name="Grupo 1071432" transform="translate(212.354)" opacity="0.1">
                <g id="Grupo_1071431" data-name="Grupo 1071431">
                  <g id="Grupo_1071430" data-name="Grupo 1071430" clip-path="url(#clip-path-9)">
                    <path id="Trazado_818199" data-name="Trazado 818199" d="M196.062,141.832,114.176,0V141.832Z" transform="translate(-114.174 0)"/>
                  </g>
                </g>
              </g>
            </g>
          </g>
          <text id="_01" data-name="01" transform="translate(197.854 106.135)" fill="#12263f" font-size="27" font-family="SegoeUI, Segoe UI"><tspan x="0" y="0">01</tspan></text>
          <text id="_02" data-name="02" transform="translate(197.855 219.117)" fill="#12263f" font-size="27" font-family="SegoeUI, Segoe UI"><tspan x="0" y="0">02</tspan></text>
          <text id="_03" data-name="03" transform="translate(197.854 332.101)" fill="#12263f" font-size="27" font-family="SegoeUI, Segoe UI"><tspan x="0" y="0">03</tspan></text>
        </g>
      </g>
      <g id="Grupo_1076238" data-name="Grupo 1076238" transform="translate(18.068 -14.171)">
        <rect id="Rectángulo_374620" data-name="Rectángulo 374620" width="433.98" height="108" rx="6" transform="translate(-8798.067 -5021.636)" fill="#fff"/>
        <g id="Grupo_1071437" data-name="Grupo 1071437" transform="translate(-9642.067 -10797.751)">
          <text id="SaaS_-_Software_as_a_Service" data-name="SaaS - Software as a Service" transform="translate(876.5 5788)" fill="#12263f" font-size="16" font-family="SegoeUI-Bold, Segoe UI" font-weight="700"><tspan x="0" y="17">SaaS</tspan><tspan y="17" xml:space="preserve" font-family="SegoeUI-BoldItalic, Segoe UI" font-style="italic"> - Software as a Service</tspan></text>
          <text id="Dropbox_Google_Drive_Wix_Salesforce._Usuarios_finales." data-name="Dropbox, Google, Drive, Wix, Salesforce.
Usuarios finales." transform="translate(876.5 5829)" fill="#12263f" font-size="16" font-family="SegoeUI, Segoe UI"><tspan x="0" y="17">Dropbox, Google, Drive, Wix, Salesforce.</tspan><tspan x="0" y="39">Usuarios finales.</tspan></text>
          <text id="Software_como_servicio" data-name="Software como servicio" transform="translate(947.5 5805)" fill="#ff821b" font-size="13" font-family="SegoeUI-Italic, Segoe UI" font-style="italic"><tspan x="0" y="14">Software </tspan><tspan y="14" font-family="SegoeUI, Segoe UI" font-style="normal">como servicio</tspan></text>
        </g>
        <rect id="Rectángulo_374620-2" data-name="Rectángulo 374620" width="433.98" height="108" rx="6" transform="translate(-8798.067 -4894.847)" fill="#fff"/>
        <rect id="Rectángulo_374621" data-name="Rectángulo 374621" width="433.98" height="108" rx="6" transform="translate(-8798.067 -4767.943)" fill="#fff"/>
        <g id="Grupo_1071439" data-name="Grupo 1071439" transform="translate(-9642.067 -10794.636)">
          <text id="PaaS_-_Plataform_as_a_Service" data-name="PaaS - Plataform as a Service" transform="translate(876.5 5911.789)" fill="#12263f" font-size="16" font-family="SegoeUI-Bold, Segoe UI" font-weight="700"><tspan x="0" y="17">PaaS</tspan><tspan y="17" xml:space="preserve" font-family="SegoeUI-BoldItalic, Segoe UI" font-style="italic"> - Plataform as a Service</tspan></text>
          <text id="Google_App_Enginer_Microsoft_Azure_Desarrolladores_de_Software." data-name="Google App Enginer, Microsoft Azure
Desarrolladores de Software." transform="translate(876.5 5952.789)" fill="#12263f" font-size="16" font-family="SegoeUI, Segoe UI"><tspan x="0" y="17">Google App Enginer, Microsoft Azure</tspan><tspan x="0" y="39">Desarrolladores de </tspan><tspan y="39" font-family="SegoeUI-Italic, Segoe UI" font-style="italic">Software.</tspan></text>
          <text id="Plataformas_como_servicio" data-name="Plataformas como servicio" transform="translate(928.5 5928.789)" fill="#ff821b" font-size="13" font-family="SegoeUI, Segoe UI"><tspan x="0" y="14">Plataformas como servicio</tspan></text>
        </g>
        <g id="Grupo_1071441" data-name="Grupo 1071441" transform="translate(-9642.067 -10791.521)">
          <text id="laaS_-_Infraestructure_as_a_Service" data-name="laaS - Infraestructure as a Service" transform="translate(876.5 6035.578)" fill="#12263f" font-size="16" font-family="SegoeUI-Bold, Segoe UI" font-weight="700"><tspan x="0" y="17">laaS</tspan><tspan y="17" xml:space="preserve" font-family="SegoeUI-BoldItalic, Segoe UI" font-style="italic"> - Infraestructure as a Service</tspan></text>
          <text id="AWS_Google_Computer_Engine_Administradores_TI." data-name="AWS, Google Computer Engine
Administradores TI." transform="translate(876.5 6076.578)" fill="#12263f" font-size="16" font-family="SegoeUI, Segoe UI"><tspan x="0" y="17">AWS, Google Computer Engine</tspan><tspan x="0" y="39">Administradores TI.</tspan></text>
          <text id="Infraestructura_como_servicio" data-name="Infraestructura como servicio" transform="translate(952.5 6052.578)" fill="#ff821b" font-size="13" font-family="SegoeUI, Segoe UI"><tspan x="0" y="14">Infraestructura como servicio</tspan></text>
        </g>
        <g id="servidor_4_" data-name="servidor (4)" transform="translate(-8497.583 -4750.783)">
          <path id="Trazado_818201" data-name="Trazado 818201" d="M82.791,232a2.791,2.791,0,1,0,2.791,2.791A2.791,2.791,0,0,0,82.791,232Zm0,3.721a.93.93,0,1,1,.93-.93A.93.93,0,0,1,82.791,235.721Z" transform="translate(-21.209 -197.951)" fill="#12263f"/>
          <path id="Trazado_818202" data-name="Trazado 818202" d="M138.791,232a2.791,2.791,0,1,0,2.791,2.791A2.791,2.791,0,0,0,138.791,232Zm0,3.721a.93.93,0,1,1,.93-.93A.93.93,0,0,1,138.791,235.721Z" transform="translate(-70.697 -197.951)" fill="#12263f"/>
          <path id="Trazado_818203" data-name="Trazado 818203" d="M194.791,232a2.791,2.791,0,1,0,2.791,2.791A2.791,2.791,0,0,0,194.791,232Zm0,3.721a.93.93,0,1,1,.93-.93A.93.93,0,0,1,194.791,235.721Z" transform="translate(-120.185 -197.951)" fill="#12263f"/>
          <path id="Trazado_818204" data-name="Trazado 818204" d="M304,232.93v3.721a.93.93,0,0,0,.93.93h13.024a.93.93,0,0,0,.93-.93V232.93a.93.93,0,0,0-.93-.93H304.93A.93.93,0,0,0,304,232.93Zm1.861.93h11.164v1.861H305.861Z" transform="translate(-219.16 -197.951)" fill="#12263f"/>
          <path id="Trazado_818205" data-name="Trazado 818205" d="M82.791,384a2.791,2.791,0,1,0,2.791,2.791A2.791,2.791,0,0,0,82.791,384Zm0,3.721a.93.93,0,1,1,.93-.93A.93.93,0,0,1,82.791,387.721Z" transform="translate(-21.209 -332.275)" fill="#12263f"/>
          <path id="Trazado_818206" data-name="Trazado 818206" d="M138.791,384a2.791,2.791,0,1,0,2.791,2.791A2.791,2.791,0,0,0,138.791,384Zm0,3.721a.93.93,0,1,1,.93-.93A.93.93,0,0,1,138.791,387.721Z" transform="translate(-70.697 -332.275)" fill="#12263f"/>
          <path id="Trazado_818207" data-name="Trazado 818207" d="M194.791,384a2.791,2.791,0,1,0,2.791,2.791A2.791,2.791,0,0,0,194.791,384Zm0,3.721a.93.93,0,1,1,.93-.93A.93.93,0,0,1,194.791,387.721Z" transform="translate(-120.185 -332.275)" fill="#12263f"/>
          <path id="Trazado_818208" data-name="Trazado 818208" d="M304,384.93v3.721a.93.93,0,0,0,.93.93h13.024a.93.93,0,0,0,.93-.93V384.93a.93.93,0,0,0-.93-.93H304.93A.93.93,0,0,0,304,384.93Zm1.861.93h11.164v1.861H305.861Z" transform="translate(-219.16 -332.275)" fill="#12263f"/>
          <path id="Trazado_818209" data-name="Trazado 818209" d="M99.26,26.606a3.26,3.26,0,0,0,3.256-3.256V14.977a3.26,3.26,0,0,0-3.256-3.256H82.979V8.93a.93.93,0,0,0-.93-.93H76.467a.93.93,0,0,0-.93.93v2.791H59.256A3.26,3.26,0,0,0,56,14.977V23.35a3.26,3.26,0,0,0,3.256,3.256h.465V29.4h-.465A3.26,3.26,0,0,0,56,32.653v8.373a3.26,3.26,0,0,0,3.256,3.256h.465v2.791h-.465A3.26,3.26,0,0,0,56,50.329V58.7a3.26,3.26,0,0,0,3.256,3.256h16.28v2.791a.93.93,0,0,0,.93.93h5.582a.93.93,0,0,0,.93-.93V61.958H99.26a3.26,3.26,0,0,0,3.256-3.256V50.329a3.26,3.26,0,0,0-3.256-3.256h-.465V44.282h.465a3.26,3.26,0,0,0,3.256-3.256V32.653A3.26,3.26,0,0,0,99.26,29.4h-.465V26.606ZM77.4,9.861h3.721v1.861H77.4Zm3.721,53.958H77.4V61.958h3.721ZM99.26,48.934a1.4,1.4,0,0,1,1.4,1.4V58.7a1.4,1.4,0,0,1-1.4,1.4h-40a1.4,1.4,0,0,1-1.4-1.4V50.329a1.4,1.4,0,0,1,1.4-1.4ZM61.582,47.073V44.282H96.934v2.791ZM99.26,31.258a1.4,1.4,0,0,1,1.4,1.4v8.373a1.4,1.4,0,0,1-1.4,1.4h-40a1.4,1.4,0,0,1-1.4-1.4V32.653a1.4,1.4,0,0,1,1.4-1.4ZM61.582,29.4V26.606H96.934V29.4Zm-2.326-4.652a1.4,1.4,0,0,1-1.4-1.4V14.977a1.4,1.4,0,0,1,1.4-1.4h40a1.4,1.4,0,0,1,1.4,1.4V23.35a1.4,1.4,0,0,1-1.4,1.4Z" fill="#12263f"/>
          <path id="Trazado_818210" data-name="Trazado 818210" d="M85.582,82.791a2.791,2.791,0,1,0-2.791,2.791A2.791,2.791,0,0,0,85.582,82.791Zm-3.721,0a.93.93,0,1,1,.93.93A.93.93,0,0,1,81.861,82.791Z" transform="translate(-21.209 -63.627)" fill="#12263f"/>
          <path id="Trazado_818211" data-name="Trazado 818211" d="M138.791,85.582A2.791,2.791,0,1,0,136,82.791,2.791,2.791,0,0,0,138.791,85.582Zm0-3.721a.93.93,0,1,1-.93.93A.93.93,0,0,1,138.791,81.861Z" transform="translate(-70.697 -63.627)" fill="#12263f"/>
          <path id="Trazado_818212" data-name="Trazado 818212" d="M194.791,85.582A2.791,2.791,0,1,0,192,82.791,2.791,2.791,0,0,0,194.791,85.582Zm0-3.721a.93.93,0,1,1-.93.93A.93.93,0,0,1,194.791,81.861Z" transform="translate(-120.185 -63.627)" fill="#12263f"/>
          <path id="Trazado_818213" data-name="Trazado 818213" d="M304.93,85.582h13.024a.93.93,0,0,0,.93-.93V80.93a.93.93,0,0,0-.93-.93H304.93a.93.93,0,0,0-.93.93v3.721A.93.93,0,0,0,304.93,85.582Zm.93-3.721h11.164v1.861H305.861Z" transform="translate(-219.16 -63.627)" fill="#12263f"/>
        </g>
        <g id="desarrollo-de-aplicaciones" transform="translate(-8447.278 -4869.847)">
          <path id="Trazado_818214" data-name="Trazado 818214" d="M54.692,1H3.73A2.73,2.73,0,0,0,1,3.73V43.771A2.73,2.73,0,0,0,3.73,46.5H22.585l-1.365,5.46H16.685a2.715,2.715,0,0,0-2.442,1.509l-1.318,2.635a.91.91,0,0,0,.814,1.317H44.681a.91.91,0,0,0,.819-1.317l-1.318-2.635a2.715,2.715,0,0,0-2.446-1.509H37.2L35.837,46.5H54.692a2.73,2.73,0,0,0,2.73-2.73V3.73A2.73,2.73,0,0,0,54.692,1ZM3.73,2.82H54.692a.91.91,0,0,1,.91.91V8.28H2.82V3.73A.91.91,0,0,1,3.73,2.82ZM55.6,10.1V37.4H2.82V10.1ZM42.55,54.285l.659,1.317h-28l.659-1.317a.9.9,0,0,1,.814-.5H41.737a.9.9,0,0,1,.814.5Zm-7.225-2.323H23.1l1.365-5.46h9.5Zm19.366-7.28H3.73a.91.91,0,0,1-.91-.91v-4.55H55.6v4.55A.91.91,0,0,1,54.692,44.681Z"/>
          <path id="Trazado_818215" data-name="Trazado 818215" d="M30,5h3.64V6.82H30Z" transform="translate(-2.609 -0.36)"/>
          <path id="Trazado_818216" data-name="Trazado 818216" d="M36,5h1.82V6.82H36Z" transform="translate(-3.149 -0.36)"/>
          <path id="Trazado_818217" data-name="Trazado 818217" d="M26,5h1.82V6.82H26Z" transform="translate(-2.249 -0.36)"/>
          <path id="Trazado_818218" data-name="Trazado 818218" d="M5,45h7.28v1.82H5Z" transform="translate(-0.36 -3.959)"/>
          <path id="Trazado_818219" data-name="Trazado 818219" d="M15,45h1.82v1.82H15Z" transform="translate(-1.26 -3.959)"/>
          <path id="Trazado_818220" data-name="Trazado 818220" d="M5.91,27.56H7.3a8.432,8.432,0,0,0,.329.794l-.979.98a.91.91,0,0,0,0,1.287L9.219,33.2a.91.91,0,0,0,1.287,0l.98-.979a8.432,8.432,0,0,0,.794.329v1.385a.91.91,0,0,0,.91.91h3.64a.91.91,0,0,0,.91-.91V32.546a8.432,8.432,0,0,0,.794-.329l.98.979a.91.91,0,0,0,1.287,0l2.574-2.574a.91.91,0,0,0,0-1.287l-.979-.98a8.433,8.433,0,0,0,.329-.794h1.385a.91.91,0,0,0,.91-.91v-.91h3.64v7.28a.91.91,0,0,0,.91.91h6.37v1.82a.91.91,0,0,0,.91.91H53.232a.91.91,0,0,0,.91-.91v-5.46a.91.91,0,0,0-.91-.91H36.851a.91.91,0,0,0-.91.91v1.82h-5.46V25.74h5.46v.91a.91.91,0,0,0,.91.91H53.232a.91.91,0,0,0,.91-.91V23.01a.91.91,0,0,0-.91-.91H36.851a.91.91,0,0,0-.91.91v.91h-5.46V17.55h5.46v1.82a.91.91,0,0,0,.91.91H53.232a.91.91,0,0,0,.91-.91V13.91a.91.91,0,0,0-.91-.91H36.851a.91.91,0,0,0-.91.91v1.82h-6.37a.91.91,0,0,0-.91.91v7.28h-3.64v-.91a.91.91,0,0,0-.91-.91H22.726a8.433,8.433,0,0,0-.329-.794l.979-.98a.91.91,0,0,0,0-1.287L20.8,16.465a.91.91,0,0,0-1.287,0l-.98.979a8.431,8.431,0,0,0-.794-.329V15.73a.91.91,0,0,0-.91-.91H13.19a.91.91,0,0,0-.91.91v1.385a8.432,8.432,0,0,0-.794.329l-.98-.979a.91.91,0,0,0-1.287,0L6.645,19.039a.91.91,0,0,0,0,1.287l.979.98A8.432,8.432,0,0,0,7.3,22.1H5.91a.91.91,0,0,0-.91.91v3.64A.91.91,0,0,0,5.91,27.56ZM37.761,31.2h14.56v3.64H37.761Zm0-7.28h14.56v1.82H37.761Zm0-9.1h14.56v3.64H37.761ZM6.82,23.92H7.969a.91.91,0,0,0,.881-.683A6.37,6.37,0,0,1,9.527,21.6a.91.91,0,0,0-.14-1.107l-.812-.812,1.287-1.287.812.812a.91.91,0,0,0,1.107.14,6.37,6.37,0,0,1,1.638-.678.91.91,0,0,0,.683-.881V16.64h1.82v1.148a.91.91,0,0,0,.683.881,6.37,6.37,0,0,1,1.638.678.91.91,0,0,0,1.107-.14l.812-.812,1.287,1.287-.812.812A.91.91,0,0,0,20.5,21.6a6.37,6.37,0,0,1,.678,1.638.91.91,0,0,0,.881.683H23.2v1.82H22.052a.91.91,0,0,0-.881.683,6.37,6.37,0,0,1-.678,1.638.91.91,0,0,0,.14,1.107l.812.812-1.287,1.287-.812-.812a.91.91,0,0,0-1.107-.14,6.37,6.37,0,0,1-1.638.678.91.91,0,0,0-.683.881v1.147H14.1V31.872a.91.91,0,0,0-.683-.881,6.37,6.37,0,0,1-1.638-.678.91.91,0,0,0-1.107.14l-.812.812L8.576,29.978l.812-.812a.91.91,0,0,0,.14-1.107,6.37,6.37,0,0,1-.678-1.638.91.91,0,0,0-.881-.682H6.82Z" transform="translate(-0.36 -1.08)"/>
          <path id="Trazado_818221" data-name="Trazado 818221" d="M15.55,30.1A4.55,4.55,0,1,0,11,25.55a4.55,4.55,0,0,0,4.55,4.55Zm0-7.28a2.73,2.73,0,1,1-2.73,2.73A2.73,2.73,0,0,1,15.55,22.82Z" transform="translate(-0.9 -1.799)"/>
        </g>
        <g id="clasificacion_1_" data-name="clasificacion (1)" transform="translate(-8444.843 -4994.105)">
          <g id="g639" transform="translate(0 0.002)">
            <g id="g641" transform="translate(0 0)">
              <g id="g643" transform="translate(-5.909 -9.762)" clip-path="url(#clip-path-10)">
                <g id="g649" transform="translate(31.939 47.12)">
                  <path id="path651" d="M-12.035,0a1.3,1.3,0,0,1,1.3,1.3,1.3,1.3,0,0,1-1.3,1.3,1.3,1.3,0,0,1-1.3-1.3,1.3,1.3,0,0,1,1.3-1.3" transform="translate(13.333 0)"/>
                </g>
                <g id="g653" transform="translate(47.908 30.242)">
                  <path id="path655" d="M-126.841-67.667a7.5,7.5,0,0,1,7.492,7.492,7.5,7.5,0,0,1-7.492,7.492,7.5,7.5,0,0,1-7.492-7.492A7.5,7.5,0,0,1-126.841-67.667Zm0,12.983a5.5,5.5,0,0,0,5.492-5.492,5.5,5.5,0,0,0-5.492-5.492,5.5,5.5,0,0,0-5.492,5.492A5.5,5.5,0,0,0-126.841-54.683Z" transform="translate(133.333 66.667)"/>
                </g>
                <g id="g657" transform="translate(1.298 45.821)">
                  <path id="path659" d="M-163.676-119.35h-17.657a1,1,0,0,1-1-1v-2.6a11.08,11.08,0,0,1,3.548-8.069,12.071,12.071,0,0,1,3.744-2.426,11.743,11.743,0,0,1,4.484-.891,12.118,12.118,0,0,1,9.693,4.822,1,1,0,0,1-.24,1.394,1,1,0,0,1-1.394-.24,10.063,10.063,0,0,0-8.06-3.976,9.716,9.716,0,0,0-9.776,9.387v1.6h16.657a1,1,0,0,1,1,1A1,1,0,0,1-163.676-119.35Z" transform="translate(181.333 133.333)"/>
                </g>
                <g id="g661" transform="translate(45.523 45.821)">
                  <path id="path663" d="M19.653-31.19H2a1,1,0,0,1-1-1,1,1,0,0,1,1-1H18.653v-1.6a9.716,9.716,0,0,0-9.776-9.387A10.063,10.063,0,0,0,.817-40.2a1,1,0,0,1-1.394.24,1,1,0,0,1-.24-1.394,12.118,12.118,0,0,1,9.693-4.822,11.743,11.743,0,0,1,4.484.891A12.072,12.072,0,0,1,17.1-42.856a11.08,11.08,0,0,1,3.548,8.069v2.6A1,1,0,0,1,19.653-31.19Z" transform="translate(0 45.173)"/>
                </g>
                <g id="g665" transform="translate(5.583 30.242)">
                  <path id="path667" d="M-126.841-67.667a7.5,7.5,0,0,1,7.492,7.492,7.5,7.5,0,0,1-7.492,7.492,7.5,7.5,0,0,1-7.492-7.492A7.5,7.5,0,0,1-126.841-67.667Zm0,12.983a5.5,5.5,0,0,0,5.492-5.492,5.5,5.5,0,0,0-5.492-5.492,5.5,5.5,0,0,0-5.492,5.492A5.5,5.5,0,0,0-126.841-54.683Z" transform="translate(133.333 66.667)"/>
                </g>
                <g id="g669" transform="translate(24.149 22.452)">
                  <path id="path671" d="M-177.578-94.333A10.1,10.1,0,0,1-167.49-84.245a10.1,10.1,0,0,1-10.088,10.088,10.1,10.1,0,0,1-10.088-10.088A10.1,10.1,0,0,1-177.578-94.333Zm0,18.176a8.1,8.1,0,0,0,8.088-8.088,8.1,8.1,0,0,0-8.088-8.088,8.1,8.1,0,0,0-8.088,8.088A8.1,8.1,0,0,0-177.578-76.157Z" transform="translate(186.666 93.333)"/>
                </g>
                <g id="g685" transform="translate(18.955 43.225)">
                  <path id="path687" d="M-264.77-143.42h-28.563a1,1,0,0,1-1-1v-1.3a15.272,15.272,0,0,1,2.136-7.8,15.377,15.377,0,0,1,5.474-5.422A15.275,15.275,0,0,1-279.051-161a15.177,15.177,0,0,1,10.806,4.476,15.364,15.364,0,0,1,2.34,3.008,15.272,15.272,0,0,1,2.136,7.8v1.3A1,1,0,0,1-264.77-143.42Zm-27.563-2h26.563v-.3a13.271,13.271,0,0,0-1.855-6.775,13.362,13.362,0,0,0-2.035-2.616,13.19,13.19,0,0,0-9.391-3.89,13.357,13.357,0,0,0-11.426,6.506,13.27,13.27,0,0,0-1.855,6.775Z" transform="translate(293.333 160)"/>
                </g>
                <g id="g689" transform="translate(38.214 49.905)">
                  <path id="path691" d="M3.235,4.707a1,1,0,0,1-.9-.57A8.133,8.133,0,0,0-.549.836,1,1,0,0,1-.836-.549,1,1,0,0,1,.549-.836,10.133,10.133,0,0,1,4.137,3.277a1,1,0,0,1-.9,1.43Z"/>
                </g>
              </g>
            </g>
          </g>
        </g>
      </g>
      <g id="Grupo_1071444-2" data-name="Grupo 1071444" transform="translate(-8343.02 -4987.696)">
        <circle id="Elipse_7995-2" data-name="Elipse 7995" cx="4" cy="4" r="4" fill="#809299" opacity="0.45"/>
        <circle id="Elipse_7994-2" data-name="Elipse 7994" cx="5" cy="5" r="5" transform="translate(1 2)" fill="#12263f"/>
      </g>
      <g id="Grupo_1076239" data-name="Grupo 1076239" transform="translate(-8343.02 -4731.696)">
        <circle id="Elipse_7995-3" data-name="Elipse 7995" cx="4" cy="4" r="4" fill="#809299" opacity="0.45"/>
        <circle id="Elipse_7994-3" data-name="Elipse 7994" cx="5" cy="5" r="5" transform="translate(1 2)" fill="#12263f"/>
      </g>
      <rect id="Rectángulo_376805" data-name="Rectángulo 376805" width="10" height="11" transform="translate(-8332 -5165)" fill="#e4e9eb"/>
      <path id="Trazado_824337" data-name="Trazado 824337" d="M-8326.5-4979.833H-8338v-1h10.5V-5403.5H-8518v-1h191.5Z"/>
    </g>
  </g>
</svg>
