<svg xmlns="http://www.w3.org/2000/svg" width="61" height="61" viewBox="0 0 61 61">
  <g id="Grupo_1076272" data-name="Grupo 1076272" transform="translate(-770 -648)">
    <g id="Grupo_142441" data-name="Grupo 142441" transform="translate(769.5 648)">
      <circle id="Elipse_4870" data-name="Elipse 4870" cx="30.5" cy="30.5" r="30.5" transform="translate(0.5 0)" fill="#ff6148"/>
      <g id="ygpzb9.tif" transform="translate(7.765 9.966)">
        <g id="Grupo_154946" data-name="Grupo 154946">
          <path id="Trazado_196932" data-name="Trazado 196932" d="M5570.106,4433.006a5.331,5.331,0,0,1-2.29-1.042,4.375,4.375,0,0,1,0-6.739,4.151,4.151,0,0,1,4.8-.56,4.227,4.227,0,0,1,2.429,4.158,4.441,4.441,0,0,1-3.557,4.1c-.106.021-.209.056-.314.083Z" transform="translate(-5537.009 -4390.758)" fill="#fff"/>
          <path id="Trazado_196933" data-name="Trazado 196933" d="M5413.463,4297.022q.587-1.033,1.176-2.067c.667-1.168,1.346-2.331,2-3.509.158-.287.293-.344.6-.225a9.8,9.8,0,0,0,8.039-.247,9.939,9.939,0,0,0,5.772-7.674q.028-.163.06-.324c.01-.052.024-.1.044-.186l6.9.139c-.205,1.1-.339,2.148-.6,3.163a16.832,16.832,0,0,1-3.845,7.1.423.423,0,0,1-.584.143,6.1,6.1,0,0,0-8.592,4.794c-.028.214-.087.335-.33.378a16.977,16.977,0,0,1-10.555-1.418A.507.507,0,0,1,5413.463,4297.022Z" transform="translate(-5396.868 -4261.087)" fill="#fff"/>
          <path id="Trazado_196934" data-name="Trazado 196934" d="M5316.762,4124.354c-1.125,2-2.24,3.986-3.4,6.059-.733-.63-1.468-1.2-2.132-1.847a16.91,16.91,0,0,1-4.126-6.429.4.4,0,0,1,.143-.547,6.108,6.108,0,0,0-.141-9.773c-.166-.125-.313-.208-.223-.49a17.127,17.127,0,0,1,6.2-8.671c.042-.032.091-.056.167-.1l3.625,5.8a10.246,10.246,0,0,0-.1,16Z" transform="translate(-5299.068 -4095.751)" fill="#fff"/>
          <path id="Trazado_196935" data-name="Trazado 196935" d="M5432.89,4069.673a17.058,17.058,0,0,1,4.144,9.805l-6.837.212a10.282,10.282,0,0,0-14.368-8.136l-3.384-5.956a17.085,17.085,0,0,1,10.753-1.481,6.189,6.189,0,0,0,9.692,5.556Z" transform="translate(-5395.934 -4060.226)" fill="#fff"/>
          <path id="Trazado_196936" data-name="Trazado 196936" d="M5212.706,4225.371a4.416,4.416,0,1,1,4.4,4.413A4.427,4.427,0,0,1,5212.706,4225.371Z" transform="translate(-5212.706 -4204.365)" fill="#fff"/>
          <path id="Trazado_196937" data-name="Trazado 196937" d="M5572.186,4024.681a4.413,4.413,0,0,1-8.825-.017,4.413,4.413,0,1,1,8.825.017Z" transform="translate(-5534.375 -4020.245)" fill="#fff"/>
        </g>
      </g>
    </g>
  </g>
</svg>
