<svg xmlns="http://www.w3.org/2000/svg" xmlns:xlink="http://www.w3.org/1999/xlink" width="66.572" height="66.571" viewBox="0 0 66.572 66.571">
  <defs>
    <clipPath id="clip-path">
      <path id="path8448" d="M0-682.665H66.572v66.572H0Z" transform="translate(0 682.665)"/>
    </clipPath>
  </defs>
  <g id="g8442" transform="translate(0 682.665)">
    <g id="g8444" transform="translate(0 -682.665)">
      <g id="g8446" clip-path="url(#clip-path)">
        <g id="g8452" transform="translate(0.976 0.975)">
          <path id="path8454" d="M-598.044-299.022a32.311,32.311,0,0,1-32.311,32.311,32.311,32.311,0,0,1-32.311-32.311,32.311,32.311,0,0,1,32.311-32.311,32.311,32.311,0,0,1,32.311,32.311" transform="translate(662.665 331.333)" fill="#fe0364"/>
        </g>
        <g id="g8456" transform="translate(16.313 3.187)">
          <path id="path8458" d="M-266.037,0A32.29,32.29,0,0,1-250.7,27.5a32.311,32.311,0,0,1-32.311,32.311A32.231,32.231,0,0,1-294.783,57.6a32.161,32.161,0,0,0,16.974,4.812A32.311,32.311,0,0,0-245.5,30.1,32.322,32.322,0,0,0-266.037,0" transform="translate(294.783)" fill="#e30256"/>
        </g>
        <g id="g8460" transform="translate(6.453 28.481)">
          <path id="path8462" d="M-24.918,0a2.692,2.692,0,0,1,2.693,2.693,2.693,2.693,0,0,1-2.693,2.693,2.692,2.692,0,0,1-2.693-2.693A2.692,2.692,0,0,1-24.918,0" transform="translate(27.611 0)" fill="#f2fbff"/>
        </g>
        <g id="g8464" transform="translate(54.733 28.481)">
          <path id="path8466" d="M-24.918,0a2.692,2.692,0,0,0-2.693,2.693,2.692,2.692,0,0,0,2.693,2.693,2.692,2.692,0,0,0,2.693-2.693A2.692,2.692,0,0,0-24.918,0" transform="translate(27.611 0)" fill="#f2fbff"/>
        </g>
        <g id="g8468" transform="translate(17.131 17.13)">
          <path id="path8470" d="M-149.511,0a16.155,16.155,0,0,0-16.155,16.155A16.162,16.162,0,0,0-153.9,31.708l-.117-.033c-.557-.848,9.564-.848,9.007,0l-.117.033a16.162,16.162,0,0,0,11.769-15.553A16.155,16.155,0,0,0-149.511,0" transform="translate(165.666)" fill="#025f80"/>
        </g>
        <g id="g8472" transform="translate(37.673 48.81)">
          <path id="path8474" d="M-.906,0-1,.028-.906,0" transform="translate(1.004)" fill="#024c67"/>
        </g>
        <g id="g8476" transform="translate(37.771 48.805)">
          <path id="path8478" d="M-.176,0h0L-.195,0-.176,0" transform="translate(0.195 0.001)" fill="#024c67"/>
        </g>
        <g id="g8480" transform="translate(28.815 48.814)">
          <path id="path8482" d="M0,0,.011,0,0,0" fill="#024c67"/>
        </g>
        <g id="g8484" transform="translate(28.826 48.817)">
          <path id="path8486" d="M0,0,.075.021,0,0" fill="#024c67"/>
        </g>
        <g id="g8488" transform="translate(23.586 17.765)">
          <path id="path8490" d="M-239.284-143.635a16.162,16.162,0,0,0-11.656-15.52,16.13,16.13,0,0,1,6.455,12.92A16.155,16.155,0,0,1-260.64-130.08a16.162,16.162,0,0,1-4.5-.635,16.1,16.1,0,0,0,5.2,2.6c-.557-.848,9.563-.848,9.007,0a16.162,16.162,0,0,0,11.652-15.519" transform="translate(265.139 159.156)" fill="#024c67"/>
        </g>
        <g id="g8492" transform="translate(28.783 48.805)">
          <path id="path8494" d="M-.3-.085-.328-.095h0Z" transform="translate(0.328 0.095)" fill="#024c67"/>
        </g>
        <g id="g8496" transform="translate(28.209 6.36)">
          <path id="path8498" d="M-46.993-282.409h0a3.807,3.807,0,0,1-3.8-3.584l-1.268-21.556a5.077,5.077,0,0,1,5.069-5.376,5.077,5.077,0,0,1,5.069,5.376l-1.268,21.556a3.807,3.807,0,0,1-3.8,3.584" transform="translate(52.07 312.925)" fill="#fed402"/>
        </g>
        <g id="g8500" transform="translate(27.901 40.466)">
          <path id="path8502" d="M-49.837,0a5.385,5.385,0,0,0-5.385,5.385,5.361,5.361,0,0,0,.882,2.954,16.166,16.166,0,0,0,4.5.636,16.166,16.166,0,0,0,4.5-.636,5.361,5.361,0,0,0,.882-2.954A5.385,5.385,0,0,0-49.837,0" transform="translate(55.223 0)" fill="#fed402"/>
        </g>
        <g id="g8504" transform="translate(27.992 43.383)">
          <path id="path8506" d="M0-31.994a5.354,5.354,0,0,0,.791,1.965,16.161,16.161,0,0,0,4.5.636,16.162,16.162,0,0,0,4.5-.636,5.361,5.361,0,0,0,.882-2.954,5.362,5.362,0,0,0-.6-2.468A16.087,16.087,0,0,1,.093-31.993H0" transform="translate(0 35.451)" fill="#fac600"/>
        </g>
        <g id="g8508" transform="translate(0.976 0.975)">
          <path id="path8510" d="M-120.179-59.354a32.168,32.168,0,0,1,19.325-6.413A32.311,32.311,0,0,1-68.544-33.457,32.311,32.311,0,0,1-100.854-1.147a32.311,32.311,0,0,1-32.311-32.311,32.21,32.21,0,0,1,9.488-22.871" transform="translate(133.165 65.768)" fill="none" stroke="#000" stroke-linecap="round" stroke-linejoin="round" stroke-miterlimit="10" stroke-width="1"/>
        </g>
        <g id="g8572" transform="translate(6.453 28.481)">
          <path id="path8574" d="M-24.918,0a2.692,2.692,0,0,1,2.693,2.693,2.693,2.693,0,0,1-2.693,2.693,2.692,2.692,0,0,1-2.693-2.693A2.692,2.692,0,0,1-24.918,0Z" transform="translate(27.611 0)" fill="none" stroke="#000" stroke-linecap="round" stroke-linejoin="round" stroke-miterlimit="10" stroke-width="1"/>
        </g>
        <g id="g8576" transform="translate(54.733 28.481)">
          <path id="path8578" d="M-24.918,0a2.692,2.692,0,0,0-2.693,2.693,2.692,2.692,0,0,0,2.693,2.693,2.692,2.692,0,0,0,2.693-2.693A2.692,2.692,0,0,0-24.918,0Z" transform="translate(27.611 0)" fill="none" stroke="#000" stroke-linecap="round" stroke-linejoin="round" stroke-miterlimit="10" stroke-width="1"/>
        </g>
        <g id="g8580" transform="translate(28.209 6.36)">
          <path id="path8582" d="M-46.993-282.409h0a3.807,3.807,0,0,1-3.8-3.584l-1.268-21.556a5.077,5.077,0,0,1,5.069-5.376,5.077,5.077,0,0,1,5.069,5.376l-1.268,21.556A3.807,3.807,0,0,1-46.993-282.409Z" transform="translate(52.07 312.925)" fill="none" stroke="#000" stroke-linecap="round" stroke-linejoin="round" stroke-miterlimit="10" stroke-width="1"/>
        </g>
        <g id="g8584" transform="translate(27.901 40.466)">
          <path id="path8586" d="M-1.229-38.79A5.4,5.4,0,0,0-1.361-37.6,5.361,5.361,0,0,0-.48-34.642a16.161,16.161,0,0,0,4.5.636,16.161,16.161,0,0,0,4.5-.636A5.361,5.361,0,0,0,9.409-37.6a5.385,5.385,0,0,0-5.385-5.385,5.362,5.362,0,0,0-2.556.644" transform="translate(1.361 42.981)" fill="none" stroke="#000" stroke-linecap="round" stroke-linejoin="round" stroke-miterlimit="10" stroke-width="1"/>
        </g>
        <g id="g8588" transform="translate(37.997 17.828)">
          <path id="path8590" d="M-46.452-23.691a16.1,16.1,0,0,0-5.019-2.56" transform="translate(51.472 26.251)" fill="none" stroke="#000" stroke-linecap="round" stroke-linejoin="round" stroke-miterlimit="10" stroke-width="1"/>
        </g>
        <g id="g8592" transform="translate(37.673 23.692)">
          <path id="path8594" d="M0-232.718a16.162,16.162,0,0,0,11.769-15.553,16.083,16.083,0,0,0-3.156-9.594" transform="translate(0 257.865)" fill="none" stroke="#000" stroke-linecap="round" stroke-linejoin="round" stroke-miterlimit="10" stroke-width="1"/>
        </g>
        <g id="g8596" transform="translate(17.131 17.828)">
          <path id="path8598" d="M-105.916,0a16.162,16.162,0,0,0-11.445,15.458A16.162,16.162,0,0,0-105.592,31.01" transform="translate(117.361)" fill="none" stroke="#000" stroke-linecap="round" stroke-linejoin="round" stroke-miterlimit="10" stroke-width="1"/>
        </g>
      </g>
    </g>
  </g>
</svg>
