<svg xmlns="http://www.w3.org/2000/svg" width="589" height="276.785" viewBox="0 0 589 276.785">
  <g id="Grupo_1076387" data-name="Grupo 1076387" transform="translate(-5886 7081)">
    <g id="Grupo_1075939" data-name="Grupo 1075939" transform="translate(552)">
      <rect id="Rectángulo_376434" data-name="Rectángulo 376434" width="589" height="276.785" transform="translate(5334 -7081)" fill="#e4e9eb" opacity="0.997"/>
      <g id="Grupo_1074657" data-name="Grupo 1074657" transform="translate(4964 -12512)">
        <text id="Before" transform="translate(527.667 5465)" fill="#12263f" font-size="13" font-family="SegoeUI-BoldItalic, Segoe UI" font-weight="700" font-style="italic"><tspan x="0" y="0">Before</tspan></text>
        <text id="After" transform="translate(749.698 5465)" fill="#12263f" font-size="13" font-family="SegoeUI-BoldItalic, Segoe UI" font-weight="700" font-style="italic"><tspan x="0" y="0">After</tspan></text>
        <g id="Grupo_1074656" data-name="Grupo 1074656">
          <g id="gbVqRU.tif" transform="translate(482.454 5480.738)">
            <g id="Grupo_155512" data-name="Grupo 155512">
              <path id="Trazado_197441" data-name="Trazado 197441" d="M-953.461,4764.263q-15.129,0-30.259,0c-.4,0-.8.006-1.192-.026a1.721,1.721,0,0,1-1.731-1.51,1.7,1.7,0,0,1,1.507-1.607,7,7,0,0,1,1.187-.053q30.638,0,61.277,0a5.4,5.4,0,0,1,1.491.142,1.426,1.426,0,0,1,1.156,1.687,1.555,1.555,0,0,1-1.554,1.326,11.74,11.74,0,0,1-1.3.038Q-938.169,4764.264-953.461,4764.263Z" transform="translate(986.644 -4735.351)" fill="#12263f"/>
              <path id="Trazado_197442" data-name="Trazado 197442" d="M-961.784,4800.792q-11.334,0-22.669,0a7.561,7.561,0,0,1-.893-.029,1.562,1.562,0,0,1-1.3-1.6,1.677,1.677,0,0,1,1.129-1.7,3.628,3.628,0,0,1,.889-.058q22.954,0,45.907,0a2.9,2.9,0,0,1,1.117.15,1.571,1.571,0,0,1,.867,1.79,1.4,1.4,0,0,1-1.164,1.409,6.281,6.281,0,0,1-.973.04Q-950.328,4800.793-961.784,4800.792Z" transform="translate(986.644 -4761.97)" fill="#12263f"/>
              <path id="Trazado_197443" data-name="Trazado 197443" d="M-968.6,4830.835h-16.454a4.63,4.63,0,0,1-.648-.025c-.536-.077-.923-.685-.941-1.451a1.548,1.548,0,0,1,.819-1.54,2.2,2.2,0,0,1,.646-.051q16.66,0,33.322,0a1.716,1.716,0,0,1,.811.138,1.532,1.532,0,0,1,.629,1.617c-.064.744-.358,1.177-.845,1.272a3.633,3.633,0,0,1-.706.036Q-960.283,4830.836-968.6,4830.835Z" transform="translate(986.643 -4783.402)" fill="#12263f"/>
              <path id="Trazado_197444" data-name="Trazado 197444" d="M-977.107,4680.012c-.431,0-.866.035-1.294-.007a2.339,2.339,0,0,1-2.265-2.33,2.362,2.362,0,0,1,2.1-2.5,14.55,14.55,0,0,1,2.873-.034,2.4,2.4,0,0,1,2.341,2.435,2.378,2.378,0,0,1-2.455,2.449c-.429.03-.863,0-1.295,0Z" transform="translate(982.395 -4675.086)" fill="#12263f"/>
              <path id="Trazado_197445" data-name="Trazado 197445" d="M-899.206,4677.549a2.455,2.455,0,0,1-2.368,2.535,2.422,2.422,0,0,1-2.558-2.33,2.518,2.518,0,0,1,2.354-2.563A2.514,2.514,0,0,1-899.206,4677.549Z" transform="translate(927.975 -4675.159)" fill="#12263f"/>
              <path id="Trazado_197446" data-name="Trazado 197446" d="M-933.367,4677.692a2.384,2.384,0,0,1-2.482,2.419,2.473,2.473,0,0,1-2.437-2.351,2.573,2.573,0,0,1,2.442-2.532A2.485,2.485,0,0,1-933.367,4677.692Z" transform="translate(952.259 -4675.187)" fill="#12263f"/>
            </g>
          </g>
          <path id="Trazado_197448" data-name="Trazado 197448" d="M-784.979,4931.383h25.924l5.051-5.052-5.147-5.146h-26.02l4.718,4.718Z" transform="translate(1325.84 630.664)" fill="none" stroke="#12263f" stroke-linejoin="round" stroke-width="1.5"/>
          <path id="Trazado_197449" data-name="Trazado 197449" d="M-886.574,4931.383h25.924l5.051-5.052-5.147-5.146h-26.02l4.718,4.718Z" transform="translate(1398.079 630.664)" fill="none" stroke="#12263f" stroke-linejoin="round" stroke-width="1.5"/>
          <path id="Trazado_197450" data-name="Trazado 197450" d="M-988.169,4931.383h25.925l5.051-5.052-5.147-5.146h-26.02l4.718,4.718Z" transform="translate(1470.318 630.664)" fill="none" stroke="#12263f" stroke-linejoin="round" stroke-width="1.5"/>
          <g id="Grupo_1074611" data-name="Grupo 1074611" transform="translate(39.447 793.693)">
            <path id="Trazado_197451" data-name="Trazado 197451" d="M-634.8,4913.921v12.594a31.109,31.109,0,0,0,21.078,0l-.274-12.594" transform="translate(1179.475 -157.865)" fill="none" stroke="#12263f" stroke-linejoin="round" stroke-width="2"/>
            <ellipse id="Elipse_5993" data-name="Elipse 5993" cx="10.402" cy="3.832" rx="10.402" ry="3.832" transform="translate(544.67 4752.224)" fill="none" stroke="#12263f" stroke-linejoin="round" stroke-width="2"/>
          </g>
          <g id="Grupo_1074649" data-name="Grupo 1074649" transform="translate(262.447 793.693)">
            <path id="Trazado_197451-2" data-name="Trazado 197451" d="M-634.8,4913.921v12.594a31.109,31.109,0,0,0,21.078,0l-.274-12.594" transform="translate(1179.475 -157.865)" fill="none" stroke="#12263f" stroke-linejoin="round" stroke-width="2"/>
            <ellipse id="Elipse_5993-2" data-name="Elipse 5993" cx="10.402" cy="3.832" rx="10.402" ry="3.832" transform="translate(544.67 4752.224)" fill="none" stroke="#12263f" stroke-linejoin="round" stroke-width="2"/>
          </g>
          <g id="Grupo_1074607" data-name="Grupo 1074607" transform="translate(39.447 793.693)">
            <path id="Trazado_197452" data-name="Trazado 197452" d="M-706.488,4801.779l10.585-11.315,5.475,3.285,4.38-5.11,5.11.73,7.664-8.395" transform="translate(1230.446 -63.334)" fill="none" stroke="#12263f" stroke-linejoin="round" stroke-width="3"/>
            <g id="Rectángulo_376411" data-name="Rectángulo 376411" transform="translate(518.574 4710.017)" fill="none" stroke="#12263f" stroke-width="2">
              <rect width="47" height="33" rx="4" stroke="none"/>
              <rect x="1" y="1" width="45" height="31" rx="3" fill="none"/>
            </g>
          </g>
          <path id="Trazado_197436" data-name="Trazado 197436" d="M-10419.125-6917.625h36.843" transform="translate(10854.125 12439.818)" fill="none" stroke="#12263f" stroke-width="3"/>
          <path id="Trazado_821989" data-name="Trazado 821989" d="M-10419.125-6917.625h36.843" transform="translate(11260.356 12439.818)" fill="none" stroke="#12263f" stroke-width="3"/>
          <path id="Trazado_197437" data-name="Trazado 197437" d="M0,0H42.069" transform="translate(545.667 5620.41) rotate(-90)" fill="none" stroke="#12263f" stroke-width="3"/>
          <path id="Trazado_197439" data-name="Trazado 197439" d="M-10419.125-6917.625h77.105" transform="translate(11036.072 12439.818)" fill="none" stroke="#12263f" stroke-width="3"/>
          <g id="Grupo_1074613" data-name="Grupo 1074613" transform="translate(39.447 796.693)">
            <g id="Rectángulo_46384" data-name="Rectángulo 46384" transform="translate(462.388 4823.717)" fill="none" stroke="#12263f" stroke-width="2.5">
              <rect width="87.664" height="67.064" rx="5" stroke="none"/>
              <rect x="1.25" y="1.25" width="85.164" height="64.564" rx="3.75" fill="none"/>
            </g>
            <g id="Grupo_1074588" data-name="Grupo 1074588" transform="translate(474.703 4832.822)">
              <path id="Trazado_197441-2" data-name="Trazado 197441" d="M-10088.652-6500.5h64.543" transform="translate(10088.94 6500.5)" fill="none" stroke="#12263f" stroke-width="2"/>
              <path id="Trazado_197443-2" data-name="Trazado 197443" d="M-10088.652-6500.5h64.543" transform="translate(10088.94 6513.792)" fill="none" stroke="#12263f" stroke-width="2"/>
              <path id="Trazado_197445-2" data-name="Trazado 197445" d="M-10088.652-6500.5h64.543" transform="translate(10088.652 6525.928)" fill="none" stroke="#12263f" stroke-width="2"/>
              <path id="Trazado_197447" data-name="Trazado 197447" d="M-10088.652-6500.5h64.543" transform="translate(10088.652 6536.908)" fill="none" stroke="#12263f" stroke-width="2"/>
              <path id="Trazado_197449-2" data-name="Trazado 197449" d="M-10088.652-6500.5h64.543" transform="translate(10088.94 6507.146)" fill="none" stroke="#12263f" stroke-width="2"/>
              <path id="Trazado_197451-3" data-name="Trazado 197451" d="M-10088.652-6500.5h64.543" transform="translate(10088.94 6520.438)" fill="none" stroke="#12263f" stroke-width="2"/>
              <path id="Trazado_197453" data-name="Trazado 197453" d="M-10088.652-6500.5h64.543" transform="translate(10088.94 6531.418)" fill="none" stroke="#12263f" stroke-width="2"/>
            </g>
            <g id="Grupo_1074589" data-name="Grupo 1074589" transform="translate(500.703 4873.51)">
              <g id="Elipse_5993-3" data-name="Elipse 5993" fill="none" stroke="#12263f" stroke-width="1">
                <circle cx="5.941" cy="5.941" r="5.941" stroke="none"/>
                <circle cx="5.941" cy="5.941" r="5.441" fill="none"/>
              </g>
              <g id="Elipse_5995" data-name="Elipse 5995" transform="translate(3.127 3.127)" fill="#12263f" stroke="#12263f" stroke-width="1">
                <circle cx="2.814" cy="2.814" r="2.814" stroke="none"/>
                <circle cx="2.814" cy="2.814" r="2.314" fill="none"/>
              </g>
            </g>
          </g>
          <text id="Retire" transform="translate(639.165 5543.27)" fill="#12263f" font-size="13" font-family="SegoeUI-BoldItalic, Segoe UI" font-weight="700" font-style="italic"><tspan x="0" y="0">Retire</tspan></text>
          <g id="Rectángulo_376418" data-name="Rectángulo 376418" transform="translate(472.021 5470.694)" fill="none" stroke="#12263f" stroke-width="3">
            <rect width="147" height="110" rx="11" stroke="none"/>
            <rect x="1.5" y="1.5" width="144" height="107" rx="9.5" fill="none"/>
          </g>
          <path id="Trazado_821950" data-name="Trazado 821950" d="M4061.071-8379.466h144.3" transform="translate(-3587.494 13872.694)" fill="none" stroke="#12263f" stroke-width="3"/>
          <g id="gbVqRU.tif-2" data-name="gbVqRU.tif" transform="translate(704.485 5480.738)">
            <g id="Grupo_155512-2" data-name="Grupo 155512">
              <path id="Trazado_197441-3" data-name="Trazado 197441" d="M-953.461,4764.263q-15.129,0-30.259,0c-.4,0-.8.006-1.192-.026a1.721,1.721,0,0,1-1.731-1.51,1.7,1.7,0,0,1,1.507-1.607,7,7,0,0,1,1.187-.053q30.638,0,61.277,0a5.4,5.4,0,0,1,1.491.142,1.426,1.426,0,0,1,1.156,1.687,1.555,1.555,0,0,1-1.554,1.326,11.74,11.74,0,0,1-1.3.038Q-938.169,4764.264-953.461,4764.263Z" transform="translate(986.644 -4735.351)" fill="#12263f"/>
              <path id="Trazado_197442-2" data-name="Trazado 197442" d="M-961.784,4800.792q-11.334,0-22.669,0a7.561,7.561,0,0,1-.893-.029,1.562,1.562,0,0,1-1.3-1.6,1.677,1.677,0,0,1,1.129-1.7,3.628,3.628,0,0,1,.889-.058q22.954,0,45.907,0a2.9,2.9,0,0,1,1.117.15,1.571,1.571,0,0,1,.867,1.79,1.4,1.4,0,0,1-1.164,1.409,6.281,6.281,0,0,1-.973.04Q-950.328,4800.793-961.784,4800.792Z" transform="translate(986.644 -4761.97)" fill="#12263f"/>
              <path id="Trazado_197443-3" data-name="Trazado 197443" d="M-968.6,4830.835h-16.454a4.63,4.63,0,0,1-.648-.025c-.536-.077-.923-.685-.941-1.451a1.548,1.548,0,0,1,.819-1.54,2.2,2.2,0,0,1,.646-.051q16.66,0,33.322,0a1.716,1.716,0,0,1,.811.138,1.532,1.532,0,0,1,.629,1.617c-.064.744-.358,1.177-.845,1.272a3.633,3.633,0,0,1-.706.036Q-960.283,4830.836-968.6,4830.835Z" transform="translate(986.643 -4783.402)" fill="#12263f"/>
              <path id="Trazado_197444-2" data-name="Trazado 197444" d="M-977.107,4680.012c-.431,0-.866.035-1.294-.007a2.339,2.339,0,0,1-2.265-2.33,2.362,2.362,0,0,1,2.1-2.5,14.55,14.55,0,0,1,2.873-.034,2.4,2.4,0,0,1,2.341,2.435,2.378,2.378,0,0,1-2.455,2.449c-.429.03-.863,0-1.295,0Z" transform="translate(982.395 -4675.086)" fill="#12263f"/>
              <path id="Trazado_197445-3" data-name="Trazado 197445" d="M-899.206,4677.549a2.455,2.455,0,0,1-2.368,2.535,2.422,2.422,0,0,1-2.558-2.33,2.518,2.518,0,0,1,2.354-2.563A2.514,2.514,0,0,1-899.206,4677.549Z" transform="translate(927.975 -4675.159)" fill="#12263f"/>
              <path id="Trazado_197446-2" data-name="Trazado 197446" d="M-933.367,4677.692a2.384,2.384,0,0,1-2.482,2.419,2.473,2.473,0,0,1-2.437-2.351,2.573,2.573,0,0,1,2.442-2.532A2.485,2.485,0,0,1-933.367,4677.692Z" transform="translate(952.259 -4675.187)" fill="#12263f"/>
            </g>
          </g>
          <path id="Trazado_821984" data-name="Trazado 821984" d="M-784.979,4931.383h25.924l5.051-5.052-5.147-5.146h-26.02l4.718,4.718Z" transform="translate(1547.871 630.664)" fill="none" stroke="#12263f" stroke-linejoin="round" stroke-width="1.5"/>
          <path id="Trazado_821985" data-name="Trazado 821985" d="M-886.574,4931.383h25.924l5.051-5.052-5.147-5.146h-26.02l4.718,4.718Z" transform="translate(1620.11 630.664)" fill="none" stroke="#12263f" stroke-linejoin="round" stroke-width="1.5"/>
          <path id="Trazado_821988" data-name="Trazado 821988" d="M-988.169,4931.383h25.925l5.051-5.052-5.147-5.146h-26.02l4.718,4.718Z" transform="translate(1692.35 630.664)" fill="none" stroke="#12263f" stroke-linejoin="round" stroke-width="1.5"/>
          <g id="Grupo_1074643" data-name="Grupo 1074643" transform="translate(261.479 793.693)">
            <path id="Trazado_197452-2" data-name="Trazado 197452" d="M-706.488,4801.779l10.585-11.315,5.475,3.285,4.38-5.11,5.11.73,7.664-8.395" transform="translate(1230.446 -63.334)" fill="none" stroke="#12263f" stroke-linejoin="round" stroke-width="3"/>
            <g id="Rectángulo_376411-2" data-name="Rectángulo 376411" transform="translate(518.574 4710.017)" fill="none" stroke="#12263f" stroke-width="2">
              <rect width="47" height="33" rx="4" stroke="none"/>
              <rect x="1" y="1" width="45" height="31" rx="3" fill="none"/>
            </g>
          </g>
          <path id="Trazado_821986" data-name="Trazado 821986" d="M0,0H42.069" transform="translate(767.698 5620.41) rotate(-90)" fill="none" stroke="#12263f" stroke-width="3"/>
          <g id="Grupo_1074642" data-name="Grupo 1074642" transform="translate(261.479 796.693)">
            <g id="Rectángulo_46384-2" data-name="Rectángulo 46384" transform="translate(462.388 4823.717)" fill="none" stroke="#12263f" stroke-width="2.5">
              <rect width="87.664" height="67.064" rx="5" stroke="none"/>
              <rect x="1.25" y="1.25" width="85.164" height="64.564" rx="3.75" fill="none"/>
            </g>
            <g id="Grupo_1074588-2" data-name="Grupo 1074588" transform="translate(474.703 4832.822)">
              <path id="Trazado_197441-4" data-name="Trazado 197441" d="M-10088.652-6500.5h64.543" transform="translate(10088.94 6500.5)" fill="none" stroke="#12263f" stroke-width="2"/>
              <path id="Trazado_197443-4" data-name="Trazado 197443" d="M-10088.652-6500.5h64.543" transform="translate(10088.94 6513.792)" fill="none" stroke="#12263f" stroke-width="2"/>
              <path id="Trazado_197445-4" data-name="Trazado 197445" d="M-10088.652-6500.5h64.543" transform="translate(10088.652 6525.928)" fill="none" stroke="#12263f" stroke-width="2"/>
              <path id="Trazado_197447-2" data-name="Trazado 197447" d="M-10088.652-6500.5h64.543" transform="translate(10088.652 6536.908)" fill="none" stroke="#12263f" stroke-width="2"/>
              <path id="Trazado_197449-3" data-name="Trazado 197449" d="M-10088.652-6500.5h64.543" transform="translate(10088.94 6507.146)" fill="none" stroke="#12263f" stroke-width="2"/>
              <path id="Trazado_197451-4" data-name="Trazado 197451" d="M-10088.652-6500.5h64.543" transform="translate(10088.94 6520.438)" fill="none" stroke="#12263f" stroke-width="2"/>
              <path id="Trazado_197453-2" data-name="Trazado 197453" d="M-10088.652-6500.5h64.543" transform="translate(10088.94 6531.418)" fill="none" stroke="#12263f" stroke-width="2"/>
            </g>
            <g id="Grupo_1074589-2" data-name="Grupo 1074589" transform="translate(500.703 4873.51)">
              <g id="Elipse_5993-4" data-name="Elipse 5993" fill="none" stroke="#12263f" stroke-width="1">
                <circle cx="5.941" cy="5.941" r="5.941" stroke="none"/>
                <circle cx="5.941" cy="5.941" r="5.441" fill="none"/>
              </g>
              <g id="Elipse_5995-2" data-name="Elipse 5995" transform="translate(3.127 3.127)" fill="#12263f" stroke="#12263f" stroke-width="1">
                <circle cx="2.814" cy="2.814" r="2.814" stroke="none"/>
                <circle cx="2.814" cy="2.814" r="2.314" fill="none"/>
              </g>
            </g>
          </g>
          <g id="Rectángulo_376435" data-name="Rectángulo 376435" transform="translate(694.053 5470.694)" fill="none" stroke="#12263f" stroke-width="3">
            <rect width="147" height="110" rx="11" stroke="none"/>
            <rect x="1.5" y="1.5" width="144" height="107" rx="9.5" fill="none"/>
          </g>
          <path id="Trazado_821987" data-name="Trazado 821987" d="M4061.071-8379.466h144.3" transform="translate(-3365.463 13872.694)" fill="none" stroke="#12263f" stroke-width="3"/>
          <g id="Grupo_1074646" data-name="Grupo 1074646" transform="translate(25.845 -47.746)">
            <g id="Rectángulo_376436" data-name="Rectángulo 376436" transform="translate(774 5508.354)" fill="#e4e9eb" stroke="#12263f" stroke-width="2.5">
              <rect width="43.603" height="23.478" rx="11.739" stroke="none"/>
              <rect x="1.25" y="1.25" width="41.103" height="20.978" rx="10.489" fill="none"/>
            </g>
            <g id="Trazado_821991" data-name="Trazado 821991" transform="translate(796.64 5505.839)" fill="#e4e9eb">
              <path d="M 13.83544921875 26.4208984375 C 10.4737491607666 26.4208984375 7.313269138336182 25.11178970336914 4.9361891746521 22.73470878601074 C 2.559109210968018 20.35762977600098 1.249999165534973 17.1971492767334 1.249999165534973 13.83544921875 C 1.249999165534973 10.4737491607666 2.559109210968018 7.313269138336182 4.9361891746521 4.9361891746521 C 7.313269138336182 2.559109210968018 10.4737491607666 1.249999165534973 13.83544921875 1.249999165534973 C 17.1971492767334 1.249999165534973 20.35762977600098 2.559109210968018 22.73470878601074 4.9361891746521 C 25.11178970336914 7.313269138336182 26.4208984375 10.4737491607666 26.4208984375 13.83544921875 C 26.4208984375 17.1971492767334 25.11178970336914 20.35762977600098 22.73470878601074 22.73470878601074 C 20.35762977600098 25.11178970336914 17.1971492767334 26.4208984375 13.83544921875 26.4208984375 Z" stroke="none"/>
              <path d="M 13.83544921875 2.5 C 10.80764007568359 2.5 7.9610595703125 3.679088592529297 5.820079803466797 5.820079803466797 C 3.679088592529297 7.9610595703125 2.5 10.80764007568359 2.5 13.83544921875 C 2.5 16.86325836181641 3.679088592529297 19.7098388671875 5.820079803466797 21.8508186340332 C 7.9610595703125 23.9918098449707 10.80764007568359 25.1708984375 13.83544921875 25.1708984375 C 16.86325836181641 25.1708984375 19.7098388671875 23.9918098449707 21.8508186340332 21.8508186340332 C 23.9918098449707 19.7098388671875 25.1708984375 16.86325836181641 25.1708984375 13.83544921875 C 25.1708984375 10.80764007568359 23.9918098449707 7.9610595703125 21.8508186340332 5.820079803466797 C 19.7098388671875 3.679088592529297 16.86325836181641 2.5 13.83544921875 2.5 M 13.83544921875 0 C 21.47655868530273 0 27.6708984375 6.194339752197266 27.6708984375 13.83544921875 C 27.6708984375 21.47655868530273 21.47655868530273 27.6708984375 13.83544921875 27.6708984375 C 6.194339752197266 27.6708984375 0 21.47655868530273 0 13.83544921875 C 0 6.194339752197266 6.194339752197266 0 13.83544921875 0 Z" stroke="none" fill="#12263f"/>
            </g>
            <g id="Grupo_1074645" data-name="Grupo 1074645" transform="translate(804.919 5511.96)">
              <g id="Elipse_10497" data-name="Elipse 10497" transform="translate(0 1.988)" fill="#e4e9eb" stroke="#12263f" stroke-width="2">
                <circle cx="5.825" cy="5.825" r="5.825" stroke="none"/>
                <circle cx="5.825" cy="5.825" r="4.825" fill="none"/>
              </g>
              <path id="Trazado_821990" data-name="Trazado 821990" d="M-9935-6639.1v5.568" transform="translate(9940.825 6639.102)" fill="none" stroke="#12263f" stroke-width="2"/>
            </g>
            <text id="Off" transform="translate(782.155 5523.335)" fill="#12263f" font-size="8" font-family="SegoeUI-Bold, Segoe UI" font-weight="700"><tspan x="0" y="0">Off</tspan></text>
          </g>
          <path id="Polígono_88" data-name="Polígono 88" d="M9.7,0l9.7,16.457H0Z" transform="translate(894.531 5512.498) rotate(90)" fill="#12263f"/>
        </g>
      </g>
    </g>
  </g>
</svg>
