<svg xmlns="http://www.w3.org/2000/svg" width="589" height="271.785" viewBox="0 0 589 271.785">
  <g id="Grupo_1075938" data-name="Grupo 1075938" transform="translate(-5334 6615.498)">
    <rect id="Rectángulo_376434" data-name="Rectángulo 376434" width="589" height="271.785" transform="translate(5334 -6615.498)" fill="#e4e9eb" opacity="0.997"/>
    <g id="Grupo_1075937" data-name="Grupo 1075937" transform="translate(-17)">
      <g id="gbVqRU.tif" transform="translate(5446.454 -6568.76)">
        <g id="Grupo_155512" data-name="Grupo 155512">
          <path id="Trazado_197441" data-name="Trazado 197441" d="M-953.461,4764.263q-15.129,0-30.259,0c-.4,0-.8.006-1.192-.026a1.721,1.721,0,0,1-1.731-1.51,1.7,1.7,0,0,1,1.507-1.607,7,7,0,0,1,1.187-.053q30.638,0,61.277,0a5.4,5.4,0,0,1,1.491.142,1.426,1.426,0,0,1,1.156,1.687,1.555,1.555,0,0,1-1.554,1.326,11.74,11.74,0,0,1-1.3.038Q-938.169,4764.264-953.461,4764.263Z" transform="translate(986.644 -4735.351)" fill="#12263f"/>
          <path id="Trazado_197442" data-name="Trazado 197442" d="M-961.784,4800.792q-11.334,0-22.669,0a7.561,7.561,0,0,1-.893-.029,1.562,1.562,0,0,1-1.3-1.6,1.677,1.677,0,0,1,1.129-1.7,3.628,3.628,0,0,1,.889-.058q22.954,0,45.907,0a2.9,2.9,0,0,1,1.117.15,1.571,1.571,0,0,1,.867,1.79,1.4,1.4,0,0,1-1.164,1.409,6.281,6.281,0,0,1-.973.04Q-950.328,4800.793-961.784,4800.792Z" transform="translate(986.644 -4761.97)" fill="#12263f"/>
          <path id="Trazado_197443" data-name="Trazado 197443" d="M-968.6,4830.835h-16.454a4.63,4.63,0,0,1-.648-.025c-.536-.077-.923-.685-.941-1.451a1.548,1.548,0,0,1,.819-1.54,2.2,2.2,0,0,1,.646-.051q16.66,0,33.322,0a1.716,1.716,0,0,1,.811.138,1.532,1.532,0,0,1,.629,1.617c-.064.744-.358,1.177-.845,1.272a3.633,3.633,0,0,1-.706.036Q-960.283,4830.836-968.6,4830.835Z" transform="translate(986.643 -4783.402)" fill="#12263f"/>
          <path id="Trazado_197444" data-name="Trazado 197444" d="M-977.107,4680.012c-.431,0-.866.035-1.294-.007a2.339,2.339,0,0,1-2.265-2.33,2.362,2.362,0,0,1,2.1-2.5,14.55,14.55,0,0,1,2.873-.034,2.4,2.4,0,0,1,2.341,2.435,2.378,2.378,0,0,1-2.455,2.449c-.429.03-.863,0-1.295,0Z" transform="translate(982.395 -4675.086)" fill="#12263f"/>
          <path id="Trazado_197445" data-name="Trazado 197445" d="M-899.206,4677.549a2.455,2.455,0,0,1-2.368,2.535,2.422,2.422,0,0,1-2.558-2.33,2.518,2.518,0,0,1,2.354-2.563A2.514,2.514,0,0,1-899.206,4677.549Z" transform="translate(927.975 -4675.159)" fill="#12263f"/>
          <path id="Trazado_197446" data-name="Trazado 197446" d="M-933.367,4677.692a2.384,2.384,0,0,1-2.482,2.419,2.473,2.473,0,0,1-2.437-2.351,2.573,2.573,0,0,1,2.442-2.532A2.485,2.485,0,0,1-933.367,4677.692Z" transform="translate(952.259 -4675.187)" fill="#12263f"/>
        </g>
      </g>
      <path id="Trazado_197448" data-name="Trazado 197448" d="M-784.979,4931.383h25.924l5.051-5.052-5.147-5.146h-26.02l4.718,4.718Z" transform="translate(6289.84 -11418.834)" fill="none" stroke="#12263f" stroke-linejoin="round" stroke-width="1.5"/>
      <path id="Trazado_197449" data-name="Trazado 197449" d="M-886.574,4931.383h25.924l5.051-5.052-5.147-5.146h-26.02l4.718,4.718Z" transform="translate(6362.079 -11418.834)" fill="none" stroke="#12263f" stroke-linejoin="round" stroke-width="1.5"/>
      <path id="Trazado_197450" data-name="Trazado 197450" d="M-988.169,4931.383h25.925l5.051-5.052-5.147-5.146h-26.02l4.718,4.718Z" transform="translate(6434.318 -11418.834)" fill="none" stroke="#12263f" stroke-linejoin="round" stroke-width="1.5"/>
      <g id="Grupo_1074611" data-name="Grupo 1074611" transform="translate(5003.447 -11255.805)">
        <path id="Trazado_197451" data-name="Trazado 197451" d="M-634.8,4913.921v12.594a31.109,31.109,0,0,0,21.078,0l-.274-12.594" transform="translate(1179.475 -157.865)" fill="none" stroke="#12263f" stroke-linejoin="round" stroke-width="2"/>
        <ellipse id="Elipse_5993" data-name="Elipse 5993" cx="10.402" cy="3.832" rx="10.402" ry="3.832" transform="translate(544.67 4752.224)" fill="none" stroke="#12263f" stroke-linejoin="round" stroke-width="2"/>
      </g>
      <g id="Grupo_1074650" data-name="Grupo 1074650" transform="translate(5225.447 -11255.805)">
        <path id="Trazado_197451-2" data-name="Trazado 197451" d="M-634.8,4913.921v12.594a31.109,31.109,0,0,0,21.078,0l-.274-12.594" transform="translate(1179.475 -157.865)" fill="none" stroke="#12263f" stroke-linejoin="round" stroke-width="2"/>
        <ellipse id="Elipse_5993-2" data-name="Elipse 5993" cx="10.402" cy="3.832" rx="10.402" ry="3.832" transform="translate(544.67 4752.224)" fill="none" stroke="#12263f" stroke-linejoin="round" stroke-width="2"/>
      </g>
      <g id="Grupo_1074607" data-name="Grupo 1074607" transform="translate(5003.447 -11255.805)">
        <path id="Trazado_197452" data-name="Trazado 197452" d="M-706.488,4801.779l10.585-11.315,5.475,3.285,4.38-5.11,5.11.73,7.664-8.395" transform="translate(1230.446 -63.334)" fill="none" stroke="#12263f" stroke-linejoin="round" stroke-width="3"/>
        <g id="Rectángulo_376411" data-name="Rectángulo 376411" transform="translate(518.574 4710.017)" fill="none" stroke="#12263f" stroke-width="2">
          <rect width="47" height="33" rx="4" stroke="none"/>
          <rect x="1" y="1" width="45" height="31" rx="3" fill="none"/>
        </g>
      </g>
      <path id="Trazado_197436" data-name="Trazado 197436" d="M-10419.125-6917.625h36.843" transform="translate(15818.125 390.32)" fill="none" stroke="#12263f" stroke-width="3"/>
      <path id="Trazado_821989" data-name="Trazado 821989" d="M-10419.125-6917.625h36.843" transform="translate(16224.356 390.32)" fill="none" stroke="#12263f" stroke-width="3"/>
      <path id="Trazado_197437" data-name="Trazado 197437" d="M0,0H42.069" transform="translate(5509.667 -6429.088) rotate(-90)" fill="none" stroke="#12263f" stroke-width="3"/>
      <path id="Trazado_197439" data-name="Trazado 197439" d="M-10419.125-6917.625h77.105" transform="translate(16000.072 390.32)" fill="none" stroke="#12263f" stroke-width="3"/>
      <g id="Grupo_1074613" data-name="Grupo 1074613" transform="translate(5003.447 -11252.805)">
        <g id="Rectángulo_46384" data-name="Rectángulo 46384" transform="translate(462.388 4823.717)" fill="none" stroke="#12263f" stroke-width="2.5">
          <rect width="87.664" height="67.064" rx="5" stroke="none"/>
          <rect x="1.25" y="1.25" width="85.164" height="64.564" rx="3.75" fill="none"/>
        </g>
        <g id="Grupo_1074588" data-name="Grupo 1074588" transform="translate(474.703 4832.822)">
          <path id="Trazado_197441-2" data-name="Trazado 197441" d="M-10088.652-6500.5h64.543" transform="translate(10088.94 6500.5)" fill="none" stroke="#12263f" stroke-width="2"/>
          <path id="Trazado_197443-2" data-name="Trazado 197443" d="M-10088.652-6500.5h64.543" transform="translate(10088.94 6513.792)" fill="none" stroke="#12263f" stroke-width="2"/>
          <path id="Trazado_197445-2" data-name="Trazado 197445" d="M-10088.652-6500.5h64.543" transform="translate(10088.652 6525.928)" fill="none" stroke="#12263f" stroke-width="2"/>
          <path id="Trazado_197447" data-name="Trazado 197447" d="M-10088.652-6500.5h64.543" transform="translate(10088.652 6536.908)" fill="none" stroke="#12263f" stroke-width="2"/>
          <path id="Trazado_197449-2" data-name="Trazado 197449" d="M-10088.652-6500.5h64.543" transform="translate(10088.94 6507.146)" fill="none" stroke="#12263f" stroke-width="2"/>
          <path id="Trazado_197451-3" data-name="Trazado 197451" d="M-10088.652-6500.5h64.543" transform="translate(10088.94 6520.438)" fill="none" stroke="#12263f" stroke-width="2"/>
          <path id="Trazado_197453" data-name="Trazado 197453" d="M-10088.652-6500.5h64.543" transform="translate(10088.94 6531.418)" fill="none" stroke="#12263f" stroke-width="2"/>
        </g>
        <g id="Grupo_1074589" data-name="Grupo 1074589" transform="translate(500.703 4873.51)">
          <g id="Elipse_5993-3" data-name="Elipse 5993" fill="none" stroke="#12263f" stroke-width="1">
            <circle cx="5.941" cy="5.941" r="5.941" stroke="none"/>
            <circle cx="5.941" cy="5.941" r="5.441" fill="none"/>
          </g>
          <g id="Elipse_5995" data-name="Elipse 5995" transform="translate(3.127 3.127)" fill="#12263f" stroke="#12263f" stroke-width="1">
            <circle cx="2.814" cy="2.814" r="2.814" stroke="none"/>
            <circle cx="2.814" cy="2.814" r="2.314" fill="none"/>
          </g>
        </g>
      </g>
      <text id="Before" transform="translate(5490 -6584.498)" fill="#12263f" font-size="13" font-family="SegoeUI-Bold, Segoe UI" font-weight="700"><tspan x="0" y="0">Before</tspan></text>
      <text id="Retain" transform="translate(5603.165 -6506.229)" fill="#12263f" font-size="13" font-family="SegoeUI-Bold, Segoe UI" font-weight="700"><tspan x="0" y="0">Retain</tspan></text>
      <g id="Rectángulo_376418" data-name="Rectángulo 376418" transform="translate(5436 -6578.804)" fill="none" stroke="#12263f" stroke-width="3">
        <rect width="147" height="110" rx="11" stroke="none"/>
        <rect x="1.5" y="1.5" width="144" height="107" rx="9.5" fill="none"/>
      </g>
      <path id="Trazado_821950" data-name="Trazado 821950" d="M4061.071-8379.466h144.3" transform="translate(1376.506 1823.196)" fill="none" stroke="#12263f" stroke-width="3"/>
      <path id="Trazado_197441-3" data-name="Trazado 197441" d="M-953.461,4764.263q-15.129,0-30.259,0c-.4,0-.8.006-1.192-.026a1.721,1.721,0,0,1-1.731-1.51,1.7,1.7,0,0,1,1.507-1.607,7,7,0,0,1,1.187-.053q30.638,0,61.277,0a5.4,5.4,0,0,1,1.491.142,1.426,1.426,0,0,1,1.156,1.687,1.555,1.555,0,0,1-1.554,1.326,11.74,11.74,0,0,1-1.3.038Q-938.169,4764.264-953.461,4764.263Z" transform="translate(6655.129 -11304.111)" fill="#12263f"/>
      <path id="Trazado_197442-2" data-name="Trazado 197442" d="M-961.784,4800.792q-11.334,0-22.669,0a7.561,7.561,0,0,1-.893-.029,1.562,1.562,0,0,1-1.3-1.6,1.677,1.677,0,0,1,1.129-1.7,3.628,3.628,0,0,1,.889-.058q22.954,0,45.907,0a2.9,2.9,0,0,1,1.117.15,1.571,1.571,0,0,1,.867,1.79,1.4,1.4,0,0,1-1.164,1.409,6.281,6.281,0,0,1-.973.04Q-950.328,4800.793-961.784,4800.792Z" transform="translate(6655.129 -11330.73)" fill="#12263f"/>
      <path id="Trazado_197443-3" data-name="Trazado 197443" d="M-968.6,4830.835h-16.454a4.63,4.63,0,0,1-.648-.025c-.536-.077-.923-.685-.941-1.451a1.548,1.548,0,0,1,.819-1.54,2.2,2.2,0,0,1,.646-.051q16.66,0,33.322,0a1.716,1.716,0,0,1,.811.138,1.532,1.532,0,0,1,.629,1.617c-.064.744-.358,1.177-.845,1.272a3.633,3.633,0,0,1-.706.036Q-960.283,4830.836-968.6,4830.835Z" transform="translate(6655.129 -11352.162)" fill="#12263f"/>
      <path id="Trazado_197444-2" data-name="Trazado 197444" d="M-977.107,4680.012c-.431,0-.866.035-1.294-.007a2.339,2.339,0,0,1-2.265-2.33,2.362,2.362,0,0,1,2.1-2.5,14.55,14.55,0,0,1,2.873-.034,2.4,2.4,0,0,1,2.341,2.435,2.378,2.378,0,0,1-2.455,2.449c-.429.03-.863,0-1.295,0Z" transform="translate(6650.88 -11243.846)" fill="#12263f"/>
      <path id="Trazado_197445-3" data-name="Trazado 197445" d="M-899.206,4677.549a2.455,2.455,0,0,1-2.368,2.535,2.422,2.422,0,0,1-2.558-2.33,2.518,2.518,0,0,1,2.354-2.563A2.514,2.514,0,0,1-899.206,4677.549Z" transform="translate(6596.46 -11243.918)" fill="#12263f"/>
      <path id="Trazado_197446-2" data-name="Trazado 197446" d="M-933.367,4677.692a2.384,2.384,0,0,1-2.482,2.419,2.473,2.473,0,0,1-2.437-2.351,2.573,2.573,0,0,1,2.442-2.532A2.485,2.485,0,0,1-933.367,4677.692Z" transform="translate(6620.745 -11243.947)" fill="#12263f"/>
      <path id="Trazado_821984" data-name="Trazado 821984" d="M-784.979,4931.383h25.924l5.051-5.052-5.147-5.146h-26.02l4.718,4.718Z" transform="translate(6511.871 -11418.834)" fill="none" stroke="#12263f" stroke-linejoin="round" stroke-width="1.5"/>
      <path id="Trazado_821985" data-name="Trazado 821985" d="M-886.574,4931.383h25.924l5.051-5.052-5.147-5.146h-26.02l4.718,4.718Z" transform="translate(6584.11 -11418.834)" fill="none" stroke="#12263f" stroke-linejoin="round" stroke-width="1.5"/>
      <path id="Trazado_821988" data-name="Trazado 821988" d="M-988.169,4931.383h25.925l5.051-5.052-5.147-5.146h-26.02l4.718,4.718Z" transform="translate(6656.35 -11418.834)" fill="none" stroke="#12263f" stroke-linejoin="round" stroke-width="1.5"/>
      <path id="Trazado_197452-2" data-name="Trazado 197452" d="M-706.488,4801.779l10.585-11.315,5.475,3.285,4.38-5.11,5.11.73,7.664-8.395" transform="translate(6455.924 -11319.139)" fill="none" stroke="#12263f" stroke-linejoin="round" stroke-width="3"/>
      <g id="Rectángulo_376411-2" data-name="Rectángulo 376411" transform="translate(5744.053 -6545.788)" fill="none" stroke="#12263f" stroke-width="2">
        <rect width="47" height="33" rx="4" stroke="none"/>
        <rect x="1" y="1" width="45" height="31" rx="3" fill="none"/>
      </g>
      <path id="Trazado_821986" data-name="Trazado 821986" d="M0,0H42.069" transform="translate(5731.698 -6429.088) rotate(-90)" fill="none" stroke="#12263f" stroke-width="3"/>
      <g id="Rectángulo_46384-2" data-name="Rectángulo 46384" transform="translate(5687.866 -6429.088)" fill="none" stroke="#12263f" stroke-width="2.5">
        <rect width="87.664" height="67.064" rx="5" stroke="none"/>
        <rect x="1.25" y="1.25" width="85.164" height="64.564" rx="3.75" fill="none"/>
      </g>
      <path id="Trazado_197441-4" data-name="Trazado 197441" d="M-10088.652-6500.5h64.543" transform="translate(15789.121 80.518)" fill="none" stroke="#12263f" stroke-width="2"/>
      <path id="Trazado_197443-4" data-name="Trazado 197443" d="M-10088.652-6500.5h64.543" transform="translate(15789.121 93.81)" fill="none" stroke="#12263f" stroke-width="2"/>
      <path id="Trazado_197445-4" data-name="Trazado 197445" d="M-10088.652-6500.5h64.543" transform="translate(15788.834 105.945)" fill="none" stroke="#12263f" stroke-width="2"/>
      <path id="Trazado_197447-2" data-name="Trazado 197447" d="M-10088.652-6500.5h64.543" transform="translate(15788.834 116.926)" fill="none" stroke="#12263f" stroke-width="2"/>
      <path id="Trazado_197449-3" data-name="Trazado 197449" d="M-10088.652-6500.5h64.543" transform="translate(15789.121 87.164)" fill="none" stroke="#12263f" stroke-width="2"/>
      <path id="Trazado_197451-4" data-name="Trazado 197451" d="M-10088.652-6500.5h64.543" transform="translate(15789.121 100.455)" fill="none" stroke="#12263f" stroke-width="2"/>
      <path id="Trazado_197453-2" data-name="Trazado 197453" d="M-10088.652-6500.5h64.543" transform="translate(15789.121 111.436)" fill="none" stroke="#12263f" stroke-width="2"/>
      <g id="Elipse_5993-4" data-name="Elipse 5993" transform="translate(5726.181 -6379.295)" fill="none" stroke="#12263f" stroke-width="1">
        <circle cx="5.941" cy="5.941" r="5.941" stroke="none"/>
        <circle cx="5.941" cy="5.941" r="5.441" fill="none"/>
      </g>
      <g id="Elipse_5995-2" data-name="Elipse 5995" transform="translate(5729.308 -6376.168)" fill="#12263f" stroke="#12263f" stroke-width="1">
        <circle cx="2.814" cy="2.814" r="2.814" stroke="none"/>
        <circle cx="2.814" cy="2.814" r="2.314" fill="none"/>
      </g>
      <text id="After" transform="translate(5717 -6584.498)" fill="#12263f" font-size="13" font-family="SegoeUI-Bold, Segoe UI" font-weight="700"><tspan x="0" y="0">After</tspan></text>
      <g id="Rectángulo_376435" data-name="Rectángulo 376435" transform="translate(5658 -6578.804)" fill="none" stroke="#12263f" stroke-width="3">
        <rect width="147" height="110" rx="11" stroke="none"/>
        <rect x="1.5" y="1.5" width="144" height="107" rx="9.5" fill="none"/>
      </g>
      <path id="Trazado_821987" data-name="Trazado 821987" d="M4061.071-8379.466h144.3" transform="translate(1598.537 1823.196)" fill="none" stroke="#12263f" stroke-width="3"/>
      <path id="Polígono_88" data-name="Polígono 88" d="M9.7,0l9.7,16.457H0Z" transform="translate(5858.531 -6537) rotate(90)" fill="#12263f"/>
      <g id="Jh8W0t" transform="translate(5815.148 -6586.901)">
        <g id="Grupo_155516" data-name="Grupo 155516">
          <path id="Trazado_197486" data-name="Trazado 197486" d="M-1399.06,4854.5a24.654,24.654,0,0,1-2.391.678c-3.788.68-7.643-1.54-8.943-5.939a10.874,10.874,0,0,1,2.3-10.639,8.76,8.76,0,0,1,6.271-3.188c.1-.008.2-.023.3-.039.014,0,.026-.023.048-.044-.121-.6-.287-1.2-.358-1.82a7.872,7.872,0,0,1,1.863-6.139,11.437,11.437,0,0,1,5.493-3.638,14.284,14.284,0,0,1,8.3-.181,20.859,20.859,0,0,1,3.011,1.223.463.463,0,0,0,.661-.128,11.559,11.559,0,0,1,5.168-3.5,13.458,13.458,0,0,1,7.242-.363,15.363,15.363,0,0,1,6.744,3.4.777.777,0,0,0,.67.145,18.891,18.891,0,0,1,6.64-1.261,8.926,8.926,0,0,1,5.464,1.724,7.28,7.28,0,0,1,2.739,5.893c.007.233,0,.468,0,.748.674-.105,1.3-.248,1.926-.294,2.514-.186,4.346,1.635,4.288,4.528-.015.742-.077,1.483-.115,2.2.8.171,1.627.276,2.419.528a8.085,8.085,0,0,1,5.58,5.593,8.868,8.868,0,0,1-.394,6.281,11.181,11.181,0,0,1-7.064,6.428,10.276,10.276,0,0,1-4.778.366c-.4-.059-.542.087-.662.548a8.346,8.346,0,0,1-5.2,6,12.181,12.181,0,0,1-7.761.3,19.119,19.119,0,0,1-5.727-2.656.642.642,0,0,0-.622.025,16.511,16.511,0,0,1-13.641,2.724,11.321,11.321,0,0,1-6.788-4.306c-.177-.235-.316-.268-.562-.115a8,8,0,0,1-4.891,1.27,8.1,8.1,0,0,1-7.044-5.917C-1398.927,4854.792-1399,4854.654-1399.06,4854.5Zm8.449-30.985a12.88,12.88,0,0,0-6.544,2,9.469,9.469,0,0,0-3.705,4.113,6.8,6.8,0,0,0-.353,4.936c.288.939.119,1.238-.7,1.335-.2.023-.4.068-.6.1-3.636.622-6.174,2.9-7.465,6.93a9.49,9.49,0,0,0,2.3,9.9,7.033,7.033,0,0,0,7.785,1.416c.965-.367,1.107-.29,1.5.791a7.775,7.775,0,0,0,6.882,5.358,8.084,8.084,0,0,0,4.262-1.155.819.819,0,0,1,1.273.227,9.9,9.9,0,0,0,3.483,2.923,14.414,14.414,0,0,0,8.441,1.474,16.827,16.827,0,0,0,7.95-3.021,1.183,1.183,0,0,1,1.041.043c.657.309,1.258.773,1.9,1.117a13.846,13.846,0,0,0,9.247,1.7,8.21,8.21,0,0,0,6.974-6.542c.147-.579.511-.606.926-.576a16.126,16.126,0,0,0,1.876.1,10.557,10.557,0,0,0,9.23-5.8,8.4,8.4,0,0,0-1.386-10.228,8.9,8.9,0,0,0-5.063-2.237c-.721-.092-.848-.341-.772-1.16a13.64,13.64,0,0,0,.056-2.365,3.323,3.323,0,0,0-2.628-3.162,8.946,8.946,0,0,0-2.417.085c-.915.139-1.112.015-1.127-1.048,0-.158,0-.317-.011-.476a6.777,6.777,0,0,0-2.546-5.089,8.345,8.345,0,0,0-5.02-1.66,15.658,15.658,0,0,0-6.25,1.105,1.625,1.625,0,0,1-2.009-.447,3.353,3.353,0,0,0-.587-.468,14.12,14.12,0,0,0-6.366-2.635,12.018,12.018,0,0,0-11.118,3.823.919.919,0,0,1-1.249.225A14.593,14.593,0,0,0-1390.611,4823.517Z" transform="translate(1410.911 -4820.458)" fill="#12263f" stroke="#12263f" stroke-width="2"/>
        </g>
      </g>
      <g id="Elipse_6002" data-name="Elipse 6002" transform="translate(5809.648 -6557.401)" fill="none" stroke="#12263f" stroke-width="2">
        <circle cx="5.5" cy="5.5" r="5.5" stroke="none"/>
        <circle cx="5.5" cy="5.5" r="4.5" fill="none"/>
      </g>
      <g id="Elipse_10498" data-name="Elipse 10498" transform="translate(5804 -6551.401)" fill="none" stroke="#12263f" stroke-width="2">
        <circle cx="4" cy="4" r="4" stroke="none"/>
        <circle cx="4" cy="4" r="3" fill="none"/>
      </g>
      <text id="Zzzzzzz" transform="translate(5834 -6558.901)" fill="#12263f" font-size="12" font-family="SegoeUI-Bold, Segoe UI" font-weight="700"><tspan x="0" y="0">Zzzzzzz</tspan></text>
    </g>
  </g>
</svg>
