<svg xmlns="http://www.w3.org/2000/svg" width="589" height="263.502" viewBox="0 0 589 263.502">
  <g id="Grupo_1075942" data-name="Grupo 1075942" transform="translate(-370 -3385)">
    <rect id="Rectángulo_376441" data-name="Rectángulo 376441" width="589" height="263.502" transform="translate(370 3385)" fill="#e4e9eb" opacity="0.997"/>
    <g id="Grupo_1074660" data-name="Grupo 1074660" transform="translate(446 3397)">
      <g id="gbVqRU.tif" transform="translate(47.454 32.893)">
        <g id="Grupo_155512" data-name="Grupo 155512">
          <path id="Trazado_197441" data-name="Trazado 197441" d="M-953.461,4764.263q-15.129,0-30.259,0c-.4,0-.8.006-1.192-.026a1.721,1.721,0,0,1-1.731-1.51,1.7,1.7,0,0,1,1.507-1.607,7,7,0,0,1,1.187-.053q30.638,0,61.277,0a5.4,5.4,0,0,1,1.491.142,1.426,1.426,0,0,1,1.156,1.687,1.555,1.555,0,0,1-1.554,1.326,11.74,11.74,0,0,1-1.3.038Q-938.169,4764.264-953.461,4764.263Z" transform="translate(986.644 -4735.351)" fill="#12263f"/>
          <path id="Trazado_197442" data-name="Trazado 197442" d="M-961.784,4800.792q-11.334,0-22.669,0a7.561,7.561,0,0,1-.893-.029,1.562,1.562,0,0,1-1.3-1.6,1.677,1.677,0,0,1,1.129-1.7,3.628,3.628,0,0,1,.889-.058q22.954,0,45.907,0a2.9,2.9,0,0,1,1.117.15,1.571,1.571,0,0,1,.867,1.79,1.4,1.4,0,0,1-1.164,1.409,6.281,6.281,0,0,1-.973.04Q-950.328,4800.793-961.784,4800.792Z" transform="translate(986.644 -4761.97)" fill="#12263f"/>
          <path id="Trazado_197443" data-name="Trazado 197443" d="M-968.6,4830.835h-16.454a4.63,4.63,0,0,1-.648-.025c-.536-.077-.923-.685-.941-1.451a1.548,1.548,0,0,1,.819-1.54,2.2,2.2,0,0,1,.646-.051q16.66,0,33.322,0a1.716,1.716,0,0,1,.811.138,1.532,1.532,0,0,1,.629,1.617c-.064.744-.358,1.177-.845,1.272a3.633,3.633,0,0,1-.706.036Q-960.283,4830.836-968.6,4830.835Z" transform="translate(986.643 -4783.402)" fill="#12263f"/>
          <path id="Trazado_197444" data-name="Trazado 197444" d="M-977.107,4680.012c-.431,0-.866.035-1.294-.007a2.339,2.339,0,0,1-2.265-2.33,2.362,2.362,0,0,1,2.1-2.5,14.55,14.55,0,0,1,2.873-.034,2.4,2.4,0,0,1,2.341,2.435,2.378,2.378,0,0,1-2.455,2.449c-.429.03-.863,0-1.295,0Z" transform="translate(982.395 -4675.086)" fill="#12263f"/>
          <path id="Trazado_197445" data-name="Trazado 197445" d="M-899.206,4677.549a2.455,2.455,0,0,1-2.368,2.535,2.422,2.422,0,0,1-2.558-2.33,2.518,2.518,0,0,1,2.354-2.563A2.514,2.514,0,0,1-899.206,4677.549Z" transform="translate(927.975 -4675.159)" fill="#12263f"/>
          <path id="Trazado_197446" data-name="Trazado 197446" d="M-933.367,4677.692a2.384,2.384,0,0,1-2.482,2.419,2.473,2.473,0,0,1-2.437-2.351,2.573,2.573,0,0,1,2.442-2.532A2.485,2.485,0,0,1-933.367,4677.692Z" transform="translate(952.259 -4675.187)" fill="#12263f"/>
        </g>
      </g>
      <path id="Trazado_197448" data-name="Trazado 197448" d="M-784.979,4931.383h25.924l5.051-5.052-5.147-5.146h-26.02l4.718,4.718Z" transform="translate(890.84 -4817.182)" fill="none" stroke="#12263f" stroke-linejoin="round" stroke-width="1.5"/>
      <path id="Trazado_197449" data-name="Trazado 197449" d="M-886.574,4931.383h25.924l5.051-5.052-5.147-5.146h-26.02l4.718,4.718Z" transform="translate(963.079 -4817.182)" fill="none" stroke="#12263f" stroke-linejoin="round" stroke-width="1.5"/>
      <path id="Trazado_197450" data-name="Trazado 197450" d="M-988.169,4931.383h25.925l5.051-5.052-5.147-5.146h-26.02l4.718,4.718Z" transform="translate(1035.318 -4817.182)" fill="none" stroke="#12263f" stroke-linejoin="round" stroke-width="1.5"/>
      <path id="Trazado_197451" data-name="Trazado 197451" d="M-634.8,4913.921v12.594a31.109,31.109,0,0,0,21.078,0l-.274-12.594" transform="translate(783.922 -4812.018)" fill="none" stroke="#12263f" stroke-linejoin="round" stroke-width="2"/>
      <path id="Trazado_197452" data-name="Trazado 197452" d="M-706.488,4801.779l10.585-11.315,5.475,3.285,4.38-5.11,5.11.73,7.664-8.395" transform="translate(834.893 -4717.486)" fill="none" stroke="#12263f" stroke-linejoin="round" stroke-width="3"/>
      <ellipse id="Elipse_5993" data-name="Elipse 5993" cx="10.402" cy="3.832" rx="10.402" ry="3.832" transform="translate(149.118 98.072)" fill="none" stroke="#12263f" stroke-linejoin="round" stroke-width="2"/>
      <path id="Trazado_197527" data-name="Trazado 197527" d="M-784.979,4931.383h25.924l5.051-5.052-5.147-5.146h-26.02l4.718,4.718Z" transform="translate(1073.918 -4836.893)" fill="none" stroke="#12263f" stroke-linejoin="round" stroke-width="1.5"/>
      <path id="Trazado_197528" data-name="Trazado 197528" d="M-886.574,4931.383h25.924l5.051-5.052-5.147-5.146h-26.02l4.718,4.718Z" transform="translate(1189.285 -4850.065)" fill="none" stroke="#12263f" stroke-linejoin="round" stroke-width="1.5"/>
      <path id="Trazado_197529" data-name="Trazado 197529" d="M-988.169,4931.383h25.925l5.051-5.052-5.147-5.146h-26.02l4.718,4.718Z" transform="translate(1261.524 -4850.065)" fill="none" stroke="#12263f" stroke-linejoin="round" stroke-width="1.5"/>
      <g id="Rectángulo_376411" data-name="Rectángulo 376411" transform="translate(123.021 55.865)" fill="none" stroke="#12263f" stroke-width="2">
        <rect width="47" height="33" rx="4" stroke="none"/>
        <rect x="1" y="1" width="45" height="31" rx="3" fill="none"/>
      </g>
      <path id="Trazado_197436" data-name="Trazado 197436" d="M-10419.125-6917.625h36.843" transform="translate(10419.125 6991.973)" fill="none" stroke="#12263f" stroke-width="3"/>
      <path id="Trazado_197437" data-name="Trazado 197437" d="M0,0H41.1" transform="translate(110.667 171.596) rotate(-90)" fill="none" stroke="#12263f" stroke-width="3"/>
      <path id="Trazado_197439" data-name="Trazado 197439" d="M-10419.125-6917.625h69.958" transform="translate(10601.072 6991.973)" fill="none" stroke="#12263f" stroke-width="3"/>
      <path id="Trazado_197440" data-name="Trazado 197440" d="M-10419.125-6917.625h28.931" transform="translate(10823.83 6991.973)" fill="none" stroke="#12263f" stroke-width="3"/>
      <path id="Polígono_73" data-name="Polígono 73" d="M9.694,0l9.694,16.261H0Z" transform="translate(448.044 64.618) rotate(90)" fill="#12263f"/>
      <g id="Rectángulo_46384" data-name="Rectángulo 46384" transform="translate(66.835 169.565)" fill="none" stroke="#12263f" stroke-width="2.5">
        <rect width="87.664" height="67.064" rx="5" stroke="none"/>
        <rect x="1.25" y="1.25" width="85.164" height="64.564" rx="3.75" fill="none"/>
      </g>
      <g id="Grupo_1074588" data-name="Grupo 1074588" transform="translate(79.15 178.67)">
        <path id="Trazado_197441-2" data-name="Trazado 197441" d="M-10088.652-6500.5h64.543" transform="translate(10088.94 6500.5)" fill="none" stroke="#12263f" stroke-width="2"/>
        <path id="Trazado_197443-2" data-name="Trazado 197443" d="M-10088.652-6500.5h64.543" transform="translate(10088.94 6513.792)" fill="none" stroke="#12263f" stroke-width="2"/>
        <path id="Trazado_197445-2" data-name="Trazado 197445" d="M-10088.652-6500.5h64.543" transform="translate(10088.652 6525.928)" fill="none" stroke="#12263f" stroke-width="2"/>
        <path id="Trazado_197447" data-name="Trazado 197447" d="M-10088.652-6500.5h64.543" transform="translate(10088.652 6536.908)" fill="none" stroke="#12263f" stroke-width="2"/>
        <path id="Trazado_197449-2" data-name="Trazado 197449" d="M-10088.652-6500.5h64.543" transform="translate(10088.94 6507.146)" fill="none" stroke="#12263f" stroke-width="2"/>
        <path id="Trazado_197451-2" data-name="Trazado 197451" d="M-10088.652-6500.5h64.543" transform="translate(10088.94 6520.438)" fill="none" stroke="#12263f" stroke-width="2"/>
        <path id="Trazado_197453" data-name="Trazado 197453" d="M-10088.652-6500.5h64.543" transform="translate(10088.94 6531.418)" fill="none" stroke="#12263f" stroke-width="2"/>
      </g>
      <g id="Grupo_1074589" data-name="Grupo 1074589" transform="translate(105.15 219.358)">
        <g id="Elipse_5993-2" data-name="Elipse 5993" fill="none" stroke="#12263f" stroke-width="1">
          <circle cx="5.941" cy="5.941" r="5.941" stroke="none"/>
          <circle cx="5.941" cy="5.941" r="5.441" fill="none"/>
        </g>
        <g id="Elipse_5995" data-name="Elipse 5995" transform="translate(3.127 3.127)" fill="#12263f" stroke="#12263f" stroke-width="1">
          <circle cx="2.814" cy="2.814" r="2.814" stroke="none"/>
          <circle cx="2.814" cy="2.814" r="2.314" fill="none"/>
        </g>
      </g>
      <path id="Trazado_197455" data-name="Trazado 197455" d="M-708.49,4769.306c-1.748,0-3.5.006-5.243,0-1.3-.005-1.807-.517-1.811-1.82-.006-1.665-.008-13.847,0-15.51.006-1.166.492-1.727,1.64-1.735,3.662-.026,19.011-.025,22.672,0a1.438,1.438,0,0,1,1.611,1.6c.043,1.774.045,14.07,0,15.843-.03,1.133-.6,1.611-1.772,1.616C-693.2,4769.312-706.687,4769.306-708.49,4769.306Zm15.935-16.119h-20.079V4766.4h20.079Z" transform="translate(1004.456 -4706.281)" fill="#12263f" stroke="rgba(0,0,0,0)" stroke-width="4"/>
      <path id="Trazado_197456" data-name="Trazado 197456" d="M-706.488,4792.995l6.116-6.536,3.163,1.9,2.531-2.953,2.953.424,4.429-4.852" transform="translate(996.908 -4731.901)" fill="none" stroke="#12263f" stroke-linejoin="round" stroke-width="2"/>
      <path id="Trazado_197457" data-name="Trazado 197457" d="M-634.8,4913.921v12.594a31.109,31.109,0,0,0,21.078,0l-.274-12.594" transform="translate(1005.428 -4841.042)" fill="none" stroke="#12263f" stroke-linejoin="round" stroke-width="2"/>
      <ellipse id="Elipse_5997" data-name="Elipse 5997" cx="10.402" cy="3.832" rx="10.402" ry="3.832" transform="translate(370.624 69.047)" fill="none" stroke="#12263f" stroke-linejoin="round" stroke-width="2"/>
      <g id="Jh8W0t" transform="translate(251.906 25.204)">
        <g id="Grupo_155516" data-name="Grupo 155516">
          <path id="Trazado_197486" data-name="Trazado 197486" d="M-1387.324,4888.216c-1.639.473-3.179,1.063-4.759,1.348-7.539,1.354-15.212-3.065-17.8-11.82-2.4-8.121-.492-15.191,4.57-21.175a17.44,17.44,0,0,1,12.482-6.345c.2-.014.4-.046.6-.075.028-.005.052-.048.095-.089-.241-1.2-.572-2.4-.714-3.624a15.664,15.664,0,0,1,3.707-12.217,22.748,22.748,0,0,1,10.932-7.242,28.434,28.434,0,0,1,16.513-.359,41.577,41.577,0,0,1,5.993,2.434.921.921,0,0,0,1.316-.256,23.015,23.015,0,0,1,10.286-6.957,26.778,26.778,0,0,1,14.414-.724,30.592,30.592,0,0,1,13.422,6.764,1.544,1.544,0,0,0,1.333.287,37.631,37.631,0,0,1,13.216-2.509,17.767,17.767,0,0,1,10.875,3.431c3.6,2.772,5.3,6.76,5.451,11.728.014.465,0,.93,0,1.489,1.342-.211,2.583-.493,3.834-.586,5-.372,8.65,3.253,8.534,9.012-.029,1.477-.152,2.951-.229,4.384,1.594.339,3.238.55,4.814,1.052a16.09,16.09,0,0,1,11.1,11.133,17.652,17.652,0,0,1-.783,12.5,22.258,22.258,0,0,1-14.06,12.792,20.46,20.46,0,0,1-9.51.728c-.795-.115-1.079.173-1.317,1.091a16.611,16.611,0,0,1-10.35,11.935c-5.083,2.043-10.236,1.932-15.446.605a38.082,38.082,0,0,1-11.4-5.286,1.28,1.28,0,0,0-1.238.049,32.864,32.864,0,0,1-27.148,5.422,22.536,22.536,0,0,1-13.511-8.569c-.352-.467-.628-.533-1.118-.231a15.9,15.9,0,0,1-9.734,2.526c-6.037-.461-11.747-4.581-14.02-11.774C-1387.06,4888.792-1387.2,4888.518-1387.324,4888.216Zm16.816-61.668a25.62,25.62,0,0,0-13.024,3.969,18.865,18.865,0,0,0-7.374,8.186,13.529,13.529,0,0,0-.7,9.826c.572,1.87.236,2.463-1.4,2.657-.4.048-.8.137-1.2.205-7.236,1.238-12.288,5.768-14.859,13.792-2.333,7.281-.528,15.035,4.57,19.711,4.675,4.288,9.921,4.94,15.494,2.818,1.92-.73,2.2-.575,2.98,1.573,2.26,6.263,7.877,10.617,13.7,10.663a16.069,16.069,0,0,0,8.483-2.3,1.631,1.631,0,0,1,2.534.452,19.734,19.734,0,0,0,6.932,5.817,28.676,28.676,0,0,0,16.8,2.933,33.477,33.477,0,0,0,15.822-6.01,2.356,2.356,0,0,1,2.072.083c1.307.615,2.5,1.541,3.79,2.226,5.863,3.117,11.979,4.594,18.405,3.377,6.693-1.266,11.82-4.951,13.879-13.02.294-1.152,1.018-1.207,1.843-1.148a31.943,31.943,0,0,0,3.734.207c7.72-.35,14.059-3.841,18.37-11.536,3.665-6.54,2.876-15.2-2.758-20.355a17.7,17.7,0,0,0-10.077-4.452c-1.434-.184-1.688-.679-1.536-2.309a27.132,27.132,0,0,0,.111-4.706c-.267-3.244-2.477-5.954-5.23-6.293a17.776,17.776,0,0,0-4.811.17c-1.821.276-2.213.029-2.243-2.085,0-.315,0-.633-.023-.946a13.488,13.488,0,0,0-5.066-10.129,16.609,16.609,0,0,0-9.99-3.3,31.156,31.156,0,0,0-12.438,2.2,3.234,3.234,0,0,1-4-.889,6.727,6.727,0,0,0-1.168-.932,28.113,28.113,0,0,0-12.671-5.244c-8.29-1.108-15.837.791-22.128,7.609a1.827,1.827,0,0,1-2.486.449A29.029,29.029,0,0,0-1370.509,4826.548Z" transform="translate(1410.911 -4820.458)" fill="#12263f" stroke="#12263f" stroke-width="2"/>
        </g>
      </g>
      <text id="Before" transform="translate(92.667 16)" fill="#12263f" font-size="13" font-family="SegoeUI-Bold, Segoe UI" font-weight="700"><tspan x="0" y="0">Before</tspan></text>
      <text id="After" transform="translate(321.704 16)" fill="#12263f" font-size="13" font-family="SegoeUI-Bold, Segoe UI" font-weight="700"><tspan x="0" y="0">After</tspan></text>
      <text id="SaaS" transform="translate(333.686 62.073)" fill="#12263f" font-size="13" font-family="SegoeUI-Bold, Segoe UI" font-weight="700"><tspan x="0" y="0">SaaS</tspan></text>
      <text id="Repurchase" transform="translate(187.906 57.093)" fill="#12263f" font-size="13" font-family="SegoeUI-Bold, Segoe UI" font-weight="700"><tspan x="0" y="0">Repurchase</tspan></text>
      <path id="Trazado_197530" data-name="Trazado 197530" d="M-972.021,4763.155h-13.335a4.281,4.281,0,0,1-.525-.018.984.984,0,0,1-.763-1.028,1.078,1.078,0,0,1,.664-1.092,1.993,1.993,0,0,1,.523-.037c9,0,11.247-.118,20.248-.115a1.572,1.572,0,0,1,.657.1,1.034,1.034,0,0,1,.51,1.147c-.052.527-.29.833-.685.9a3.2,3.2,0,0,1-.572.027C-969.791,4763.038-967.528,4763.155-972.021,4763.155Z" transform="translate(1324.042 -4675.424)" fill="#12263f"/>
      <path id="Trazado_197531" data-name="Trazado 197531" d="M-975.689,4798.967h-9.99a3.3,3.3,0,0,1-.393-.014.715.715,0,0,1-.572-.742.775.775,0,0,1,.5-.787,1.461,1.461,0,0,1,.392-.027q10.115,0,20.231,0a1.2,1.2,0,0,1,.492.07.738.738,0,0,1,.382.828c-.039.38-.218.6-.513.65a2.734,2.734,0,0,1-.429.02Z" transform="translate(1324.042 -4707.216)" fill="#12263f"/>
      <path id="Trazado_197532" data-name="Trazado 197532" d="M-978.691,4829.337q-3.626,0-7.251,0a1.743,1.743,0,0,1-.286-.012c-.236-.04-.407-.352-.415-.742a.826.826,0,0,1,.361-.789.873.873,0,0,1,.285-.025q7.342,0,14.684,0a.674.674,0,0,1,.357.07.845.845,0,0,1,.277.828c-.028.381-.158.6-.372.651a1.332,1.332,0,0,1-.311.018Q-975.027,4829.338-978.691,4829.337Z" transform="translate(1324.042 -4733.717)" fill="#12263f"/>
      <g id="Rectángulo_376418" data-name="Rectángulo 376418" transform="translate(37.021 22.849)" fill="none" stroke="#12263f" stroke-width="3">
        <rect width="147" height="110" rx="11" stroke="none"/>
        <rect x="1.5" y="1.5" width="144" height="107" rx="9.5" fill="none"/>
      </g>
      <path id="Trazado_821950" data-name="Trazado 821950" d="M4061.071-8379.466h144.3" transform="translate(-4022.494 8424.849)" fill="none" stroke="#12263f" stroke-width="3"/>
    </g>
  </g>
</svg>
