<svg xmlns="http://www.w3.org/2000/svg" xmlns:xlink="http://www.w3.org/1999/xlink" width="589" height="192.502" viewBox="0 0 589 192.502">
  <defs>
    <clipPath id="clip-path">
      <path id="path3363" d="M0-682.665H72.607v72.607H0Z" transform="translate(0 682.665)"/>
    </clipPath>
  </defs>
  <g id="Grupo_1076278" data-name="Grupo 1076278" transform="translate(-5886 8380.498)">
    <g id="Grupo_1074655" data-name="Grupo 1074655" transform="translate(5516 -12513.498)">
      <rect id="Rectángulo_376423" data-name="Rectángulo 376423" width="589" height="192.502" transform="translate(370 4133)" fill="#e4e9eb" opacity="0.997"/>
      <g id="Grupo_1074654" data-name="Grupo 1074654" transform="translate(0 -14)">
        <path id="Trazado_197432" data-name="Trazado 197432" d="M-7871.43-7087.849h149.1" transform="translate(8376.656 11377.448)" fill="none" stroke="#12263f" stroke-width="3"/>
        <g id="Grupo_1074653" data-name="Grupo 1074653" transform="translate(6.187 -1.223)">
          <g id="YkxbbZ" transform="translate(380.023 4191.153)">
            <g id="Grupo_155502" data-name="Grupo 155502" transform="translate(0)">
              <path id="Trazado_197428" data-name="Trazado 197428" d="M-847.333,2171.086a3.975,3.975,0,0,1-3.939,4.024,4.06,4.06,0,0,1-4.028-3.97,4,4,0,0,1,3.976-4A3.926,3.926,0,0,1-847.333,2171.086Z" transform="translate(955.102 -2121.946)" fill="#12263f"/>
              <path id="Trazado_197429" data-name="Trazado 197429" d="M-847.321,2548.353a3.97,3.97,0,0,1-3.952,4.01,4.056,4.056,0,0,1-4.013-3.983,3.971,3.971,0,0,1,3.984-3.977A3.9,3.9,0,0,1-847.321,2548.353Z" transform="translate(955.091 -2436.666)" fill="#12263f"/>
              <path id="Trazado_197430" data-name="Trazado 197430" d="M-851.283,2363.535a3.987,3.987,0,0,1-4.015-3.948,4.052,4.052,0,0,1,3.986-4.01,3.969,3.969,0,0,1,3.983,3.976A3.917,3.917,0,0,1-851.283,2363.535Z" transform="translate(955.099 -2279.105)" fill="#12263f"/>
            </g>
          </g>
          <text id="hosting" transform="translate(822.022 4262.559)" fill="#12263f" font-size="30" font-family="SegoeUI-Bold, Segoe UI" font-weight="700"><tspan x="-53.262" y="0">hosting</tspan></text>
          <text id="R" transform="translate(904.366 4271.054)" fill="#12263f" font-size="60" font-family="SegoeUI-Bold, Segoe UI" font-weight="700"><tspan x="-19.585" y="0">R</tspan></text>
          <path id="Trazado_197431" data-name="Trazado 197431" d="M-7871.43-7107.587H-7765.3v-17.265" transform="translate(8376.656 11367.073)" fill="none" stroke="#12263f" stroke-width="3"/>
          <g id="base-de-datos_15_" data-name="base-de-datos (15)" transform="translate(352.853 4196.476)">
            <g id="Grupo_1074602" data-name="Grupo 1074602" transform="translate(40.96)">
              <path id="Trazado_821962" data-name="Trazado 821962" d="M93.888,0C67.585,0,40.96,6.059,40.96,17.643v90.733c0,11.584,26.625,17.643,52.928,17.643s52.928-6.059,52.928-17.643V17.643C146.815,6.059,120.19,0,93.888,0Zm47.887,108.376c0,5.262-18.217,12.6-47.887,12.6S46,113.638,46,108.376V86.121c.151.106.363.2.519.307a28.337,28.337,0,0,0,2.823,1.648c.287.141.555.292.852.433a43.815,43.815,0,0,0,4.264,1.759c.081.03.166.055.247.086,10.177,3.574,24.715,5.419,39.182,5.419s29-1.845,39.182-5.419c.081-.03.166-.055.247-.086a43.818,43.818,0,0,0,4.264-1.759c.3-.141.565-.292.852-.433a28.334,28.334,0,0,0,2.823-1.648c.156-.111.368-.2.519-.307v22.255Zm0-30.244c0,5.262-18.217,12.6-47.887,12.6S46,83.394,46,78.131V55.877c.151.106.363.2.519.307a28.336,28.336,0,0,0,2.823,1.648c.287.141.555.292.852.433a43.818,43.818,0,0,0,4.264,1.759c.081.03.166.055.247.086,10.177,3.574,24.715,5.419,39.182,5.419s29-1.845,39.182-5.419c.081-.03.166-.055.247-.086a43.818,43.818,0,0,0,4.264-1.759c.3-.141.565-.292.852-.433a28.334,28.334,0,0,0,2.823-1.648c.156-.111.368-.2.519-.307V78.131Zm0-30.244c0,5.262-18.217,12.6-47.887,12.6S46,53.149,46,47.887V25.632c.151.106.363.2.519.307a28.336,28.336,0,0,0,2.823,1.648c.287.141.555.292.852.433a43.818,43.818,0,0,0,4.264,1.759c.081.03.166.055.247.086,10.177,3.574,24.715,5.419,39.182,5.419s29-1.845,39.182-5.419c.081-.03.166-.055.247-.086a43.815,43.815,0,0,0,4.264-1.759c.3-.141.565-.292.852-.433a28.336,28.336,0,0,0,2.823-1.648c.156-.111.368-.2.519-.307V47.887ZM93.888,30.244C64.218,30.244,46,22.905,46,17.643s18.217-12.6,47.887-12.6,47.887,7.339,47.887,12.6S123.557,30.244,93.888,30.244Z" transform="translate(-40.96)" fill="#12263f"/>
            </g>
          </g>
          <g id="Page-1" transform="translate(660 4215.167)">
            <g id="_016---PC-and-Monitor" data-name="016---PC-and-Monitor">
              <path id="Shape" d="M5.525,27.135a1.522,1.522,0,0,0,1.081-.441l6.089-6.089a1.528,1.528,0,1,0-2.162-2.162L4.444,24.532a1.522,1.522,0,0,0,1.081,2.6Z" transform="translate(2.086 9.397)" fill="#12263f"/>
              <path id="Shape-2" data-name="Shape" d="M5.525,36.268a1.522,1.522,0,0,0,1.081-.441L21.828,20.605a1.528,1.528,0,0,0-2.162-2.162L4.444,33.665a1.522,1.522,0,0,0,1.081,2.6Z" transform="translate(2.086 9.397)" fill="#12263f"/>
              <path id="Shape-3" data-name="Shape" d="M86.765,0H47.188a4.567,4.567,0,0,0-4.567,4.567V21.311H7.611A7.611,7.611,0,0,0,0,28.922V68.5A7.611,7.611,0,0,0,7.611,76.11H24.355V82.2H19.788a4.567,4.567,0,0,0,0,9.133H86.765a4.567,4.567,0,0,0,4.567-4.567V4.567A4.567,4.567,0,0,0,86.765,0ZM7.611,24.355h54.8a4.567,4.567,0,0,1,4.567,4.567V65.454H3.044V28.922A4.567,4.567,0,0,1,7.611,24.355ZM3.044,68.5H66.976a4.567,4.567,0,0,1-4.567,4.567H7.611A4.567,4.567,0,0,1,3.044,68.5ZM27.4,76.11H42.621V82.2H27.4ZM47.188,88.287h-27.4a1.522,1.522,0,1,1,0-3.044H50.232a1.522,1.522,0,1,1,0,3.044Zm41.1-1.522a1.522,1.522,0,0,1-1.522,1.522H54.525A4.567,4.567,0,0,0,50.232,82.2H45.666V76.11H62.41A7.611,7.611,0,0,0,70.021,68.5V28.922a7.611,7.611,0,0,0-7.611-7.611H45.666V4.567a1.522,1.522,0,0,1,1.522-1.522H86.765a1.522,1.522,0,0,1,1.522,1.522Z" fill="#12263f"/>
              <path id="Shape-4" data-name="Shape" d="M65.488,5H35.044A3.044,3.044,0,0,0,32,8.044v3.044a3.044,3.044,0,0,0,3.044,3.044H65.488a3.044,3.044,0,0,0,3.044-3.044V8.044A3.044,3.044,0,0,0,65.488,5ZM35.044,11.089V8.044H65.488v3.044Z" transform="translate(16.71 2.611)" fill="#12263f"/>
              <path id="Shape-5" data-name="Shape" d="M53.567,23.133A4.567,4.567,0,1,0,49,18.567,4.567,4.567,0,0,0,53.567,23.133Zm0-6.089a1.522,1.522,0,1,1-1.522,1.522A1.522,1.522,0,0,1,53.567,17.044Z" transform="translate(25.587 7.311)" fill="#12263f"/>
              <path id="Shape-6" data-name="Shape" d="M58.133,26.567a4.567,4.567,0,1,0-4.567,4.567A4.567,4.567,0,0,0,58.133,26.567Zm-4.567,1.522a1.522,1.522,0,1,1,1.522-1.522A1.522,1.522,0,0,1,53.567,28.089Z" transform="translate(25.587 11.488)" fill="#12263f"/>
              <path id="Shape-7" data-name="Shape" d="M39.522,52A1.522,1.522,0,0,0,38,53.522v3.044a1.522,1.522,0,1,0,3.044,0V53.522A1.522,1.522,0,0,0,39.522,52Z" transform="translate(19.843 27.154)" fill="#12263f"/>
              <path id="Shape-8" data-name="Shape" d="M43.522,52A1.522,1.522,0,0,0,42,53.522v3.044a1.522,1.522,0,1,0,3.044,0V53.522A1.522,1.522,0,0,0,43.522,52Z" transform="translate(21.932 27.154)" fill="#12263f"/>
              <path id="Shape-9" data-name="Shape" d="M47.522,52A1.522,1.522,0,0,0,46,53.522v3.044a1.522,1.522,0,1,0,3.044,0V53.522A1.522,1.522,0,0,0,47.522,52Z" transform="translate(24.021 27.154)" fill="#12263f"/>
              <path id="Shape-10" data-name="Shape" d="M51.522,52A1.522,1.522,0,0,0,50,53.522v3.044a1.522,1.522,0,1,0,3.044,0V53.522A1.522,1.522,0,0,0,51.522,52Z" transform="translate(26.11 27.154)" fill="#12263f"/>
              <path id="Shape-11" data-name="Shape" d="M55.522,52A1.522,1.522,0,0,0,54,53.522v3.044a1.522,1.522,0,1,0,3.044,0V53.522A1.522,1.522,0,0,0,55.522,52Z" transform="translate(28.198 27.154)" fill="#12263f"/>
            </g>
          </g>
          <g id="g3357" transform="translate(575.049 4848.888)">
            <g id="g3359" transform="translate(0 -682.665)">
              <g id="g3361" clip-path="url(#clip-path)">
                <g id="g3367" transform="translate(1.064 61.12)">
                  <path id="path3369" d="M-448.446-59.576h-49.685a3.687,3.687,0,0,1-3.687-3.687V-66.1a.567.567,0,0,1,.567-.567h69.345a.567.567,0,0,1,.567.567v2.836a3.687,3.687,0,0,1-3.687,3.687h-8.83" transform="translate(501.819 66.667)" fill="none" stroke="#12263f" stroke-linecap="round" stroke-linejoin="round" stroke-miterlimit="10" stroke-width="2"/>
                </g>
                <g id="g3371" transform="translate(5.814 18.577)">
                  <path id="path3373" d="M-512.344-91.145v28.858a2.836,2.836,0,0,1-2.836,2.836h-55.3a2.835,2.835,0,0,1-2.836-2.836V-99.155a2.836,2.836,0,0,1,2.836-2.836h30.47" transform="translate(573.321 101.993)" fill="none" stroke="#12263f" stroke-linecap="round" stroke-linejoin="round" stroke-miterlimit="10" stroke-width="2"/>
                </g>
                <g id="g3375" transform="translate(58.255 18.577)">
                  <path id="path3377" d="M0,0H5.7A2.835,2.835,0,0,1,8.536,2.836v3.5" fill="none" stroke="#12263f" stroke-linecap="round" stroke-linejoin="round" stroke-miterlimit="10" stroke-width="2"/>
                </g>
                <g id="g3379" transform="translate(44.662 18.577)">
                  <path id="path3381" d="M-67.49,0h-8.032" transform="translate(75.522)" fill="none" stroke="#12263f" stroke-linecap="round" stroke-linejoin="round" stroke-miterlimit="10" stroke-width="2"/>
                </g>
                <g id="g3383" transform="translate(10.069 22.832)">
                  <path id="path3385" d="M-.008-188.738V-211.2H28.479" transform="translate(0.009 211.201)" fill="none" stroke="#12263f" stroke-linecap="round" stroke-linejoin="round" stroke-miterlimit="10" stroke-width="2"/>
                </g>
                <g id="g3387" transform="translate(10.07 22.831)">
                  <path id="path3389" d="M-413.675,0h3.233V34.033h-52.469V27.054" transform="translate(462.91)" fill="none" stroke="#12263f" stroke-linecap="round" stroke-linejoin="round" stroke-miterlimit="10" stroke-width="2"/>
                </g>
                <g id="g3391" transform="translate(29.78 61.12)">
                  <path id="path3393" d="M-95.322-28.6h-9.643a1.7,1.7,0,0,1-1.7-1.7V-32H-93.62v1.7A1.7,1.7,0,0,1-95.322-28.6Z" transform="translate(106.666 32)" fill="none" stroke="#12263f" stroke-linecap="round" stroke-linejoin="round" stroke-miterlimit="10" stroke-width="2"/>
                </g>
                <g id="g3395" transform="translate(37.618 4.396)">
                  <path id="path3397" d="M-132.764-100.617a4.734,4.734,0,0,0-4.74-4.728,4.734,4.734,0,0,0-4.74,4.728,4.734,4.734,0,0,0,4.74,4.728A4.734,4.734,0,0,0-132.764-100.617Zm-2.007,8.927c-.079.56-.268,1.362-.436,2.013a1.378,1.378,0,0,1-1.334,1.034h-1.925a1.378,1.378,0,0,1-1.334-1.034c-.169-.652-.357-1.454-.436-2.013a1.369,1.369,0,0,0-.675-.993l-1.779-1.024a1.37,1.37,0,0,0-1.2-.087c-.527.212-1.32.451-1.972.632a1.378,1.378,0,0,1-1.561-.636l-.961-1.661a1.374,1.374,0,0,1,.229-1.671c.482-.472,1.085-1.037,1.532-1.385a1.366,1.366,0,0,0,.523-1.079v-2.046a1.366,1.366,0,0,0-.523-1.079c-.447-.348-1.05-.913-1.532-1.385a1.374,1.374,0,0,1-.229-1.671l.961-1.661a1.378,1.378,0,0,1,1.561-.636c.651.181,1.445.419,1.972.632a1.371,1.371,0,0,0,1.2-.087l1.779-1.024a1.368,1.368,0,0,0,.675-.993c.079-.56.267-1.362.436-2.013a1.378,1.378,0,0,1,1.334-1.034h1.925a1.378,1.378,0,0,1,1.334,1.034c.168.651.357,1.454.436,2.013a1.368,1.368,0,0,0,.675.993l1.779,1.024a1.37,1.37,0,0,0,1.2.087c.527-.212,1.321-.451,1.972-.632a1.378,1.378,0,0,1,1.561.636l.961,1.661a1.374,1.374,0,0,1-.229,1.671c-.482.472-1.085,1.037-1.532,1.385a1.366,1.366,0,0,0-.524,1.079v2.046a1.366,1.366,0,0,0,.524,1.079c.447.348,1.05.913,1.532,1.385a1.374,1.374,0,0,1,.229,1.671l-.961,1.661a1.378,1.378,0,0,1-1.561.636c-.651-.181-1.445-.42-1.972-.632a1.37,1.37,0,0,0-1.2.087l-1.779,1.024a1.368,1.368,0,0,0-.675.993Z" transform="translate(148.565 112.592)" fill="none" stroke="#12263f" stroke-linecap="round" stroke-linejoin="round" stroke-miterlimit="10" stroke-width="2"/>
                </g>
                <g id="g3399" transform="translate(20.939 22.832)">
                  <path id="path3401" d="M-132.764-100.617a4.734,4.734,0,0,0-4.74-4.728,4.734,4.734,0,0,0-4.74,4.728,4.734,4.734,0,0,0,4.74,4.728A4.734,4.734,0,0,0-132.764-100.617Zm-2.007,8.927c-.079.56-.268,1.362-.436,2.013a1.378,1.378,0,0,1-1.334,1.034h-1.925a1.378,1.378,0,0,1-1.334-1.034c-.169-.652-.357-1.454-.436-2.013a1.369,1.369,0,0,0-.675-.993l-1.779-1.024a1.37,1.37,0,0,0-1.2-.087c-.527.212-1.32.451-1.972.632a1.378,1.378,0,0,1-1.561-.636l-.961-1.661a1.374,1.374,0,0,1,.229-1.671c.482-.472,1.085-1.037,1.532-1.385a1.366,1.366,0,0,0,.523-1.079v-2.046a1.366,1.366,0,0,0-.523-1.079c-.447-.348-1.05-.913-1.532-1.385a1.374,1.374,0,0,1-.229-1.671l.961-1.661a1.378,1.378,0,0,1,1.561-.636c.651.181,1.445.42,1.972.632a1.371,1.371,0,0,0,1.2-.087l1.779-1.024a1.368,1.368,0,0,0,.675-.993c.079-.56.267-1.362.436-2.013a1.378,1.378,0,0,1,1.334-1.034h1.925a1.378,1.378,0,0,1,1.334,1.034c.168.652.357,1.454.436,2.013a1.368,1.368,0,0,0,.675.993l1.779,1.024a1.37,1.37,0,0,0,1.2.087c.527-.212,1.321-.451,1.972-.632a1.378,1.378,0,0,1,1.561.636l.961,1.661a1.374,1.374,0,0,1-.229,1.671c-.482.472-1.085,1.037-1.532,1.385a1.366,1.366,0,0,0-.523,1.079v2.046a1.367,1.367,0,0,0,.523,1.079c.447.348,1.05.913,1.532,1.385a1.374,1.374,0,0,1,.229,1.671l-.961,1.661a1.378,1.378,0,0,1-1.561.636c-.651-.181-1.445-.42-1.972-.632a1.37,1.37,0,0,0-1.2.087l-1.779,1.024a1.368,1.368,0,0,0-.675.993Z" transform="translate(148.565 112.592)" fill="none" stroke="#12263f" stroke-linecap="round" stroke-linejoin="round" stroke-miterlimit="10" stroke-width="2"/>
                </g>
              </g>
            </g>
          </g>
        </g>
      </g>
    </g>
  </g>
</svg>
