<svg xmlns="http://www.w3.org/2000/svg" xmlns:xlink="http://www.w3.org/1999/xlink" width="589" height="192.502" viewBox="0 0 589 192.502">
  <defs>
    <clipPath id="clip-path">
      <path id="path3363" d="M0-682.665H72.607v72.607H0Z" transform="translate(0 682.665)"/>
    </clipPath>
  </defs>
  <g id="Grupo_1076382" data-name="Grupo 1076382" transform="translate(-5886 8380.498)">
    <rect id="Rectángulo_376423" data-name="Rectángulo 376423" width="589" height="192.502" transform="translate(5886 -8380.498)" fill="#e4e9eb" opacity="0.997"/>
    <g id="Grupo_1074654" data-name="Grupo 1074654" transform="translate(5516 -12527.498)">
      <path id="Trazado_197432" data-name="Trazado 197432" d="M-7722.325-7086.349h-149.1v-3h149.1Z" transform="translate(8376.656 11377.448)" fill="#12263f"/>
      <g id="Grupo_1074653" data-name="Grupo 1074653" transform="translate(6.187 -1.223)">
        <g id="YkxbbZ" transform="translate(380.023 4191.153)">
          <g id="Grupo_155502" data-name="Grupo 155502" transform="translate(0)">
            <path id="Trazado_197428" data-name="Trazado 197428" d="M-847.333,2171.086a3.975,3.975,0,0,1-3.939,4.024,4.06,4.06,0,0,1-4.028-3.97,4,4,0,0,1,3.976-4A3.926,3.926,0,0,1-847.333,2171.086Z" transform="translate(955.102 -2121.946)" fill="#12263f"/>
            <path id="Trazado_197429" data-name="Trazado 197429" d="M-847.321,2548.353a3.97,3.97,0,0,1-3.952,4.01,4.056,4.056,0,0,1-4.013-3.983,3.971,3.971,0,0,1,3.984-3.977A3.9,3.9,0,0,1-847.321,2548.353Z" transform="translate(955.091 -2436.666)" fill="#12263f"/>
            <path id="Trazado_197430" data-name="Trazado 197430" d="M-851.283,2363.535a3.987,3.987,0,0,1-4.015-3.948,4.052,4.052,0,0,1,3.986-4.01,3.969,3.969,0,0,1,3.983,3.976A3.917,3.917,0,0,1-851.283,2363.535Z" transform="translate(955.099 -2279.105)" fill="#12263f"/>
          </g>
        </g>
        <text id="hosting" transform="translate(822.022 4262.559)" fill="#12263f" font-size="30" font-family="SegoeUI-BoldItalic, Segoe UI" font-weight="700" font-style="italic"><tspan x="-52.434" y="0">hosting</tspan></text>
        <text id="R" transform="translate(904.366 4271.054)" fill="#12263f" font-size="60" font-family="SegoeUI-Bold, Segoe UI" font-weight="700"><tspan x="-19.585" y="0">R</tspan></text>
        <path id="Trazado_197431" data-name="Trazado 197431" d="M-7763.8-7106.087H-7871.43v-3H-7766.8v-15.765h3Z" transform="translate(8376.656 11367.073)" fill="#12263f"/>
        <g id="base-de-datos_15_" data-name="base-de-datos (15)" transform="translate(352.853 4196.476)">
          <g id="Grupo_1074602" data-name="Grupo 1074602" transform="translate(40.96)">
            <path id="Trazado_821962" data-name="Trazado 821962" d="M93.888,0C67.585,0,40.96,6.059,40.96,17.643v90.733c0,11.584,26.625,17.643,52.928,17.643s52.928-6.059,52.928-17.643V17.643C146.815,6.059,120.19,0,93.888,0Zm47.887,108.376c0,5.262-18.217,12.6-47.887,12.6S46,113.638,46,108.376V86.121c.151.106.363.2.519.307a28.337,28.337,0,0,0,2.823,1.648c.287.141.555.292.852.433a43.815,43.815,0,0,0,4.264,1.759c.081.03.166.055.247.086,10.177,3.574,24.715,5.419,39.182,5.419s29-1.845,39.182-5.419c.081-.03.166-.055.247-.086a43.818,43.818,0,0,0,4.264-1.759c.3-.141.565-.292.852-.433a28.334,28.334,0,0,0,2.823-1.648c.156-.111.368-.2.519-.307v22.255Zm0-30.244c0,5.262-18.217,12.6-47.887,12.6S46,83.394,46,78.131V55.877c.151.106.363.2.519.307a28.336,28.336,0,0,0,2.823,1.648c.287.141.555.292.852.433a43.818,43.818,0,0,0,4.264,1.759c.081.03.166.055.247.086,10.177,3.574,24.715,5.419,39.182,5.419s29-1.845,39.182-5.419c.081-.03.166-.055.247-.086a43.818,43.818,0,0,0,4.264-1.759c.3-.141.565-.292.852-.433a28.334,28.334,0,0,0,2.823-1.648c.156-.111.368-.2.519-.307V78.131Zm0-30.244c0,5.262-18.217,12.6-47.887,12.6S46,53.149,46,47.887V25.632c.151.106.363.2.519.307a28.336,28.336,0,0,0,2.823,1.648c.287.141.555.292.852.433a43.818,43.818,0,0,0,4.264,1.759c.081.03.166.055.247.086,10.177,3.574,24.715,5.419,39.182,5.419s29-1.845,39.182-5.419c.081-.03.166-.055.247-.086a43.815,43.815,0,0,0,4.264-1.759c.3-.141.565-.292.852-.433a28.336,28.336,0,0,0,2.823-1.648c.156-.111.368-.2.519-.307V47.887ZM93.888,30.244C64.218,30.244,46,22.905,46,17.643s18.217-12.6,47.887-12.6,47.887,7.339,47.887,12.6S123.557,30.244,93.888,30.244Z" transform="translate(-40.96)" fill="#12263f"/>
          </g>
        </g>
        <g id="Page-1" transform="translate(660 4215.167)">
          <g id="_016---PC-and-Monitor" data-name="016---PC-and-Monitor">
            <path id="Shape" d="M5.525,27.135a1.522,1.522,0,0,0,1.081-.441l6.089-6.089a1.528,1.528,0,1,0-2.162-2.162L4.444,24.532a1.522,1.522,0,0,0,1.081,2.6Z" transform="translate(2.086 9.397)" fill="#12263f"/>
            <path id="Shape-2" data-name="Shape" d="M5.525,36.268a1.522,1.522,0,0,0,1.081-.441L21.828,20.605a1.528,1.528,0,0,0-2.162-2.162L4.444,33.665a1.522,1.522,0,0,0,1.081,2.6Z" transform="translate(2.086 9.397)" fill="#12263f"/>
            <path id="Shape-3" data-name="Shape" d="M86.765,0H47.188a4.567,4.567,0,0,0-4.567,4.567V21.311H7.611A7.611,7.611,0,0,0,0,28.922V68.5A7.611,7.611,0,0,0,7.611,76.11H24.355V82.2H19.788a4.567,4.567,0,0,0,0,9.133H86.765a4.567,4.567,0,0,0,4.567-4.567V4.567A4.567,4.567,0,0,0,86.765,0ZM7.611,24.355h54.8a4.567,4.567,0,0,1,4.567,4.567V65.454H3.044V28.922A4.567,4.567,0,0,1,7.611,24.355ZM3.044,68.5H66.976a4.567,4.567,0,0,1-4.567,4.567H7.611A4.567,4.567,0,0,1,3.044,68.5ZM27.4,76.11H42.621V82.2H27.4ZM47.188,88.287h-27.4a1.522,1.522,0,1,1,0-3.044H50.232a1.522,1.522,0,1,1,0,3.044Zm41.1-1.522a1.522,1.522,0,0,1-1.522,1.522H54.525A4.567,4.567,0,0,0,50.232,82.2H45.666V76.11H62.41A7.611,7.611,0,0,0,70.021,68.5V28.922a7.611,7.611,0,0,0-7.611-7.611H45.666V4.567a1.522,1.522,0,0,1,1.522-1.522H86.765a1.522,1.522,0,0,1,1.522,1.522Z" fill="#12263f"/>
            <path id="Shape-4" data-name="Shape" d="M65.488,5H35.044A3.044,3.044,0,0,0,32,8.044v3.044a3.044,3.044,0,0,0,3.044,3.044H65.488a3.044,3.044,0,0,0,3.044-3.044V8.044A3.044,3.044,0,0,0,65.488,5ZM35.044,11.089V8.044H65.488v3.044Z" transform="translate(16.71 2.611)" fill="#12263f"/>
            <path id="Shape-5" data-name="Shape" d="M53.567,23.133A4.567,4.567,0,1,0,49,18.567,4.567,4.567,0,0,0,53.567,23.133Zm0-6.089a1.522,1.522,0,1,1-1.522,1.522A1.522,1.522,0,0,1,53.567,17.044Z" transform="translate(25.587 7.311)" fill="#12263f"/>
            <path id="Shape-6" data-name="Shape" d="M58.133,26.567a4.567,4.567,0,1,0-4.567,4.567A4.567,4.567,0,0,0,58.133,26.567Zm-4.567,1.522a1.522,1.522,0,1,1,1.522-1.522A1.522,1.522,0,0,1,53.567,28.089Z" transform="translate(25.587 11.488)" fill="#12263f"/>
            <path id="Shape-7" data-name="Shape" d="M39.522,52A1.522,1.522,0,0,0,38,53.522v3.044a1.522,1.522,0,1,0,3.044,0V53.522A1.522,1.522,0,0,0,39.522,52Z" transform="translate(19.843 27.154)" fill="#12263f"/>
            <path id="Shape-8" data-name="Shape" d="M43.522,52A1.522,1.522,0,0,0,42,53.522v3.044a1.522,1.522,0,1,0,3.044,0V53.522A1.522,1.522,0,0,0,43.522,52Z" transform="translate(21.932 27.154)" fill="#12263f"/>
            <path id="Shape-9" data-name="Shape" d="M47.522,52A1.522,1.522,0,0,0,46,53.522v3.044a1.522,1.522,0,1,0,3.044,0V53.522A1.522,1.522,0,0,0,47.522,52Z" transform="translate(24.021 27.154)" fill="#12263f"/>
            <path id="Shape-10" data-name="Shape" d="M51.522,52A1.522,1.522,0,0,0,50,53.522v3.044a1.522,1.522,0,1,0,3.044,0V53.522A1.522,1.522,0,0,0,51.522,52Z" transform="translate(26.11 27.154)" fill="#12263f"/>
            <path id="Shape-11" data-name="Shape" d="M55.522,52A1.522,1.522,0,0,0,54,53.522v3.044a1.522,1.522,0,1,0,3.044,0V53.522A1.522,1.522,0,0,0,55.522,52Z" transform="translate(28.198 27.154)" fill="#12263f"/>
          </g>
        </g>
        <g id="g3357" transform="translate(575.049 4848.888)">
          <g id="g3359" transform="translate(0 -682.665)">
            <g id="g3361" clip-path="url(#clip-path)">
              <g id="g3367" transform="translate(1.064 61.12)">
                <path id="path3369" d="M-435.026-58.576h-8.83a1,1,0,0,1-1-1,1,1,0,0,1,1-1h8.83a2.69,2.69,0,0,0,2.687-2.687v-2.4h-68.48v2.4a2.69,2.69,0,0,0,2.687,2.687h49.685a1,1,0,0,1,1,1,1,1,0,0,1-1,1h-49.685a4.692,4.692,0,0,1-4.687-4.687V-66.1a1.569,1.569,0,0,1,1.567-1.567h69.345a1.569,1.569,0,0,1,1.567,1.567v2.836A4.692,4.692,0,0,1-435.026-58.576Z" transform="translate(501.819 66.667)" fill="#12263f"/>
              </g>
              <g id="g3371" transform="translate(5.814 18.577)">
                <path id="path3373" d="M-570.484-58.45a3.841,3.841,0,0,1-3.836-3.836V-99.155a3.841,3.841,0,0,1,3.836-3.836h30.47a1,1,0,0,1,1,1,1,1,0,0,1-1,1h-30.47a1.838,1.838,0,0,0-1.836,1.836v36.869a1.838,1.838,0,0,0,1.836,1.836h55.3a1.838,1.838,0,0,0,1.836-1.836V-91.145a1,1,0,0,1,1-1,1,1,0,0,1,1,1v28.858a3.841,3.841,0,0,1-3.836,3.836Z" transform="translate(573.321 101.993)" fill="#12263f"/>
              </g>
              <g id="g3375" transform="translate(58.255 18.577)">
                <path id="path3377" d="M8.536,7.336a1,1,0,0,1-1-1v-3.5A1.838,1.838,0,0,0,5.7,1H0A1,1,0,0,1-1,0,1,1,0,0,1,0-1H5.7A3.841,3.841,0,0,1,9.536,2.836v3.5A1,1,0,0,1,8.536,7.336Z" fill="#12263f"/>
              </g>
              <g id="g3379" transform="translate(44.662 18.577)">
                <path id="path3381" d="M-67.49,1h-8.032a1,1,0,0,1-1-1,1,1,0,0,1,1-1h8.032a1,1,0,0,1,1,1A1,1,0,0,1-67.49,1Z" transform="translate(75.522)" fill="#12263f"/>
              </g>
              <g id="g3383" transform="translate(10.069 22.832)">
                <path id="path3385" d="M-.008-187.738a1,1,0,0,1-1-1V-211.2a1,1,0,0,1,1-1H28.479a1,1,0,0,1,1,1,1,1,0,0,1-1,1H.991v21.462A1,1,0,0,1-.008-187.738Z" transform="translate(0.009 211.201)" fill="#12263f"/>
              </g>
              <g id="g3387" transform="translate(10.07 22.831)">
                <path id="path3389" d="M-462.909,35.035a1,1,0,0,1-1-1V27.054a1,1,0,0,1,1-1,1,1,0,0,1,1,1v5.981h50.469V1h-2.233a1,1,0,0,1-1-1,1,1,0,0,1,1-1h3.233a1,1,0,0,1,1,1V34.033a1,1,0,0,1-.293.707,1,1,0,0,1-.707.293Z" transform="translate(462.91)" fill="#12263f"/>
              </g>
              <g id="g3391" transform="translate(29.78 61.12)">
                <path id="path3393" d="M-95.322-27.6h-9.643a2.7,2.7,0,0,1-2.7-2.7V-32a1,1,0,0,1,1-1H-93.62a1,1,0,0,1,1,1v1.7A2.7,2.7,0,0,1-95.322-27.6ZM-105.666-31v.7a.7.7,0,0,0,.7.7h9.643a.7.7,0,0,0,.7-.7V-31Z" transform="translate(106.666 32)" fill="#12263f"/>
              </g>
              <g id="g3395" transform="translate(37.618 4.396)">
                <path id="path3397" d="M-138.467-113.592h1.925a2.378,2.378,0,0,1,2.3,1.784,21.7,21.7,0,0,1,.458,2.124.366.366,0,0,0,.183.266l1.779,1.025a.374.374,0,0,0,.323.026c.6-.242,1.462-.5,2.079-.668a2.384,2.384,0,0,1,.637-.087,2.384,2.384,0,0,1,2.057,1.186l.961,1.661a2.373,2.373,0,0,1-.4,2.886,21.764,21.764,0,0,1-1.616,1.459.368.368,0,0,0-.138.29v2.046a.369.369,0,0,0,.138.29,21.766,21.766,0,0,1,1.617,1.459,2.373,2.373,0,0,1,.4,2.886l-.961,1.661a2.384,2.384,0,0,1-2.057,1.186,2.383,2.383,0,0,1-.637-.087c-.616-.171-1.477-.425-2.079-.668a.354.354,0,0,0-.133-.026h0a.381.381,0,0,0-.19.051l-1.779,1.024a.366.366,0,0,0-.183.266,21.716,21.716,0,0,1-.458,2.124,2.378,2.378,0,0,1-2.3,1.784h-1.925a2.378,2.378,0,0,1-2.3-1.784,21.623,21.623,0,0,1-.458-2.124.371.371,0,0,0-.184-.266l-1.778-1.024a.374.374,0,0,0-.323-.026c-.6.243-1.463.5-2.079.668a2.384,2.384,0,0,1-.637.087,2.384,2.384,0,0,1-2.057-1.186l-.961-1.661a2.373,2.373,0,0,1,.4-2.886c.455-.446,1.105-1.061,1.616-1.459a.369.369,0,0,0,.138-.29v-2.046a.368.368,0,0,0-.138-.29c-.511-.4-1.161-1.013-1.617-1.459a2.373,2.373,0,0,1-.4-2.886l.961-1.661a2.384,2.384,0,0,1,2.057-1.186,2.383,2.383,0,0,1,.637.087c.617.171,1.478.426,2.079.668a.375.375,0,0,0,.323-.026l1.779-1.024a.371.371,0,0,0,.183-.266,21.61,21.61,0,0,1,.458-2.124A2.378,2.378,0,0,1-138.467-113.592Zm6.838,7.25a2.385,2.385,0,0,1-1.188-.318l-1.779-1.024a2.353,2.353,0,0,1-1.166-1.72,19.3,19.3,0,0,0-.414-1.9.379.379,0,0,0-.366-.285h-1.925a.378.378,0,0,0-.366.285,19.211,19.211,0,0,0-.414,1.9,2.354,2.354,0,0,1-1.166,1.72l-1.779,1.024a2.385,2.385,0,0,1-1.188.318,2.344,2.344,0,0,1-.881-.171,19.432,19.432,0,0,0-1.865-.6.383.383,0,0,0-.1-.014.378.378,0,0,0-.327.188l-.961,1.661a.375.375,0,0,0,.063.455A19.42,19.42,0,0,0-146-103.507a2.35,2.35,0,0,1,.909,1.868v2.046A2.351,2.351,0,0,1-146-97.726a19.416,19.416,0,0,0-1.447,1.311.375.375,0,0,0-.063.455l.961,1.661a.378.378,0,0,0,.326.188.383.383,0,0,0,.1-.014,19.453,19.453,0,0,0,1.865-.6,2.344,2.344,0,0,1,.881-.171,2.384,2.384,0,0,1,1.189.319l1.778,1.024a2.354,2.354,0,0,1,1.166,1.72,19.227,19.227,0,0,0,.414,1.9.378.378,0,0,0,.366.285h1.925a.379.379,0,0,0,.366-.285,19.315,19.315,0,0,0,.414-1.9,2.354,2.354,0,0,1,1.166-1.72l1.779-1.024a2.384,2.384,0,0,1,1.188-.318h0a2.344,2.344,0,0,1,.881.171,19.486,19.486,0,0,0,1.865.6.383.383,0,0,0,.1.014.378.378,0,0,0,.326-.188l.961-1.661a.375.375,0,0,0-.063-.455A19.366,19.366,0,0,0-129-97.726a2.351,2.351,0,0,1-.909-1.868v-2.046a2.351,2.351,0,0,1,.909-1.868,19.364,19.364,0,0,0,1.446-1.311.375.375,0,0,0,.063-.456l-.961-1.661a.378.378,0,0,0-.326-.188.384.384,0,0,0-.1.014,19.461,19.461,0,0,0-1.865.6A2.344,2.344,0,0,1-131.629-106.342Zm-5.875,0a5.74,5.74,0,0,1,5.74,5.728,5.741,5.741,0,0,1-5.74,5.728,5.741,5.741,0,0,1-5.74-5.728A5.74,5.74,0,0,1-137.5-106.345Zm0,9.456a3.738,3.738,0,0,0,3.74-3.728,3.738,3.738,0,0,0-3.74-3.728,3.738,3.738,0,0,0-3.74,3.728A3.738,3.738,0,0,0-137.5-96.888Z" transform="translate(148.565 112.592)" fill="#12263f"/>
              </g>
              <g id="g3399" transform="translate(20.939 22.832)">
                <path id="path3401" d="M-138.467-113.592h1.925a2.378,2.378,0,0,1,2.3,1.784,21.714,21.714,0,0,1,.458,2.124.366.366,0,0,0,.183.266l1.779,1.025a.374.374,0,0,0,.323.026c.6-.243,1.463-.5,2.079-.668a2.384,2.384,0,0,1,.637-.087,2.384,2.384,0,0,1,2.057,1.186l.961,1.661a2.373,2.373,0,0,1-.4,2.886,21.741,21.741,0,0,1-1.617,1.459.368.368,0,0,0-.138.29v2.046a.369.369,0,0,0,.138.29,21.74,21.74,0,0,1,1.616,1.459,2.373,2.373,0,0,1,.4,2.886l-.961,1.661a2.384,2.384,0,0,1-2.057,1.186,2.383,2.383,0,0,1-.637-.087c-.616-.171-1.477-.425-2.079-.668a.354.354,0,0,0-.133-.026h0a.381.381,0,0,0-.19.051l-1.779,1.025a.366.366,0,0,0-.183.266,21.716,21.716,0,0,1-.458,2.124,2.378,2.378,0,0,1-2.3,1.784h-1.925a2.378,2.378,0,0,1-2.3-1.784,21.623,21.623,0,0,1-.458-2.124.371.371,0,0,0-.184-.266l-1.778-1.024a.374.374,0,0,0-.323-.026c-.6.243-1.463.5-2.079.668a2.384,2.384,0,0,1-.637.087,2.384,2.384,0,0,1-2.057-1.186l-.961-1.661a2.373,2.373,0,0,1,.4-2.886c.456-.446,1.106-1.061,1.617-1.459a.369.369,0,0,0,.138-.29v-2.046a.368.368,0,0,0-.138-.29c-.51-.4-1.161-1.013-1.617-1.459a2.373,2.373,0,0,1-.4-2.886l.961-1.661a2.384,2.384,0,0,1,2.057-1.186,2.383,2.383,0,0,1,.637.087c.616.171,1.476.425,2.079.668a.374.374,0,0,0,.323-.026l1.779-1.024a.371.371,0,0,0,.183-.266,21.619,21.619,0,0,1,.458-2.124A2.378,2.378,0,0,1-138.467-113.592Zm6.838,7.25a2.385,2.385,0,0,1-1.188-.318l-1.779-1.024a2.353,2.353,0,0,1-1.166-1.72,19.318,19.318,0,0,0-.414-1.9.379.379,0,0,0-.366-.285h-1.925a.378.378,0,0,0-.366.285,19.224,19.224,0,0,0-.414,1.9,2.354,2.354,0,0,1-1.166,1.72l-1.779,1.024a2.385,2.385,0,0,1-1.188.318,2.344,2.344,0,0,1-.881-.171,19.473,19.473,0,0,0-1.865-.6.383.383,0,0,0-.1-.014.378.378,0,0,0-.327.188l-.961,1.661a.375.375,0,0,0,.063.455A19.393,19.393,0,0,0-146-103.508a2.35,2.35,0,0,1,.909,1.868v2.046A2.351,2.351,0,0,1-146-97.726a19.4,19.4,0,0,0-1.447,1.311.375.375,0,0,0-.063.455l.961,1.661a.378.378,0,0,0,.326.188.383.383,0,0,0,.1-.014,19.466,19.466,0,0,0,1.865-.6,2.344,2.344,0,0,1,.881-.171,2.384,2.384,0,0,1,1.189.319l1.778,1.024a2.354,2.354,0,0,1,1.166,1.72,19.227,19.227,0,0,0,.414,1.9.378.378,0,0,0,.366.285h1.925a.379.379,0,0,0,.366-.285,19.315,19.315,0,0,0,.414-1.9,2.354,2.354,0,0,1,1.166-1.72l1.779-1.024a2.383,2.383,0,0,1,1.188-.318h0a2.344,2.344,0,0,1,.881.171,19.486,19.486,0,0,0,1.865.6.383.383,0,0,0,.1.014.378.378,0,0,0,.326-.188l.961-1.661a.375.375,0,0,0-.063-.455A19.342,19.342,0,0,0-129-97.726a2.352,2.352,0,0,1-.909-1.868v-2.046a2.351,2.351,0,0,1,.909-1.868,19.338,19.338,0,0,0,1.447-1.311.375.375,0,0,0,.063-.456l-.961-1.661a.378.378,0,0,0-.326-.188.384.384,0,0,0-.1.014,19.489,19.489,0,0,0-1.865.6A2.343,2.343,0,0,1-131.629-106.342Zm-5.875,0a5.74,5.74,0,0,1,5.74,5.728,5.741,5.741,0,0,1-5.74,5.728,5.741,5.741,0,0,1-5.74-5.728A5.74,5.74,0,0,1-137.5-106.345Zm0,9.456a3.738,3.738,0,0,0,3.74-3.728,3.738,3.738,0,0,0-3.74-3.728,3.738,3.738,0,0,0-3.74,3.728A3.738,3.738,0,0,0-137.5-96.888Z" transform="translate(148.565 112.592)" fill="#12263f"/>
              </g>
            </g>
          </g>
        </g>
      </g>
    </g>
  </g>
</svg>
