<svg xmlns="http://www.w3.org/2000/svg" width="589" height="151.785" viewBox="0 0 589 151.785">
  <g id="Grupo_1076386" data-name="Grupo 1076386" transform="translate(-5886 7475)">
    <g id="Grupo_1075940" data-name="Grupo 1075940" transform="translate(552)">
      <rect id="Rectángulo_376430" data-name="Rectángulo 376430" width="589" height="151.785" transform="translate(5334 -7475)" fill="#e4e9eb" opacity="0.997"/>
      <g id="Grupo_1074641" data-name="Grupo 1074641" transform="translate(4953.331 -12528)">
        <g id="desbloquear" transform="translate(393.034 5069)">
          <g id="Grupo_1074618" data-name="Grupo 1074618" transform="translate(72.761)">
            <g id="Grupo_1074617" data-name="Grupo 1074617">
              <path id="Trazado_821971" data-name="Trazado 821971" d="M138.021,0a25.4,25.4,0,0,0-25.374,25.374V37.8a1.533,1.533,0,0,0,1.533,1.532h8.506a1.532,1.532,0,0,0,1.532-1.532V25.374a13.8,13.8,0,1,1,27.6,0V37.8a1.533,1.533,0,0,0,1.533,1.532h8.506a1.532,1.532,0,0,0,1.532-1.532V25.374A25.4,25.4,0,0,0,138.021,0Zm22.31,36.266h-5.442V25.374a16.867,16.867,0,1,0-33.733,0V36.266h-5.442V25.374a22.309,22.309,0,1,1,44.618,0Z" transform="translate(-112.647)" fill="#12263f"/>
            </g>
          </g>
          <g id="Grupo_1074620" data-name="Grupo 1074620" transform="translate(64.183 36.266)">
            <g id="Grupo_1074619" data-name="Grupo 1074619">
              <path id="Trazado_821972" data-name="Trazado 821972" d="M125.5,204.89H70.765a6.59,6.59,0,0,0-6.582,6.582v41.194a6.59,6.59,0,0,0,6.582,6.582H125.5a6.59,6.59,0,0,0,6.582-6.583V211.472A6.59,6.59,0,0,0,125.5,204.89Zm3.518,47.777a3.522,3.522,0,0,1-3.518,3.518H70.765a3.522,3.522,0,0,1-3.518-3.518V211.472a3.522,3.522,0,0,1,3.518-3.518H125.5a3.522,3.522,0,0,1,3.518,3.518Z" transform="translate(-64.183 -204.89)" fill="#12263f"/>
            </g>
          </g>
          <g id="Grupo_1074622" data-name="Grupo 1074622" transform="translate(90.15 51.385)">
            <g id="Grupo_1074621" data-name="Grupo 1074621">
              <path id="Trazado_821973" data-name="Trazado 821973" d="M224.026,304.374a7.984,7.984,0,1,0-10.305,0L212,312.581a1.532,1.532,0,0,0,1.5,1.847h10.751a1.532,1.532,0,0,0,1.5-1.847Zm-2.524-1.94a1.533,1.533,0,0,0-.677,1.607l1.536,7.322h-6.977l1.537-7.321a1.532,1.532,0,0,0-.677-1.607,4.92,4.92,0,1,1,5.257,0Z" transform="translate(-210.889 -290.307)" fill="#12263f"/>
            </g>
          </g>
        </g>
        <text id="Lock-in_cost" data-name="Lock-in cost" transform="translate(449.669 5185.364)" fill="#12263f" font-size="15" font-family="SegoeUI-BoldItalic, Segoe UI" font-weight="700" font-style="italic"><tspan x="0" y="0">Lock-in cost</tspan></text>
        <text id="_" data-name="=" transform="translate(550 5151)" fill="#12263f" font-size="35" font-family="SegoeUI-Bold, Segoe UI" font-weight="700"><tspan x="0" y="0">=</tspan></text>
        <text id="_-" data-name="-" transform="translate(761 5151)" fill="#12263f" font-size="35" font-family="SegoeUI-Bold, Segoe UI" font-weight="700"><tspan x="0" y="0">-</tspan></text>
        <g id="camion_2_" data-name="camion (2)" transform="translate(595 4965.755)">
          <g id="Grupo_1074626" data-name="Grupo 1074626" transform="translate(23.92 181.102)">
            <g id="Grupo_1074625" data-name="Grupo 1074625" transform="translate(0 0)">
              <path id="Trazado_821977" data-name="Trazado 821977" d="M90.262,344.692H90.24a2.045,2.045,0,1,0,.022,0Z" transform="translate(-88.218 -344.692)" fill="#12263f"/>
            </g>
          </g>
          <g id="Grupo_1074628" data-name="Grupo 1074628" transform="translate(41.308 181.102)">
            <g id="Grupo_1074627" data-name="Grupo 1074627" transform="translate(0 0)">
              <path id="Trazado_821978" data-name="Trazado 821978" d="M154.391,344.692h-.022a2.044,2.044,0,1,0,.022,0Z" transform="translate(-152.347 -344.692)" fill="#12263f"/>
            </g>
          </g>
          <g id="Grupo_1074630" data-name="Grupo 1074630" transform="translate(113.034 181.102)">
            <g id="Grupo_1074629" data-name="Grupo 1074629" transform="translate(0 0)">
              <path id="Trazado_821979" data-name="Trazado 821979" d="M418.923,344.692H418.9a2.044,2.044,0,1,0,.022,0Z" transform="translate(-416.879 -344.692)" fill="#12263f"/>
            </g>
          </g>
          <g id="Grupo_1074632" data-name="Grupo 1074632" transform="translate(0 120.245)">
            <g id="Grupo_1074631" data-name="Grupo 1074631">
              <path id="Trazado_821980" data-name="Trazado 821980" d="M136.956,156.516l-2.734-2.734-5.508-16.525a2.033,2.033,0,0,0-.616-3.971H108.4v-8.833a4.212,4.212,0,0,0-4.207-4.207H4.207A4.212,4.212,0,0,0,0,124.452v47.817a4.212,4.212,0,0,0,4.207,4.207H6.52v4.486a4.212,4.212,0,0,0,4.207,4.207H15.41a10.72,10.72,0,0,0,19.226,4.24,10.721,10.721,0,0,0,19.226-4.24h50.663a10.727,10.727,0,0,0,21.259-2.034c0-.047,0-.092,0-.139h8.838a4.212,4.212,0,0,0,4.207-4.207V161.028A6.337,6.337,0,0,0,136.956,156.516ZM15.41,181.1H10.728a.14.14,0,0,1-.14-.14v-4.486h6.953A10.686,10.686,0,0,0,15.41,181.1ZM25.942,189.8a6.66,6.66,0,0,1-.041-13.32h.084a6.66,6.66,0,0,1-.042,13.32Zm17.388,0a6.66,6.66,0,0,1-.042-13.32h.084a6.66,6.66,0,0,1-.042,13.32Zm61.194-8.694H53.862a10.684,10.684,0,0,0-2.131-4.626H91.148a2.034,2.034,0,1,0,0-4.067H4.207a.14.14,0,0,1-.14-.14V124.452a.14.14,0,0,1,.14-.14h99.982a.14.14,0,0,1,.14.14V172.41H99.843a2.034,2.034,0,1,0,0,4.067h6.813A10.683,10.683,0,0,0,104.525,181.1Zm25.823-26.082H117.23a.14.14,0,0,1-.14-.14v-8.834h10.266ZM115.057,189.8a6.66,6.66,0,0,1-.041-13.32h.056a6.66,6.66,0,0,1-.014,13.321Zm19.7-11.006a.14.14,0,0,1-.14.14h-9.694a10.743,10.743,0,0,0-9.868-6.522H108.4V137.493h0a.14.14,0,0,1,.14-.14h15.922L126,141.979H115.057a2.034,2.034,0,0,0-2.034,2.034V154.88a4.212,4.212,0,0,0,4.207,4.207h16.546l.3.3a2.3,2.3,0,0,1,.678,1.636v4.861h-2.313a2.034,2.034,0,1,0,0,4.067h2.313Z" transform="translate(0 -120.245)" fill="#12263f"/>
            </g>
          </g>
          <g id="Grupo_1074634" data-name="Grupo 1074634" transform="translate(8.694 163.715)">
            <g id="Grupo_1074633" data-name="Grupo 1074633">
              <path id="Trazado_821981" data-name="Trazado 821981" d="M121.038,280.567H34.1a2.034,2.034,0,1,0,0,4.067h86.941a2.034,2.034,0,0,0,0-4.067Z" transform="translate(-32.064 -280.567)" fill="#12263f"/>
            </g>
          </g>
        </g>
        <text id="Migration_cost" data-name="Migration cost" transform="translate(615.413 5185.364)" fill="#12263f" font-size="15" font-family="SegoeUI-BoldItalic, Segoe UI" font-weight="700" font-style="italic"><tspan x="0" y="0">Migration cost</tspan></text>
        <text id="Opportunity_gain" data-name="Opportunity gain" transform="translate(787.406 5185.364)" fill="#12263f" font-size="15" font-family="SegoeUI-BoldItalic, Segoe UI" font-weight="700" font-style="italic"><tspan x="0" y="0">Opportunity gain</tspan></text>
        <g id="grafico-de-barras" transform="translate(791.208 5074)">
          <g id="Grupo_1074636" data-name="Grupo 1074636" transform="translate(13.872 24.085)">
            <g id="Grupo_1074635" data-name="Grupo 1074635">
              <path id="Trazado_821982" data-name="Trazado 821982" d="M93.647,204.876h-3.7v-53.69a4.537,4.537,0,0,0-4.532-4.532H77.152a4.537,4.537,0,0,0-4.532,4.532v53.69H63.231V175.512A4.537,4.537,0,0,0,58.7,170.98H50.434a4.537,4.537,0,0,0-4.532,4.532v29.364H36.513V189.668a4.537,4.537,0,0,0-4.532-4.532H23.716a4.537,4.537,0,0,0-4.532,4.532v15.207h-3.9a1.686,1.686,0,1,0,0,3.372h78.36a1.686,1.686,0,1,0,0-3.372Zm-60.506,0H22.556V189.668a1.161,1.161,0,0,1,1.16-1.16h8.265a1.161,1.161,0,0,1,1.16,1.16v15.207Zm26.718,0H49.274V175.512a1.161,1.161,0,0,1,1.16-1.16H58.7a1.162,1.162,0,0,1,1.16,1.16Zm26.718,0H75.992v-53.69a1.161,1.161,0,0,1,1.16-1.16h8.265a1.161,1.161,0,0,1,1.16,1.16v53.69Z" transform="translate(-13.601 -146.654)" fill="#12263f"/>
            </g>
          </g>
          <g id="Grupo_1074638" data-name="Grupo 1074638" transform="translate(15.474 9)">
            <g id="Grupo_1074637" data-name="Grupo 1074637">
              <path id="Trazado_821983" data-name="Trazado 821983" d="M161.235,1.773A1.68,1.68,0,0,0,159.466,0c-.027,0-.054,0-.082,0h-10.2a1.686,1.686,0,1,0,0,3.372h6.3L138.816,20.038l-6.285-6.285a1.686,1.686,0,0,0-2.384,0L99.84,44.061a1.686,1.686,0,0,0,2.384,2.384l29.115-29.115,6.285,6.285a1.686,1.686,0,0,0,2.384,0L157.867,5.756v5.7a1.686,1.686,0,1,0,3.372,0v-9.6C161.239,1.827,161.236,1.8,161.235,1.773Z" transform="translate(-99.346)" fill="#12263f"/>
            </g>
          </g>
          <g id="Grupo_1074640" data-name="Grupo 1074640" transform="translate(9.792 58.449)">
            <g id="Grupo_1074639" data-name="Grupo 1074639" transform="translate(0)">
              <circle id="Elipse_10495" data-name="Elipse 10495" cx="1.686" cy="1.686" r="1.686" fill="#12263f"/>
            </g>
          </g>
        </g>
      </g>
    </g>
  </g>
</svg>
