<svg id="g8444" xmlns="http://www.w3.org/2000/svg" xmlns:xlink="http://www.w3.org/1999/xlink" width="72.346" height="72.346" viewBox="0 0 72.346 72.346">
  <defs>
    <clipPath id="clip-path">
      <path id="path8448" d="M0-682.665H72.346v72.346H0Z" transform="translate(0 682.665)"/>
    </clipPath>
  </defs>
  <g id="g8446" clip-path="url(#clip-path)">
    <g id="g8452" transform="translate(1.06 1.06)">
      <path id="path8454" d="M-592.439-296.219a35.113,35.113,0,0,1-35.113,35.113,35.113,35.113,0,0,1-35.113-35.113,35.113,35.113,0,0,1,35.113-35.113,35.113,35.113,0,0,1,35.113,35.113" transform="translate(662.665 331.333)" fill="#fe0364"/>
    </g>
    <g id="g8456" transform="translate(17.728 3.463)">
      <path id="path8458" d="M-263.543,0a35.091,35.091,0,0,1,16.667,29.883A35.113,35.113,0,0,1-281.99,65a35.027,35.027,0,0,1-12.794-2.4,34.95,34.95,0,0,0,18.446,5.23,35.113,35.113,0,0,0,35.113-35.113A35.125,35.125,0,0,0-263.543,0" transform="translate(294.783)" fill="#e30256"/>
    </g>
    <g id="g8460" transform="translate(7.013 30.952)">
      <path id="path8462" d="M-24.685,0a2.926,2.926,0,0,1,2.926,2.926,2.926,2.926,0,0,1-2.926,2.926,2.926,2.926,0,0,1-2.926-2.926A2.926,2.926,0,0,1-24.685,0" transform="translate(27.611 0)" fill="#f2fbff"/>
    </g>
    <g id="g8464" transform="translate(59.481 30.952)">
      <path id="path8466" d="M-24.685,0a2.926,2.926,0,0,0-2.926,2.926,2.926,2.926,0,0,0,2.926,2.926,2.926,2.926,0,0,0,2.926-2.926A2.926,2.926,0,0,0-24.685,0" transform="translate(27.611 0)" fill="#f2fbff"/>
    </g>
    <g id="g8468" transform="translate(18.617 18.616)">
      <path id="path8470" d="M-148.11,0a17.557,17.557,0,0,0-17.557,17.557,17.564,17.564,0,0,0,12.79,16.9l-.127-.036c-.606-.922,10.394-.922,9.788,0l-.127.036a17.564,17.564,0,0,0,12.79-16.9A17.557,17.557,0,0,0-148.11,0" transform="translate(165.666)" fill="#025f80"/>
    </g>
    <g id="g8472" transform="translate(40.941 53.044)">
      <path id="path8474" d="M-.9,0-1,.03-.9,0" transform="translate(1.004)" fill="#024c67"/>
    </g>
    <g id="g8476" transform="translate(41.047 53.038)">
      <path id="path8478" d="M-.174,0h0L-.195,0-.174,0" transform="translate(0.195 0.001)" fill="#024c67"/>
    </g>
    <g id="g8480" transform="translate(31.314 53.048)">
      <path id="path8482" d="M0,0,.011,0,0,0" fill="#024c67"/>
    </g>
    <g id="g8484" transform="translate(31.326 53.052)">
      <path id="path8486" d="M0,0,.081.023,0,0" fill="#024c67"/>
    </g>
    <g id="g8488" transform="translate(25.632 19.306)">
      <path id="path8490" d="M-237.041-142.289a17.564,17.564,0,0,0-12.667-16.867,17.53,17.53,0,0,1,7.015,14.04,17.556,17.556,0,0,1-17.557,17.557,17.563,17.563,0,0,1-4.889-.69,17.493,17.493,0,0,0,5.648,2.825c-.6-.921,10.393-.922,9.788,0a17.564,17.564,0,0,0,12.663-16.865" transform="translate(265.139 159.156)" fill="#024c67"/>
    </g>
    <g id="g8492" transform="translate(31.28 53.038)">
      <path id="path8494" d="M-.293-.085l-.035-.01h0Z" transform="translate(0.328 0.095)" fill="#024c67"/>
    </g>
    <g id="g8496" transform="translate(30.655 6.912)">
      <path id="path8498" d="M-46.552-279.762h0a4.138,4.138,0,0,1-4.13-3.895l-1.378-23.426a5.518,5.518,0,0,1,5.508-5.842,5.518,5.518,0,0,1,5.508,5.842l-1.378,23.426a4.138,4.138,0,0,1-4.13,3.895" transform="translate(52.07 312.925)" fill="#fed402"/>
    </g>
    <g id="g8500" transform="translate(30.321 43.976)">
      <path id="path8502" d="M-49.37,0a5.852,5.852,0,0,0-5.852,5.852,5.826,5.826,0,0,0,.958,3.21,17.568,17.568,0,0,0,4.894.691,17.568,17.568,0,0,0,4.894-.691,5.826,5.826,0,0,0,.958-3.21A5.852,5.852,0,0,0-49.37,0" transform="translate(55.223 0)" fill="#fed402"/>
    </g>
    <g id="g8504" transform="translate(30.42 47.146)">
      <path id="path8506" d="M0-31.694a5.819,5.819,0,0,0,.86,2.135,17.563,17.563,0,0,0,4.894.691,17.564,17.564,0,0,0,4.894-.691,5.826,5.826,0,0,0,.958-3.21,5.827,5.827,0,0,0-.649-2.682A17.482,17.482,0,0,1,.1-31.693H0" transform="translate(0 35.451)" fill="#fac600"/>
    </g>
    <g id="g8508" transform="translate(1.06 1.06)">
      <path id="path8510" d="M-119.053-58.8a34.958,34.958,0,0,1,21-6.97A35.113,35.113,0,0,1-62.939-30.655,35.113,35.113,0,0,1-98.052,4.458a35.113,35.113,0,0,1-35.113-35.113A35,35,0,0,1-122.854-55.51" transform="translate(133.165 65.768)" fill="none" stroke="#000" stroke-linecap="round" stroke-linejoin="round" stroke-miterlimit="10" stroke-width="1"/>
    </g>
    <g id="g8572" transform="translate(7.013 30.952)">
      <path id="path8574" d="M-24.685,0a2.926,2.926,0,0,1,2.926,2.926,2.926,2.926,0,0,1-2.926,2.926,2.926,2.926,0,0,1-2.926-2.926A2.926,2.926,0,0,1-24.685,0Z" transform="translate(27.611 0)" fill="none" stroke="#000" stroke-linecap="round" stroke-linejoin="round" stroke-miterlimit="10" stroke-width="1"/>
    </g>
    <g id="g8576" transform="translate(59.481 30.952)">
      <path id="path8578" d="M-24.685,0a2.926,2.926,0,0,0-2.926,2.926,2.926,2.926,0,0,0,2.926,2.926,2.926,2.926,0,0,0,2.926-2.926A2.926,2.926,0,0,0-24.685,0Z" transform="translate(27.611 0)" fill="none" stroke="#000" stroke-linecap="round" stroke-linejoin="round" stroke-miterlimit="10" stroke-width="1"/>
    </g>
    <g id="g8580" transform="translate(30.655 6.912)">
      <path id="path8582" d="M-46.552-279.762h0a4.138,4.138,0,0,1-4.13-3.895l-1.378-23.426a5.518,5.518,0,0,1,5.508-5.842,5.518,5.518,0,0,1,5.508,5.842l-1.378,23.426A4.138,4.138,0,0,1-46.552-279.762Z" transform="translate(52.07 312.925)" fill="none" stroke="#000" stroke-linecap="round" stroke-linejoin="round" stroke-miterlimit="10" stroke-width="1"/>
    </g>
    <g id="g8584" transform="translate(30.321 43.976)">
      <path id="path8586" d="M-1.217-38.426a5.873,5.873,0,0,0-.144,1.3A5.826,5.826,0,0,0-.4-33.919a17.563,17.563,0,0,0,4.894.691,17.562,17.562,0,0,0,4.894-.691,5.826,5.826,0,0,0,.958-3.21,5.852,5.852,0,0,0-5.852-5.852,5.828,5.828,0,0,0-2.778.7" transform="translate(1.361 42.981)" fill="none" stroke="#000" stroke-linecap="round" stroke-linejoin="round" stroke-miterlimit="10" stroke-width="1"/>
    </g>
    <g id="g8588" transform="translate(41.293 19.375)">
      <path id="path8590" d="M-46.017-23.469a17.5,17.5,0,0,0-5.455-2.782" transform="translate(51.472 26.251)" fill="none" stroke="#000" stroke-linecap="round" stroke-linejoin="round" stroke-miterlimit="10" stroke-width="1"/>
    </g>
    <g id="g8592" transform="translate(40.941 25.747)">
      <path id="path8594" d="M0-230.537a17.564,17.564,0,0,0,12.79-16.9A17.478,17.478,0,0,0,9.36-257.865" transform="translate(0 257.865)" fill="none" stroke="#000" stroke-linecap="round" stroke-linejoin="round" stroke-miterlimit="10" stroke-width="1"/>
    </g>
    <g id="g8596" transform="translate(18.617 19.374)">
      <path id="path8598" d="M-104.924,0a17.564,17.564,0,0,0-12.437,16.8,17.564,17.564,0,0,0,12.79,16.9" transform="translate(117.361)" fill="none" stroke="#000" stroke-linecap="round" stroke-linejoin="round" stroke-miterlimit="10" stroke-width="1"/>
    </g>
  </g>
</svg>
