<svg xmlns="http://www.w3.org/2000/svg" width="60" height="61" viewBox="0 0 60 61">
  <g id="Grupo_1076271" data-name="Grupo 1076271" transform="translate(-351 -648)">
    <g id="Grupo_1076269" data-name="Grupo 1076269">
      <g id="Grupo_142438" data-name="Grupo 142438" transform="translate(350.644 648)">
        <ellipse id="Elipse_4775" data-name="Elipse 4775" cx="30" cy="30.5" rx="30" ry="30.5" transform="translate(0.356 0)" fill="#ff6148"/>
        <g id="Grupo_154945" data-name="Grupo 154945" transform="translate(12.356 12)">
          <path id="Trazado_196928" data-name="Trazado 196928" d="M5054.786,4242.823c-3.189-.465-6.233-.906-9.276-1.355-3.413-.5-6.824-1.02-10.237-1.522-1.247-.184-1.249-.173-1.249-1.467,0-4.4.018-8.792-.017-13.187-.006-.78.208-1.022,1-1.019q9.419.045,18.838,0c.791,0,1.016.235,1.012,1.019-.03,5.537-.016,11.074-.019,16.612C5054.842,4242.181,5054.809,4242.458,5054.786,4242.823Z" transform="translate(-5018.128 -4205.523)" fill="#fff"/>
          <path id="Trazado_196929" data-name="Trazado 196929" d="M5044.45,4133.292c-3.168,0-6.337-.02-9.5.016-.728.008-.921-.235-.917-.933q.038-6.722,0-13.444c0-.659.163-.948.868-1.048,6.041-.859,12.075-1.764,18.113-2.64,1.849-.269,1.853-.246,1.853,1.626,0,5.109-.019,10.219.019,15.328.006.857-.217,1.129-1.1,1.114C5050.673,4133.259,5047.562,4133.291,5044.45,4133.292Z" transform="translate(-5018.146 -4115.12)" fill="#fff"/>
          <path id="Trazado_196930" data-name="Trazado 196930" d="M4956.881,4231.989c0,2.281-.018,4.563.01,6.844.008.659-.2.84-.855.742q-6.8-1.034-13.611-2.011c-.646-.092-.848-.373-.845-1q.029-5.689,0-11.378c0-.656.206-.9.887-.893q6.758.037,13.517,0c.728,0,.921.252.911.941C4956.859,4227.483,4956.881,4229.736,4956.881,4231.989Z" transform="translate(-4941.577 -4205.537)" fill="#fff"/>
          <path id="Trazado_196931" data-name="Trazado 196931" d="M4949.242,4148.077c-2.256,0-4.512-.019-6.768.012-.66.009-.906-.193-.9-.875q.036-5.611,0-11.223c0-.7.271-.934.926-1.026,4.491-.631,8.981-1.274,13.464-1.962.779-.12.928.127.924.828q-.031,6.683,0,13.365c0,.666-.19.9-.876.895C4953.755,4148.055,4951.5,4148.077,4949.242,4148.077Z" transform="translate(-4941.571 -4129.907)" fill="#fff"/>
        </g>
      </g>
    </g>
  </g>
</svg>
