<svg xmlns="http://www.w3.org/2000/svg" width="61" height="61" viewBox="0 0 61 61">
  <g id="Grupo_1076270" data-name="Grupo 1076270" transform="translate(-560 -648)">
    <g id="Grupo_142439" data-name="Grupo 142439" transform="translate(559.5 648)">
      <circle id="Elipse_4868" data-name="Elipse 4868" cx="30.5" cy="30.5" r="30.5" transform="translate(0.5 0)" fill="#12263f"/>
      <g id="ujAiFS.tif" transform="translate(17.5 14)">
        <g id="Grupo_154944" data-name="Grupo 154944">
          <path id="Trazado_196925" data-name="Trazado 196925" d="M3325.948,3963.945h-.562l-.273-.05a4.052,4.052,0,0,1-1.945-.994,12.582,12.582,0,0,1-1.641-1.807,20,20,0,0,1-3.272-5.867,20.4,20.4,0,0,1-1.076-4.719c-.032-.327-.062-.655-.093-.982v-1.554a1.135,1.135,0,0,0,.028-.143,11.064,11.064,0,0,1,.837-3.668,8.288,8.288,0,0,1,4.311-4.53,6.806,6.806,0,0,1,5.316-.257c.753.278,1.5.577,2.255.847a2.388,2.388,0,0,0,1.62.054q.95-.33,1.89-.69a8.744,8.744,0,0,1,4.08-.68,8.153,8.153,0,0,1,3.487,1.125,7.634,7.634,0,0,1,2.225,2.114,7.278,7.278,0,0,0-3.548,6.77,7.2,7.2,0,0,0,4.412,6.255c-.045.139-.093.3-.147.45a19.468,19.468,0,0,1-3.012,5.454,9.843,9.843,0,0,1-1.921,2.014,4.016,4.016,0,0,1-3.379.7,9.188,9.188,0,0,1-1.747-.639,6.477,6.477,0,0,0-2.545-.562,7.135,7.135,0,0,0-2.913.635c-.475.2-.958.388-1.45.544A7.547,7.547,0,0,1,3325.948,3963.945Z" transform="translate(-3317.086 -3930.843)" fill="#fff"/>
          <path id="Trazado_196927" data-name="Trazado 196927" d="M3726.334,3696.472a10.274,10.274,0,0,1,.011,1.08,7.357,7.357,0,0,1-2.925,5.338,5.866,5.866,0,0,1-2.706,1.192,8.127,8.127,0,0,1-.871.036c-.156.007-.186-.083-.2-.214a4.723,4.723,0,0,1,.221-2.053,7.548,7.548,0,0,1,5.422-5.2A10.079,10.079,0,0,1,3726.334,3696.472Z" transform="translate(-3706.284 -3696.472)" fill="#fff"/>
        </g>
      </g>
    </g>
  </g>
</svg>
