<svg xmlns="http://www.w3.org/2000/svg" width="505" height="944.036" viewBox="0 0 505 944.036">
  <g id="Grupo_1076381" data-name="Grupo 1076381" transform="translate(8828 8456.036)">
    <path id="Trazado_824833" data-name="Trazado 824833" d="M0,0H944.036V505H0Z" transform="translate(-8323 -8456.036) rotate(90)" fill="#f6f6f6"/>
    <text id="Usuarios_finales" data-name="Usuarios
finales" transform="translate(-8497.182 -7919.683)" fill="#12263f" font-size="14" font-family="SegoeUI, Segoe UI"><tspan x="-26.503" y="0">Usuarios</tspan><tspan x="-19.735" y="21">finales</tspan></text>
    <g id="Grupo_1070794" data-name="Grupo 1070794" transform="translate(-8578.268 -8109.374)">
      <path id="Trazado_817630" data-name="Trazado 817630" d="M-7330.7-8573.945h-2v-58.692h2Z" transform="translate(7337.09 8635.475)" fill="#ff6148"/>
      <path id="Trazado_817629" data-name="Trazado 817629" d="M5.386,1.536,0,0,5.373,8.331l.013-.017.013.017L10.771,0Z" transform="translate(0 55.112)" fill="#ff6148"/>
      <path id="Trazado_817632" data-name="Trazado 817632" d="M5.386,6.8,0,8.332,5.373,0l.013.017L5.4,0l5.373,8.332Z" transform="translate(0 0)" fill="#ff6148"/>
    </g>
    <path id="Trazado_817631" data-name="Trazado 817631" d="M-7403.916-8275.68h-2v-246.367h-185.258v-2h187.258Z" transform="translate(-1058.084 484.68)" fill="#ff6148"/>
    <g id="Grupo_1070811" data-name="Grupo 1070811" transform="translate(-8795.214 -8071.462)">
      <text id="Router" transform="translate(9.907 38.167)" fill="#12263f" font-size="14" font-family="SegoeUI-Italic, Segoe UI" font-style="italic"><tspan x="0" y="0">Router</tspan></text>
      <path id="router-de-wifi_5_" data-name="router-de-wifi (5)" d="M76.522,79.734H42.248V57.244a4.2,4.2,0,1,0-2.544,0v22.49H5.429A1.932,1.932,0,0,0,3.5,81.663V96.126a1.932,1.932,0,0,0,1.929,1.929H8.671v1.823a.445.445,0,0,0,.445.445h4.97a.445.445,0,0,0,.445-.445V98.055H67.42v1.823a.445.445,0,0,0,.445.445h4.97a.445.445,0,0,0,.445-.445V98.055h3.242a1.932,1.932,0,0,0,1.929-1.929V81.663a1.932,1.932,0,0,0-1.929-1.929ZM37.668,53.243a3.308,3.308,0,1,1,3.308,3.308,3.308,3.308,0,0,1-3.308-3.308Zm2.926,4.18c.126.011.252.018.382.018s.256-.007.382-.018V79.734h-.763ZM13.641,99.433H9.562V98.055h4.079Zm58.749,0H68.311V98.055H72.39Zm5.171-3.308a1.04,1.04,0,0,1-1.039,1.039H5.429a1.04,1.04,0,0,1-1.039-1.039V81.663a1.04,1.04,0,0,1,1.039-1.039H76.522a1.04,1.04,0,0,1,1.039,1.039Zm-9.7-11.943H49.608a.445.445,0,0,0-.445.445v8.317a.445.445,0,0,0,.445.445H67.865a.445.445,0,0,0,.445-.445V84.628A.445.445,0,0,0,67.865,84.183ZM67.42,92.5H50.053V85.073H67.42Zm-52.9-6.126A2.521,2.521,0,1,0,17.037,88.9,2.521,2.521,0,0,0,14.516,86.374Zm0,4.152A1.631,1.631,0,1,1,16.146,88.9a1.631,1.631,0,0,1-1.631,1.631ZM22.7,86.374A2.521,2.521,0,1,0,25.221,88.9,2.521,2.521,0,0,0,22.7,86.374Zm0,4.152A1.631,1.631,0,1,1,24.331,88.9,1.631,1.631,0,0,1,22.7,90.526Zm8.185-4.152A2.521,2.521,0,1,0,33.406,88.9,2.521,2.521,0,0,0,30.885,86.374Zm0,4.152a1.631,1.631,0,1,1,1.631-1.631,1.631,1.631,0,0,1-1.631,1.631Zm8.185-4.152A2.521,2.521,0,1,0,41.591,88.9a2.521,2.521,0,0,0-2.521-2.521Zm0,4.152A1.631,1.631,0,1,1,40.7,88.9a1.631,1.631,0,0,1-1.631,1.631ZM63.017,35.332a.445.445,0,1,1,.693-.559,29.387,29.387,0,0,1,0,36.941.445.445,0,1,1-.693-.559,28.5,28.5,0,0,0,0-35.822ZM58.4,39.055a.445.445,0,1,1,.693-.559,23.463,23.463,0,0,1,0,29.494.445.445,0,1,1-.693-.559,22.573,22.573,0,0,0,0-28.376Zm-4.62,24.652a16.649,16.649,0,0,0,0-20.929.445.445,0,1,1,.693-.559,17.54,17.54,0,0,1,0,22.048.445.445,0,1,1-.693-.56Zm-4.618-3.721a10.741,10.741,0,0,0,0-13.487.445.445,0,0,1,.693-.559,11.632,11.632,0,0,1,0,14.605.445.445,0,0,1-.693-.559ZM18.242,71.713a29.387,29.387,0,0,1,0-36.941.445.445,0,1,1,.693.559,28.5,28.5,0,0,0,0,35.822.445.445,0,1,1-.693.559Zm-.594-18.47A23.551,23.551,0,0,1,22.862,38.5a.445.445,0,1,1,.693.559,22.573,22.573,0,0,0,0,28.376.445.445,0,1,1-.693.559,23.553,23.553,0,0,1-5.213-14.747Zm5.937,0a17.606,17.606,0,0,1,3.9-11.024.445.445,0,1,1,.693.559,16.649,16.649,0,0,0,0,20.929.445.445,0,0,1-.693.56,17.606,17.606,0,0,1-3.9-11.024Zm8.515,7.3a11.632,11.632,0,0,1,0-14.605.445.445,0,1,1,.693.559,10.741,10.741,0,0,0,0,13.487.445.445,0,1,1-.693.559Z" transform="translate(62.668 -34.606)" fill="#12263f"/>
      <path id="router-de-wifi_5_-_Contorno" data-name="router-de-wifi (5) - Contorno" d="M72.835,100.474h-4.97a.6.6,0,0,1-.6-.6V98.205H14.681v1.673a.6.6,0,0,1-.6.6H9.116a.6.6,0,0,1-.6-.6V98.205H5.429A2.085,2.085,0,0,1,3.35,96.126V81.663a2.085,2.085,0,0,1,2.079-2.079H39.554V57.352a4.348,4.348,0,1,1,2.844,0V79.584H76.522A2.085,2.085,0,0,1,78.6,81.663V96.126a2.085,2.085,0,0,1-2.079,2.079H73.43v1.673A.6.6,0,0,1,72.835,100.474ZM14.381,97.905H67.57v1.973a.3.3,0,0,0,.3.3h4.97a.3.3,0,0,0,.3-.3V97.905h3.392a1.784,1.784,0,0,0,1.779-1.78V81.663a1.785,1.785,0,0,0-1.78-1.779H42.1V57.134l.1-.033a4.048,4.048,0,1,0-2.453,0l.1.033v22.75H5.429a1.785,1.785,0,0,0-1.779,1.78V96.126a1.785,1.785,0,0,0,1.78,1.779H8.821v1.973a.3.3,0,0,0,.3.3h4.97a.3.3,0,0,0,.3-.3ZM72.54,99.583H68.161V97.905H72.54Zm-4.079-.3H72.24V98.205H68.461Zm-54.67.3H9.412V97.905h4.379Zm-4.079-.3h3.779V98.205H9.712Zm66.811-1.969H5.429A1.192,1.192,0,0,1,4.24,96.126V81.663a1.192,1.192,0,0,1,1.189-1.189H76.522a1.192,1.192,0,0,1,1.189,1.189V96.126A1.192,1.192,0,0,1,76.522,97.315ZM5.43,80.774a.892.892,0,0,0-.889.889V96.126a.892.892,0,0,0,.889.889H76.522a.891.891,0,0,0,.889-.889V81.663a.892.892,0,0,0-.889-.889H5.43ZM67.865,93.54H49.608a.6.6,0,0,1-.6-.6V84.628a.6.6,0,0,1,.6-.6H67.865a.6.6,0,0,1,.6.6v8.317A.6.6,0,0,1,67.865,93.54ZM49.608,84.333a.3.3,0,0,0-.3.3v8.317a.3.3,0,0,0,.3.3H67.865a.3.3,0,0,0,.3-.3V84.628a.3.3,0,0,0-.3-.3ZM67.57,92.65H49.9V84.923H67.57ZM50.2,92.35H67.27V85.223H50.2ZM39.07,91.566a2.671,2.671,0,1,1,2.671-2.671A2.674,2.674,0,0,1,39.07,91.566Zm0-5.042A2.371,2.371,0,1,0,41.441,88.9,2.355,2.355,0,0,0,39.069,86.524Zm-8.184,5.042a2.671,2.671,0,1,1,2.671-2.671A2.674,2.674,0,0,1,30.885,91.566Zm0-5.042A2.371,2.371,0,1,0,33.256,88.9,2.373,2.373,0,0,0,30.885,86.524ZM22.7,91.566a2.671,2.671,0,1,1,2.671-2.671A2.674,2.674,0,0,1,22.7,91.566Zm0-5.042A2.371,2.371,0,1,0,25.071,88.9,2.355,2.355,0,0,0,22.7,86.524Zm-8.184,5.042a2.671,2.671,0,1,1,2.671-2.671A2.674,2.674,0,0,1,14.516,91.566Zm0-5.042A2.371,2.371,0,1,0,16.887,88.9,2.374,2.374,0,0,0,14.516,86.524ZM39.07,90.676a1.787,1.787,0,1,1,.15-.007v.006Zm0-3.261a1.481,1.481,0,0,0-.031,2.961h.03a1.48,1.48,0,1,0,0-2.961Zm-8.185,3.261a1.781,1.781,0,0,1,0-3.561h0a1.78,1.78,0,0,1,.15,3.554v.006Zm0-3.261a1.481,1.481,0,0,0-.031,2.961h.031a1.48,1.48,0,1,0,0-2.961ZM22.7,90.676a1.788,1.788,0,1,1,.147-.007v.006Zm0-3.261a1.481,1.481,0,0,0-.03,2.961h.03a1.48,1.48,0,1,0,0-2.961Zm-8.185,3.261a1.787,1.787,0,1,1,.15-.007v.006Zm0-3.261a1.481,1.481,0,0,0-.031,2.961h.03a1.48,1.48,0,1,0,0-2.961Zm26.992-7.531H40.444V57.259l.164.015a3.844,3.844,0,0,0,.736,0l.164-.015Zm-.763-.3h.463v-22a4.033,4.033,0,0,1-.463,0ZM18.416,72.168l-.291-.36a29.522,29.522,0,0,1,0-37.13.6.6,0,0,1,.926.748,28.5,28.5,0,0,0,0,35.634.6.6,0,0,1-.463.969A.6.6,0,0,1,18.407,72Zm-.14-.65.082.1a.3.3,0,1,0,.459-.371,28.632,28.632,0,0,1,0-36.011.3.3,0,0,0-.044-.415.3.3,0,0,0-.415.044A29.391,29.391,0,0,0,18.276,71.517Zm45.087.512a.6.6,0,0,1-.463-.969,28.5,28.5,0,0,0,0-35.634l-.033-.041v0a.6.6,0,0,1,.122-.792.6.6,0,0,1,.837.089,29.522,29.522,0,0,1,0,37.13A.593.593,0,0,1,63.363,72.03Zm-.2-36.75a28.632,28.632,0,0,1-.033,35.969.3.3,0,0,0,.044.415.3.3,0,0,0,.415-.044,29.39,29.39,0,0,0,0-36.753.3.3,0,1,0-.459.371ZM23.209,68.306a.593.593,0,0,1-.463-.221A23.787,23.787,0,0,1,17.5,53.39h0v-.147A23.783,23.783,0,0,1,22.745,38.4a.6.6,0,1,1,.926.748,22.54,22.54,0,0,0,0,28.187.6.6,0,0,1-.463.969ZM17.8,53.18v.063A23.483,23.483,0,0,0,22.979,67.9a.3.3,0,0,0,.459-.371,22.712,22.712,0,0,1,0-28.564.3.3,0,0,0-.044-.415.3.3,0,0,0-.415.044A23.482,23.482,0,0,0,17.8,53.18ZM58.743,68.306a.6.6,0,0,1-.463-.969,22.541,22.541,0,0,0,0-28.187.6.6,0,1,1,.926-.748,23.6,23.6,0,0,1,0,29.683A.593.593,0,0,1,58.743,68.306Zm0-29.826a.3.3,0,0,0-.229.481,22.712,22.712,0,0,1,0,28.564.3.3,0,1,0,.459.371,23.435,23.435,0,0,0,0-29.306A.294.294,0,0,0,58.743,38.48Zm-30.914,26.1a.593.593,0,0,1-.463-.221,17.819,17.819,0,0,1-3.93-10.969h0v-.15a17.817,17.817,0,0,1,3.931-11.118.6.6,0,1,1,.926.748,16.586,16.586,0,0,0,0,20.74.6.6,0,0,1-.463.969Zm-4.094-11.4v.06A17.516,17.516,0,0,0,27.6,64.173a.3.3,0,0,0,.459-.371,16.791,16.791,0,0,1,0-21.118.3.3,0,1,0-.459-.371A17.516,17.516,0,0,0,23.735,53.183Zm30.387,11.4a.6.6,0,0,1-.463-.969,16.586,16.586,0,0,0,0-20.74.6.6,0,1,1,.926-.748,17.681,17.681,0,0,1,0,22.236A.593.593,0,0,1,54.122,64.583Zm0-22.379a.3.3,0,0,0-.229.481,16.791,16.791,0,0,1,0,21.118.3.3,0,0,0,.044.415.3.3,0,0,0,.415-.044,17.481,17.481,0,0,0,0-21.859A.294.294,0,0,0,54.122,42.2ZM49.5,60.862a.6.6,0,0,1-.463-.969,10.65,10.65,0,0,0,0-13.3.6.6,0,1,1,.927-.747,11.782,11.782,0,0,1,0,14.794A.593.593,0,0,1,49.5,60.862Zm0-14.937a.3.3,0,0,0-.23.481,10.891,10.891,0,0,1,0,13.676.3.3,0,1,0,.46.371,11.546,11.546,0,0,0,0-14.417A.294.294,0,0,0,49.5,45.925ZM32.446,60.861a.593.593,0,0,1-.464-.222,11.782,11.782,0,0,1,0-14.794.6.6,0,1,1,.927.747,10.65,10.65,0,0,0,0,13.3.6.6,0,0,1-.463.969Zm0-14.937a.294.294,0,0,0-.23.11,11.546,11.546,0,0,0,0,14.417.3.3,0,1,0,.46-.371,10.891,10.891,0,0,1,0-13.676.3.3,0,0,0-.044-.415A.292.292,0,0,0,32.446,45.924ZM40.976,56.7a3.458,3.458,0,1,1,3.458-3.458A3.467,3.467,0,0,1,40.976,56.7Zm0-6.615a3.158,3.158,0,1,0,3.158,3.158A3.161,3.161,0,0,0,40.976,50.085Z" transform="translate(62.668 -34.606)" fill="#12263f"/>
      <g id="ordenador-portatil_8_" data-name="ordenador-portatil (8)" transform="translate(152.827 116.777)">
        <g id="Grupo_1070731" data-name="Grupo 1070731" transform="translate(37.936 1.291)">
          <g id="Grupo_1070730" data-name="Grupo 1070730" transform="translate(0 0)">
            <path id="Trazado_817532" data-name="Trazado 817532" d="M252.823,95.99h-.013a.64.64,0,0,0-.639.645.649.649,0,1,0,.652-.645Z" transform="translate(-252.171 -95.99)" fill="#12263f"/>
          </g>
        </g>
        <g id="Grupo_1070733" data-name="Grupo 1070733" transform="translate(6.454 0)">
          <g id="Grupo_1070732" data-name="Grupo 1070732">
            <path id="Trazado_817533" data-name="Trazado 817533" d="M102.408,87.991H41.778A1.867,1.867,0,0,0,40,89.927v43.885a.6.6,0,1,0,1.189,0V89.927a.622.622,0,0,1,.594-.645h60.629a.623.623,0,0,1,.594.645v43.885a.6.6,0,1,0,1.188,0V89.927A1.867,1.867,0,0,0,102.408,87.991Z" transform="translate(-39.995 -87.991)" fill="#12263f"/>
          </g>
        </g>
        <g id="Grupo_1070735" data-name="Grupo 1070735" transform="translate(2.582 52.92)">
          <g id="Grupo_1070734" data-name="Grupo 1070734" transform="translate(0 0)">
            <path id="Trazado_817534" data-name="Trazado 817534" d="M87.34,415.954H16.6a.647.647,0,0,0,0,1.291H87.34a.647.647,0,0,0,0-1.291Z" transform="translate(-15.999 -415.954)" fill="#12263f"/>
          </g>
        </g>
        <g id="Grupo_1070737" data-name="Grupo 1070737" transform="translate(0 47.757)">
          <g id="Grupo_1070736" data-name="Grupo 1070736" transform="translate(0 0)">
            <path id="Trazado_817535" data-name="Trazado 817535" d="M76.5,383.957H45.178a.625.625,0,0,0-.6.645v.645H32.528V384.6a.625.625,0,0,0-.6-.645H.6a.625.625,0,0,0-.6.645v2.582a.625.625,0,0,0,.6.645.625.625,0,0,0,.6-.645v-1.936H31.323v.645a.625.625,0,0,0,.6.645H45.178a.625.625,0,0,0,.6-.645v-.645H75.9v1.936a.6.6,0,1,0,1.2,0V384.6A.625.625,0,0,0,76.5,383.957Z" transform="translate(0 -383.957)" fill="#12263f"/>
          </g>
        </g>
        <g id="Grupo_1070739" data-name="Grupo 1070739" transform="translate(9.035 2.581)">
          <g id="Grupo_1070738" data-name="Grupo 1070738" transform="translate(0 0)">
            <path id="Trazado_817536" data-name="Trazado 817536" d="M114.436,103.989H56.584a.619.619,0,0,0-.59.645v40.013a.619.619,0,0,0,.59.645h57.852a.619.619,0,0,0,.59-.645V104.634A.619.619,0,0,0,114.436,103.989ZM113.846,144H57.175V105.28h56.672Z" transform="translate(-55.994 -103.989)" fill="#12263f"/>
          </g>
        </g>
        <g id="Grupo_1070741" data-name="Grupo 1070741" transform="translate(0 50.339)">
          <g id="Grupo_1070740" data-name="Grupo 1070740">
            <path id="Trazado_817537" data-name="Trazado 817537" d="M3.228,402.537A1.938,1.938,0,0,1,1.292,400.6.645.645,0,0,0,0,400.6a3.23,3.23,0,0,0,3.227,3.227.645.645,0,1,0,0-1.291Z" transform="translate(-0.001 -399.955)" fill="#12263f"/>
          </g>
        </g>
        <g id="Grupo_1070743" data-name="Grupo 1070743" transform="translate(73.231 50.339)">
          <g id="Grupo_1070742" data-name="Grupo 1070742">
            <path id="Trazado_817538" data-name="Trazado 817538" d="M491.173,399.955a.645.645,0,0,0-.645.645,1.938,1.938,0,0,1-1.936,1.936.645.645,0,0,0,0,1.291,3.23,3.23,0,0,0,3.227-3.227A.645.645,0,0,0,491.173,399.955Z" transform="translate(-487.946 -399.955)" fill="#12263f"/>
          </g>
        </g>
        <g id="Grupo_1070745" data-name="Grupo 1070745" transform="translate(2.582 47.112)">
          <g id="Grupo_1070744" data-name="Grupo 1070744">
            <path id="Trazado_817539" data-name="Trazado 817539" d="M19.226,379.958H16.644a.645.645,0,1,0,0,1.291h2.581a.645.645,0,0,0,0-1.291Z" transform="translate(-15.999 -379.958)" fill="#12263f"/>
          </g>
        </g>
        <g id="Grupo_1070747" data-name="Grupo 1070747" transform="translate(7.745 47.112)">
          <g id="Grupo_1070746" data-name="Grupo 1070746">
            <path id="Trazado_817540" data-name="Trazado 817540" d="M51.222,379.958H48.64a.645.645,0,1,0,0,1.291h2.581a.645.645,0,1,0,0-1.291Z" transform="translate(-47.995 -379.958)" fill="#12263f"/>
          </g>
        </g>
        <g id="Grupo_1070749" data-name="Grupo 1070749" transform="translate(12.005 47.112)">
          <g id="Grupo_1070748" data-name="Grupo 1070748">
            <path id="Trazado_817541" data-name="Trazado 817541" d="M83.219,379.958H80.637a.645.645,0,1,0,0,1.291h2.581a.645.645,0,1,0,0-1.291Z" transform="translate(-79.992 -379.958)" fill="#12263f"/>
          </g>
        </g>
        <g id="Grupo_1070751" data-name="Grupo 1070751" transform="translate(16.807 47.112)">
          <g id="Grupo_1070750" data-name="Grupo 1070750">
            <path id="Trazado_817542" data-name="Trazado 817542" d="M115.215,379.958h-2.581a.645.645,0,1,0,0,1.291h2.581a.645.645,0,1,0,0-1.291Z" transform="translate(-111.988 -379.958)" fill="#12263f"/>
          </g>
        </g>
        <g id="Grupo_1070753" data-name="Grupo 1070753" transform="translate(21.609 47.112)">
          <g id="Grupo_1070752" data-name="Grupo 1070752">
            <path id="Trazado_817543" data-name="Trazado 817543" d="M147.212,379.958H144.63a.645.645,0,1,0,0,1.291h2.581a.645.645,0,0,0,0-1.291Z" transform="translate(-143.985 -379.958)" fill="#12263f"/>
          </g>
        </g>
        <g id="Grupo_1070755" data-name="Grupo 1070755" transform="translate(26.411 47.112)">
          <g id="Grupo_1070754" data-name="Grupo 1070754">
            <path id="Trazado_817544" data-name="Trazado 817544" d="M179.208,379.958h-2.581a.645.645,0,1,0,0,1.291h2.581a.645.645,0,1,0,0-1.291Z" transform="translate(-175.981 -379.958)" fill="#12263f"/>
          </g>
        </g>
        <g id="Grupo_1070757" data-name="Grupo 1070757" transform="translate(46.82 47.112)">
          <g id="Grupo_1070756" data-name="Grupo 1070756">
            <path id="Trazado_817545" data-name="Trazado 817545" d="M315.193,379.958h-2.581a.645.645,0,0,0,0,1.291h2.581a.645.645,0,0,0,0-1.291Z" transform="translate(-311.966 -379.958)" fill="#12263f"/>
          </g>
        </g>
        <g id="Grupo_1070759" data-name="Grupo 1070759" transform="translate(51.622 47.112)">
          <g id="Grupo_1070758" data-name="Grupo 1070758">
            <path id="Trazado_817546" data-name="Trazado 817546" d="M347.189,379.958h-2.581a.645.645,0,0,0,0,1.291h2.581a.645.645,0,1,0,0-1.291Z" transform="translate(-343.962 -379.958)" fill="#12263f"/>
          </g>
        </g>
        <g id="Grupo_1070761" data-name="Grupo 1070761" transform="translate(56.424 47.112)">
          <g id="Grupo_1070760" data-name="Grupo 1070760">
            <path id="Trazado_817547" data-name="Trazado 817547" d="M379.185,379.958H376.6a.645.645,0,1,0,0,1.291h2.581a.645.645,0,0,0,0-1.291Z" transform="translate(-375.958 -379.958)" fill="#12263f"/>
          </g>
        </g>
        <g id="Grupo_1070763" data-name="Grupo 1070763" transform="translate(61.226 47.112)">
          <g id="Grupo_1070762" data-name="Grupo 1070762">
            <path id="Trazado_817548" data-name="Trazado 817548" d="M411.181,379.958H408.6a.645.645,0,1,0,0,1.291h2.581a.645.645,0,1,0,0-1.291Z" transform="translate(-407.954 -379.958)" fill="#12263f"/>
          </g>
        </g>
        <g id="Grupo_1070765" data-name="Grupo 1070765" transform="translate(65.487 47.112)">
          <g id="Grupo_1070764" data-name="Grupo 1070764">
            <path id="Trazado_817549" data-name="Trazado 817549" d="M443.178,379.958H440.6a.645.645,0,1,0,0,1.291h2.581a.645.645,0,1,0,0-1.291Z" transform="translate(-439.951 -379.958)" fill="#12263f"/>
          </g>
        </g>
        <g id="Grupo_1070767" data-name="Grupo 1070767" transform="translate(70.65 47.112)">
          <g id="Grupo_1070766" data-name="Grupo 1070766">
            <path id="Trazado_817550" data-name="Trazado 817550" d="M475.175,379.958h-2.581a.645.645,0,0,0,0,1.291h2.581a.645.645,0,1,0,0-1.291Z" transform="translate(-471.948 -379.958)" fill="#12263f"/>
          </g>
        </g>
      </g>
      <g id="Layer_x0020_1" transform="translate(0 116.778)">
        <g id="_366214648" transform="translate(0 0)">
          <path id="_366215104" d="M15.281,37.031H5.257a4.188,4.188,0,0,1-4.185-4.184V18.738a4.188,4.188,0,0,1,4.185-4.185H49.344a4.188,4.188,0,0,1,4.185,4.185V32.846a4.188,4.188,0,0,1-4.185,4.184H39.321a.425.425,0,1,1,0-.849H49.344a3.34,3.34,0,0,0,3.337-3.335V18.738A3.341,3.341,0,0,0,49.344,15.4H5.257a3.341,3.341,0,0,0-3.337,3.336V32.846a3.339,3.339,0,0,0,3.337,3.335H15.281a.425.425,0,0,1,0,.849Z" transform="translate(-1.072 3.974)" fill="#12263f"/>
          <path id="_366215104_-_Contorno" data-name="_366215104 - Contorno" d="M15.281,37.181H5.257A4.339,4.339,0,0,1,.922,32.846V18.738A4.34,4.34,0,0,1,5.257,14.4H49.344a4.34,4.34,0,0,1,4.335,4.335V32.846a4.339,4.339,0,0,1-4.335,4.334H39.321a.575.575,0,1,1,0-1.149H49.344a3.189,3.189,0,0,0,3.187-3.185V18.738a3.19,3.19,0,0,0-3.187-3.186H5.257a3.19,3.19,0,0,0-3.187,3.186V32.846a3.189,3.189,0,0,0,3.187,3.185H15.281a.575.575,0,0,1,0,1.149ZM5.257,14.7a4.04,4.04,0,0,0-4.035,4.035V32.846A4.039,4.039,0,0,0,5.257,36.88H15.281a.275.275,0,0,0,0-.549H5.257a3.49,3.49,0,0,1-3.486-3.485V18.738a3.49,3.49,0,0,1,3.487-3.486H49.344a3.49,3.49,0,0,1,3.487,3.486V32.846a3.49,3.49,0,0,1-3.487,3.485H39.321a.275.275,0,1,0,0,.549H49.344a4.039,4.039,0,0,0,4.035-4.034V18.738A4.04,4.04,0,0,0,49.344,14.7Z" transform="translate(-1.072 3.974)" fill="#12263f"/>
          <path id="_366215560" d="M45.025,35.072a.425.425,0,0,1-.427-.424V28.4a5.832,5.832,0,0,0-5.825-5.827h-25.8A5.832,5.832,0,0,0,7.149,28.4v6.25a.424.424,0,1,1-.849,0V28.4a6.683,6.683,0,0,1,6.673-6.676h25.8A6.683,6.683,0,0,1,45.447,28.4v6.25A.424.424,0,0,1,45.025,35.072Z" transform="translate(0.355 5.932)" fill="#12263f"/>
          <path id="_366215560_-_Contorno" data-name="_366215560 - Contorno" d="M45.025,35.222a.576.576,0,0,1-.577-.574V28.4a5.682,5.682,0,0,0-5.675-5.677h-25.8A5.682,5.682,0,0,0,7.3,28.4v6.25a.574.574,0,1,1-1.149,0V28.4a6.832,6.832,0,0,1,6.823-6.826h25.8A6.832,6.832,0,0,1,45.6,28.4v6.25A.574.574,0,0,1,45.025,35.222Zm-32.051-12.8h25.8A5.983,5.983,0,0,1,44.748,28.4v6.25a.274.274,0,1,0,.549,0V28.4a6.532,6.532,0,0,0-6.523-6.526h-25.8A6.532,6.532,0,0,0,6.45,28.4v6.25a.27.27,0,0,0,.272.274A.276.276,0,0,0,7,34.648V28.4A5.983,5.983,0,0,1,12.973,22.421Z" transform="translate(0.355 5.932)" fill="#12263f"/>
          <path id="_366214984" d="M39.483,33.323a.425.425,0,0,1-.427-.424V30.726c0-.931-.591-1.747-1.262-1.747h-25.8c-.671,0-1.262.817-1.262,1.747V32.9a.424.424,0,1,1-.849,0V30.726a2.394,2.394,0,0,1,2.11-2.6h25.8a2.394,2.394,0,0,1,2.11,2.6V32.9a.424.424,0,0,1-.422.424Z" transform="translate(1.334 7.682)" fill="#12263f"/>
          <path id="_366214984_-_Contorno" data-name="_366214984 - Contorno" d="M39.483,33.473a.576.576,0,0,1-.577-.574V30.726c0-.836-.53-1.6-1.112-1.6h-25.8c-.582,0-1.112.761-1.112,1.6V32.9a.574.574,0,1,1-1.149,0V30.726a2.542,2.542,0,0,1,2.26-2.746h25.8a2.542,2.542,0,0,1,2.26,2.746V32.9A.574.574,0,0,1,39.483,33.473ZM11.995,28.828h25.8c.752,0,1.412.887,1.412,1.9V32.9a.274.274,0,1,0,.549,0V30.726a2.247,2.247,0,0,0-1.96-2.446h-25.8a2.247,2.247,0,0,0-1.96,2.446V32.9a.27.27,0,0,0,.272.274.276.276,0,0,0,.277-.274V30.726C10.583,29.715,11.242,28.828,11.995,28.828Z" transform="translate(1.334 7.682)" fill="#12263f"/>
          <path id="_366215152" d="M37.778,47.506H11.409a.435.435,0,0,1-.315-.137.426.426,0,0,1-.107-.322l1.519-18.527a.422.422,0,0,1,.458-.388.427.427,0,0,1,.391.457L11.872,46.657H37.316L35.832,28.588a.426.426,0,0,1,.849-.069L38.2,47.046a.43.43,0,0,1-.111.322.419.419,0,0,1-.311.137Z" transform="translate(1.635 7.682)" fill="#12263f"/>
          <path id="_366215152_-_Contorno" data-name="_366215152 - Contorno" d="M37.778,47.656H11.409a.585.585,0,0,1-.423-.183l-.005-.006a.574.574,0,0,1-.142-.438l1.519-18.523a.576.576,0,0,1,1.148.093L12.034,46.507H37.153L35.683,28.6a.578.578,0,0,1,.528-.619l.048,0a.575.575,0,0,1,.572.528L38.35,47.034a.581.581,0,0,1-.15.436.565.565,0,0,1-.422.186ZM11.2,47.267a.283.283,0,0,0,.2.089H37.778a.269.269,0,0,0,.2-.089.28.28,0,0,0,.072-.21L36.531,28.531a.271.271,0,0,0-.3-.251.277.277,0,0,0-.254.3l1.5,18.23H11.709l1.5-18.231a.277.277,0,0,0-.254-.3h-.024a.273.273,0,0,0-.271.251L11.137,47.058A.279.279,0,0,0,11.2,47.267Z" transform="translate(1.635 7.682)" fill="#12263f"/>
          <path id="_366214960" d="M28.267,32.193H14.987a.424.424,0,1,1,0-.849h13.28a.424.424,0,1,1,0,.849Z" transform="translate(2.611 8.56)" fill="#12263f"/>
          <path id="_366214960_-_Contorno" data-name="_366214960 - Contorno" d="M28.267,32.343H14.987a.574.574,0,1,1,0-1.149h13.28a.574.574,0,1,1,0,1.149Zm-13.28-.849a.274.274,0,1,0,0,.549h13.28a.274.274,0,1,0,0-.549Z" transform="translate(2.611 8.56)" fill="#12263f"/>
          <path id="_366214912" d="M30.528,34.9H14.987a.425.425,0,1,1,0-.849H30.528a.425.425,0,0,1,0,.849Z" transform="translate(2.611 9.299)" fill="#12263f"/>
          <path id="_366214912_-_Contorno" data-name="_366214912 - Contorno" d="M30.528,35.051H14.987a.575.575,0,1,1,0-1.149H30.528a.575.575,0,0,1,0,1.149ZM14.987,34.2a.275.275,0,1,0,0,.549H30.528a.275.275,0,0,0,0-.549Z" transform="translate(2.611 9.299)" fill="#12263f"/>
          <path id="_366215536" d="M26.543,37.608H14.987a.424.424,0,1,1,0-.849H26.543a.424.424,0,1,1,0,.849Z" transform="translate(2.611 10.039)" fill="#12263f"/>
          <path id="_366215536_-_Contorno" data-name="_366215536 - Contorno" d="M26.543,37.758H14.987a.574.574,0,1,1,0-1.149H26.543a.574.574,0,1,1,0,1.149ZM14.987,36.91a.274.274,0,1,0,0,.549H26.543a.274.274,0,1,0,0-.549Z" transform="translate(2.611 10.039)" fill="#12263f"/>
          <path id="_366214120" d="M32.248,40.315H14.987a.425.425,0,1,1,0-.849H32.248a.425.425,0,1,1,0,.849Z" transform="translate(2.611 10.778)" fill="#12263f"/>
          <path id="_366214120_-_Contorno" data-name="_366214120 - Contorno" d="M32.248,40.465H14.987a.575.575,0,1,1,0-1.149H32.248a.575.575,0,1,1,0,1.149Zm-17.261-.849a.275.275,0,1,0,0,.549H32.248a.275.275,0,1,0,0-.549Z" transform="translate(2.611 10.778)" fill="#12263f"/>
          <path id="_366214456" d="M5.407,17.94a.907.907,0,1,0,.906.907.91.91,0,0,0-.906-.907Zm0,2.664a1.756,1.756,0,1,1,1.755-1.757A1.761,1.761,0,0,1,5.407,20.6Z" transform="translate(-0.369 4.667)" fill="#12263f"/>
          <path id="_366214456_-_Contorno" data-name="_366214456 - Contorno" d="M5.407,16.941A1.906,1.906,0,1,1,3.5,18.847,1.908,1.908,0,0,1,5.407,16.941Zm0,3.513A1.606,1.606,0,1,0,3.8,18.847,1.608,1.608,0,0,0,5.407,20.454Zm0-2.664a1.057,1.057,0,1,1-1.061,1.057A1.058,1.058,0,0,1,5.407,17.79Zm0,1.815a.757.757,0,1,0-.761-.758A.758.758,0,0,0,5.407,19.605Z" transform="translate(-0.369 4.667)" fill="#12263f"/>
          <path id="_366214336" d="M9.831,17.94a.907.907,0,1,0,.906.907A.906.906,0,0,0,9.831,17.94Zm0,2.664a1.756,1.756,0,1,1,1.759-1.757A1.757,1.757,0,0,1,9.831,20.6Z" transform="translate(0.841 4.667)" fill="#12263f"/>
          <path id="_366214336_-_Contorno" data-name="_366214336 - Contorno" d="M9.831,16.941a1.906,1.906,0,1,1-1.9,1.906A1.91,1.91,0,0,1,9.831,16.941Zm0,3.513a1.606,1.606,0,1,0-1.6-1.607A1.61,1.61,0,0,0,9.831,20.454Zm0-2.664a1.057,1.057,0,1,1-1.056,1.057A1.058,1.058,0,0,1,9.831,17.79Zm0,1.815a.757.757,0,1,0-.756-.758A.758.758,0,0,0,9.831,19.605Z" transform="translate(0.841 4.667)" fill="#12263f"/>
          <path id="_366214432" d="M14.261,17.94a.907.907,0,1,0,.906.907A.91.91,0,0,0,14.261,17.94Zm0,2.664a1.756,1.756,0,1,1,1.755-1.757A1.758,1.758,0,0,1,14.261,20.6Z" transform="translate(2.049 4.667)" fill="#12263f"/>
          <path id="_366214432_-_Contorno" data-name="_366214432 - Contorno" d="M14.261,16.941a1.906,1.906,0,1,1-1.909,1.906A1.908,1.908,0,0,1,14.261,16.941Zm0,3.513a1.606,1.606,0,1,0-1.609-1.607A1.608,1.608,0,0,0,14.261,20.454Zm0-2.664A1.057,1.057,0,1,1,13.2,18.847,1.058,1.058,0,0,1,14.261,17.79Zm0,1.815a.757.757,0,1,0-.761-.758A.758.758,0,0,0,14.261,19.605Z" transform="translate(2.049 4.667)" fill="#12263f"/>
          <path id="_366214264" d="M39.74,17.727h-4.1a.425.425,0,1,1,0-.849h4.1a.425.425,0,1,1,0,.849Z" transform="translate(8.252 4.609)" fill="#12263f"/>
          <path id="_366214264_-_Contorno" data-name="_366214264 - Contorno" d="M39.74,17.877h-4.1a.575.575,0,1,1,0-1.149h4.1a.575.575,0,1,1,0,1.149Zm-4.1-.849a.275.275,0,1,0,0,.549h4.1a.275.275,0,1,0,0-.549Z" transform="translate(8.252 4.609)" fill="#12263f"/>
          <path id="_366214480" d="M39.74,20.246h-4.1a.425.425,0,1,1,0-.849h4.1a.425.425,0,1,1,0,.849Z" transform="translate(8.252 5.297)" fill="#12263f"/>
          <path id="_366214480_-_Contorno" data-name="_366214480 - Contorno" d="M39.74,20.4h-4.1a.575.575,0,1,1,0-1.149h4.1a.575.575,0,1,1,0,1.149Zm-4.1-.849a.275.275,0,1,0,0,.549h4.1a.275.275,0,1,0,0-.549Z" transform="translate(8.252 5.297)" fill="#12263f"/>
          <path id="_366214216" d="M35.954,19.376a.422.422,0,0,1-.422-.425V.849h-22.5v18.1a.424.424,0,1,1-.849,0V.425A.425.425,0,0,1,12.6,0H35.954a.426.426,0,0,1,.426.425V18.952a.426.426,0,0,1-.426.425Z" transform="translate(1.961 0)" fill="#12263f"/>
          <path id="_366214216_-_Contorno" data-name="_366214216 - Contorno" d="M35.954,19.526a.574.574,0,0,1-.572-.575V1h-22.2V18.952a.574.574,0,1,1-1.149,0V.425A.574.574,0,0,1,12.6-.15H35.954a.576.576,0,0,1,.576.575V18.952A.576.576,0,0,1,35.954,19.526ZM12.879.7h22.8V18.952a.271.271,0,0,0,.272.275.276.276,0,0,0,.276-.275V.425A.276.276,0,0,0,35.954.15H12.6a.274.274,0,0,0-.272.275V18.952a.274.274,0,1,0,.549,0Z" transform="translate(1.961 0)" fill="#12263f"/>
        </g>
      </g>
      <g id="_x35__x2C__cellular_x2C__Mobile_x2C__phone_x2C__smartphone" transform="translate(88.388 114.746)">
        <g id="XMLID_302_" transform="translate(0 0)">
          <g id="XMLID_303_" transform="translate(0 0)">
            <g id="XMLID_319_">
              <path id="XMLID_320_" d="M152.634,81.187H130.559A4.564,4.564,0,0,1,126,76.628V30.559A4.564,4.564,0,0,1,130.559,26h22.075a4.564,4.564,0,0,1,4.559,4.559V76.628A4.564,4.564,0,0,1,152.634,81.187ZM130.559,27.2a3.363,3.363,0,0,0-3.359,3.359V76.628a3.363,3.363,0,0,0,3.359,3.359h22.075a3.363,3.363,0,0,0,3.359-3.359V30.559a3.363,3.363,0,0,0-3.359-3.359Z" transform="translate(-126 -26)" fill="#12263f"/>
            </g>
            <g id="XMLID_314_" transform="translate(13.384 47.989)">
              <g id="XMLID_315_">
                <path id="XMLID_316_" d="M239.77,430.425a2.213,2.213,0,1,1,2.213-2.213A2.215,2.215,0,0,1,239.77,430.425Zm0-3.226a1.013,1.013,0,1,0,1.013,1.013A1.014,1.014,0,0,0,239.77,427.2Z" transform="translate(-237.557 -426)" fill="#12263f"/>
              </g>
            </g>
            <g id="XMLID_312_" transform="translate(0 45.349)">
              <path id="XMLID_53_" d="M156.593,405.2H126.6a.6.6,0,1,1,0-1.2h29.993a.6.6,0,1,1,0,1.2Z" transform="translate(-126 -404)" fill="#12263f"/>
            </g>
            <g id="XMLID_310_" transform="translate(0 7.198)">
              <path id="XMLID_52_" d="M156.593,87.2H126.6a.6.6,0,1,1,0-1.2h29.993a.6.6,0,1,1,0,1.2Z" transform="translate(-126 -86)" fill="#12263f"/>
            </g>
            <g id="XMLID_306_" transform="translate(8.788 16.703)">
              <path id="XMLID_46_" d="M199.85,179.351a.6.6,0,0,1-.424-1.024L212.353,165.4a.6.6,0,1,1,.848.848l-12.927,12.927A.6.6,0,0,1,199.85,179.351Z" transform="translate(-199.25 -165.224)" fill="#12263f"/>
            </g>
            <g id="XMLID_304_" transform="translate(8.138 26.78)">
              <path id="XMLID_42_" d="M194.433,259.041a.6.6,0,0,1-.424-1.024l8.618-8.618a.6.6,0,1,1,.848.848l-8.618,8.618A.6.6,0,0,1,194.433,259.041Z" transform="translate(-193.833 -249.223)" fill="#12263f"/>
            </g>
          </g>
        </g>
      </g>
      <g id="Grupo_1070796" data-name="Grupo 1070796" transform="translate(18.756 72.995)">
        <path id="Trazado_817633" data-name="Trazado 817633" d="M-7246.471-8591.761a1.006,1.006,0,0,1-.423-.094l-83.811-39.21v33.155a1,1,0,0,1-1,1,1,1,0,0,1-1-1v-34.728a1,1,0,0,1,.463-.844,1,1,0,0,1,.96-.062l85.234,39.876a1,1,0,0,1,.482,1.33A1,1,0,0,1-7246.471-8591.761Z" transform="translate(7416.939 8632.637)" fill="#ff6148"/>
        <path id="Trazado_817634" data-name="Trazado 817634" d="M-7331.7-8591.761a1,1,0,0,1-.906-.576,1,1,0,0,1,.482-1.33l85.234-39.876a1,1,0,0,1,.96.063,1,1,0,0,1,.463.844v34.728a1,1,0,0,1-1,1,1,1,0,0,1-1-1v-33.155l-83.811,39.21A1.006,1.006,0,0,1-7331.7-8591.761Z" transform="translate(7331.705 8632.637)" fill="#ff6148"/>
      </g>
    </g>
    <g id="Grupo_1076236" data-name="Grupo 1076236" transform="translate(1 364)">
      <text id="Switches" transform="translate(-8449.313 -8101.295)" fill="#12263f" font-size="14" font-family="SegoeUI-Italic, Segoe UI" font-style="italic"><tspan x="0" y="0">Switches</tspan></text>
      <g id="Grupo_1070791" data-name="Grupo 1070791" transform="translate(-8536.524 -8138.988)">
        <g id="Grupo_1070769" data-name="Grupo 1070769" transform="translate(0)">
          <g id="centro">
            <path id="Trazado_817482" data-name="Trazado 817482" d="M76.764,63.227v-23.9a1.8,1.8,0,0,0-1.914-1.649H1.914A1.8,1.8,0,0,0,0,39.327v23.9a1.8,1.8,0,0,0,1.914,1.649H74.85A1.8,1.8,0,0,0,76.764,63.227Zm-75.565,0v-23.9a.672.672,0,0,1,.715-.616H74.85a.672.672,0,0,1,.715.616v23.9a.672.672,0,0,1-.715.616H1.914a.672.672,0,0,1-.715-.616Z" transform="translate(0 -37.678)" fill="#12263f"/>
            <path id="Trazado_817482_-_Contorno" data-name="Trazado 817482 - Contorno" d="M74.85,64.926H1.914a1.855,1.855,0,0,1-1.964-1.7v-23.9a1.855,1.855,0,0,1,1.964-1.7H74.85a1.855,1.855,0,0,1,1.964,1.7v23.9A1.855,1.855,0,0,1,74.85,64.926ZM1.914,37.728a1.755,1.755,0,0,0-1.864,1.6v23.9a1.755,1.755,0,0,0,1.864,1.6H74.85a1.755,1.755,0,0,0,1.864-1.6v-23.9a1.755,1.755,0,0,0-1.864-1.6ZM74.85,63.893H1.914a.723.723,0,0,1-.765-.666v-23.9a.723.723,0,0,1,.765-.666H74.85a.723.723,0,0,1,.765.666v23.9A.723.723,0,0,1,74.85,63.893ZM1.914,38.761a.624.624,0,0,0-.665.566v23.9a.624.624,0,0,0,.665.566H74.85a.624.624,0,0,0,.665-.566v-23.9a.624.624,0,0,0-.665-.566H1.914Z" transform="translate(0 -37.678)" fill="#12263f"/>
            <path id="Trazado_817483" data-name="Trazado 817483" d="M75.489,48.41H19.855a.59.59,0,0,0-.635.53V64.4a.59.59,0,0,0,.635.53H75.489a.59.59,0,0,0,.635-.53V48.94A.59.59,0,0,0,75.489,48.41Zm-.635,15.457H20.491v-14.4H74.854Z" transform="translate(-9.29 -43.069)" fill="#12263f"/>
            <path id="Trazado_817483_-_Contorno" data-name="Trazado 817483 - Contorno" d="M19.855,48.36H75.489a.64.64,0,0,1,.685.58V64.4a.64.64,0,0,1-.685.58H19.855a.64.64,0,0,1-.685-.58V48.94A.64.64,0,0,1,19.855,48.36ZM75.489,64.877a.541.541,0,0,0,.585-.48V48.94a.541.541,0,0,0-.585-.48H19.855a.541.541,0,0,0-.585.48V64.4a.541.541,0,0,0,.585.48ZM20.441,49.419H74.9v14.5H20.441Zm54.363.1H20.541v14.3H74.8Z" transform="translate(-9.29 -43.069)" fill="#12263f"/>
            <path id="Trazado_817484" data-name="Trazado 817484" d="M115.585,60.394a1.863,1.863,0,1,0,1.864,1.863,1.863,1.863,0,0,0-1.864-1.863Zm0,2.693a.83.83,0,1,1,.83-.83.83.83,0,0,1-.83.83Z" transform="translate(-44.335 -48.658)" fill="#12263f"/>
            <path id="Trazado_817484_-_Contorno" data-name="Trazado 817484 - Contorno" d="M115.585,60.344h0a1.913,1.913,0,1,1-1.913,1.913A1.918,1.918,0,0,1,115.585,60.344Zm0,3.726a1.813,1.813,0,1,0,0-3.626h0a1.813,1.813,0,0,0,0,3.626Zm0-2.693a.88.88,0,1,1,0,1.759h0a.88.88,0,0,1,0-1.759Zm0,1.659a.78.78,0,1,0-.779-.78A.781.781,0,0,0,115.585,63.037Z" transform="translate(-44.335 -48.658)" fill="#12263f"/>
            <path id="Trazado_817485" data-name="Trazado 817485" d="M8.93,60.394a1.863,1.863,0,1,0,1.863,1.863A1.863,1.863,0,0,0,8.93,60.394Zm0,2.693a.83.83,0,1,1,.83-.83A.83.83,0,0,1,8.93,63.087Z" transform="translate(-3.416 -48.658)" fill="#12263f"/>
            <path id="Trazado_817485_-_Contorno" data-name="Trazado 817485 - Contorno" d="M8.93,60.344h0a1.913,1.913,0,1,1-1.913,1.913A1.919,1.919,0,0,1,8.93,60.344Zm0,3.726a1.813,1.813,0,1,0-1.813-1.813A1.815,1.815,0,0,0,8.93,64.07Zm0-2.693a.88.88,0,0,1,0,1.759h0a.88.88,0,0,1,0-1.759Zm0,1.659a.78.78,0,1,0-.78-.78.782.782,0,0,0,.78.78Z" transform="translate(-3.416 -48.658)" fill="#12263f"/>
            <path id="Trazado_817486" data-name="Trazado 817486" d="M26.133,61.072h.939V62.4a.517.517,0,0,0,.517.517h.766v.9a.517.517,0,0,0,.517.517h3a.517.517,0,0,0,.517-.517v-.9h.765a.517.517,0,0,0,.517-.517V61.072h.94a.517.517,0,0,0,.517-.517V54.468a.517.517,0,0,0-.517-.517H26.133a.517.517,0,0,0-.517.517v6.088A.517.517,0,0,0,26.133,61.072Zm.517-6.088h7.44v5.055h-.942a.517.517,0,0,0-.517.517v1.331h-.765a.517.517,0,0,0-.517.517v.9H29.385v-.9a.517.517,0,0,0-.517-.517h-.764V60.556a.517.517,0,0,0-.517-.517h-.939Z" transform="translate(-9.896 -45.544)" fill="#12263f"/>
            <path id="Trazado_817486_-_Contorno" data-name="Trazado 817486 - Contorno" d="M31.867,64.385h-3a.567.567,0,0,1-.567-.567v-.848h-.716a.567.567,0,0,1-.567-.567V61.122h-.889a.567.567,0,0,1-.567-.567V54.468a.567.567,0,0,1,.567-.567h8.473a.567.567,0,0,1,.567.567v6.088a.567.567,0,0,1-.567.567h-.89V62.4a.567.567,0,0,1-.567.567h-.715v.848A.567.567,0,0,1,31.867,64.385ZM26.133,54a.467.467,0,0,0-.467.467v6.088a.467.467,0,0,0,.467.467h.989V62.4a.467.467,0,0,0,.467.467H28.4v.948a.467.467,0,0,0,.467.467h3a.467.467,0,0,0,.467-.467v-.948h.815a.467.467,0,0,0,.467-.467V61.022h.99a.467.467,0,0,0,.467-.467V54.468A.467.467,0,0,0,34.606,54ZM31.4,63.352H29.335V62.4a.467.467,0,0,0-.467-.467h-.814V60.556a.467.467,0,0,0-.467-.467H26.6V54.934h7.54v5.155h-.992a.467.467,0,0,0-.467.467v1.381h-.815a.467.467,0,0,0-.467.467Zm-1.963-.1H31.3V62.4a.567.567,0,0,1,.567-.567h.715V60.556a.567.567,0,0,1,.567-.567h.892V55.034H26.7v4.955h.889a.567.567,0,0,1,.567.567v1.281h.714a.567.567,0,0,1,.567.567Z" transform="translate(-9.896 -45.544)" fill="#12263f"/>
            <path id="Trazado_817487" data-name="Trazado 817487" d="M55.317,61.072h.94V62.4a.517.517,0,0,0,.517.517h.765v.9a.517.517,0,0,0,.517.517h3a.517.517,0,0,0,.517-.517v-.9h.765a.517.517,0,0,0,.517-.517V61.072h.94a.517.517,0,0,0,.517-.517V54.468a.517.517,0,0,0-.517-.517H55.317a.517.517,0,0,0-.517.517v6.088a.517.517,0,0,0,.517.517Zm.517-6.088h7.44v5.055h-.94a.517.517,0,0,0-.517.517v1.331h-.765a.517.517,0,0,0-.517.517v.9H58.572v-.9a.517.517,0,0,0-.517-.517H57.29V60.556a.517.517,0,0,0-.517-.517h-.94Z" transform="translate(-21.171 -45.544)" fill="#12263f"/>
            <path id="Trazado_817487_-_Contorno" data-name="Trazado 817487 - Contorno" d="M61.051,64.385h-3a.567.567,0,0,1-.567-.567v-.848h-.715a.567.567,0,0,1-.567-.567V61.122h-.89a.567.567,0,0,1-.567-.567V54.468a.567.567,0,0,1,.567-.567H63.79a.567.567,0,0,1,.567.567v6.088a.567.567,0,0,1-.567.567H62.9V62.4a.567.567,0,0,1-.567.567h-.715v.848A.567.567,0,0,1,61.051,64.385ZM55.317,54a.467.467,0,0,0-.467.467v6.088a.467.467,0,0,0,.467.467h.99V62.4a.467.467,0,0,0,.467.467h.815v.948a.467.467,0,0,0,.467.467h3a.467.467,0,0,0,.467-.467v-.948h.815A.467.467,0,0,0,62.8,62.4V61.022h.99a.467.467,0,0,0,.467-.467V54.468A.467.467,0,0,0,63.79,54Zm5.268,9.351H58.522V62.4a.467.467,0,0,0-.467-.467H57.24V60.556a.467.467,0,0,0-.467-.467h-.99V54.934h7.54v5.155h-.99a.467.467,0,0,0-.467.467v1.381h-.815a.467.467,0,0,0-.467.467Zm-1.963-.1h1.863V62.4a.567.567,0,0,1,.567-.567h.715V60.556a.567.567,0,0,1,.567-.567h.89V55.034h-7.34v4.955h.89a.567.567,0,0,1,.567.567v1.281h.715a.567.567,0,0,1,.567.567Z" transform="translate(-21.171 -45.544)" fill="#12263f"/>
            <path id="Trazado_817488" data-name="Trazado 817488" d="M84.5,61.072h.94V62.4a.517.517,0,0,0,.517.517h.765v.9a.517.517,0,0,0,.517.517h3a.517.517,0,0,0,.517-.517v-.9h.766a.517.517,0,0,0,.517-.517V61.072h.939a.517.517,0,0,0,.517-.517V54.468a.517.517,0,0,0-.517-.517H84.5a.517.517,0,0,0-.517.517v6.088a.517.517,0,0,0,.517.517Zm.517-6.088h7.44v5.055H91.52a.517.517,0,0,0-.517.517v1.331h-.766a.517.517,0,0,0-.517.517v.9H87.757v-.9a.517.517,0,0,0-.517-.517h-.763V60.556a.517.517,0,0,0-.517-.517h-.94Z" transform="translate(-32.447 -45.544)" fill="#12263f"/>
            <path id="Trazado_817488_-_Contorno" data-name="Trazado 817488 - Contorno" d="M90.239,64.385h-3a.567.567,0,0,1-.567-.567v-.848h-.715a.567.567,0,0,1-.567-.567V61.122H84.5a.567.567,0,0,1-.567-.567V54.468A.567.567,0,0,1,84.5,53.9h8.473a.567.567,0,0,1,.567.567v6.088a.567.567,0,0,1-.567.567h-.889V62.4a.567.567,0,0,1-.567.567h-.716v.848A.567.567,0,0,1,90.239,64.385ZM84.5,54a.467.467,0,0,0-.467.467v6.088a.467.467,0,0,0,.467.467h.99V62.4a.467.467,0,0,0,.467.467h.815v.948a.467.467,0,0,0,.467.467h3a.467.467,0,0,0,.467-.467v-.948h.816a.467.467,0,0,0,.467-.467V61.022h.989a.467.467,0,0,0,.467-.467V54.468A.467.467,0,0,0,92.978,54Zm5.266,9.351H87.707V62.4a.467.467,0,0,0-.467-.467h-.813V60.556a.467.467,0,0,0-.467-.467h-.99V54.934h7.54v5.155H91.52a.467.467,0,0,0-.467.467v1.381h-.816a.467.467,0,0,0-.467.467Zm-1.963-.1h1.863V62.4a.567.567,0,0,1,.567-.567h.716V60.556a.567.567,0,0,1,.567-.567h.891V55.034h-7.34v4.955h.89a.567.567,0,0,1,.567.567v1.281h.713a.567.567,0,0,1,.567.567Z" transform="translate(-32.447 -45.544)" fill="#12263f"/>
          </g>
          <g id="centro-2" data-name="centro" transform="translate(0 36.877)">
            <path id="Trazado_817482-2" data-name="Trazado 817482" d="M76.764,63.227v-23.9a1.8,1.8,0,0,0-1.914-1.649H1.914A1.8,1.8,0,0,0,0,39.327v23.9a1.8,1.8,0,0,0,1.914,1.649H74.85A1.8,1.8,0,0,0,76.764,63.227Zm-75.565,0v-23.9a.672.672,0,0,1,.715-.616H74.85a.672.672,0,0,1,.715.616v23.9a.672.672,0,0,1-.715.616H1.914a.672.672,0,0,1-.715-.616Z" transform="translate(0 -37.678)" fill="#12263f"/>
            <path id="Trazado_817482_-_Contorno-2" data-name="Trazado 817482 - Contorno" d="M74.85,64.926H1.914a1.855,1.855,0,0,1-1.964-1.7v-23.9a1.855,1.855,0,0,1,1.964-1.7H74.85a1.855,1.855,0,0,1,1.964,1.7v23.9A1.855,1.855,0,0,1,74.85,64.926ZM1.914,37.728a1.755,1.755,0,0,0-1.864,1.6v23.9a1.755,1.755,0,0,0,1.864,1.6H74.85a1.755,1.755,0,0,0,1.864-1.6v-23.9a1.755,1.755,0,0,0-1.864-1.6ZM74.85,63.893H1.914a.723.723,0,0,1-.765-.666v-23.9a.723.723,0,0,1,.765-.666H74.85a.723.723,0,0,1,.765.666v23.9A.723.723,0,0,1,74.85,63.893ZM1.914,38.761a.624.624,0,0,0-.665.566v23.9a.624.624,0,0,0,.665.566H74.85a.624.624,0,0,0,.665-.566v-23.9a.624.624,0,0,0-.665-.566H1.914Z" transform="translate(0 -37.678)" fill="#12263f"/>
            <path id="Trazado_817483-2" data-name="Trazado 817483" d="M75.489,48.41H19.855a.59.59,0,0,0-.635.53V64.4a.59.59,0,0,0,.635.53H75.489a.59.59,0,0,0,.635-.53V48.94A.59.59,0,0,0,75.489,48.41Zm-.635,15.457H20.491v-14.4H74.854Z" transform="translate(-9.29 -43.069)" fill="#12263f"/>
            <path id="Trazado_817483_-_Contorno-2" data-name="Trazado 817483 - Contorno" d="M19.855,48.36H75.489a.64.64,0,0,1,.685.58V64.4a.64.64,0,0,1-.685.58H19.855a.64.64,0,0,1-.685-.58V48.94A.64.64,0,0,1,19.855,48.36ZM75.489,64.877a.541.541,0,0,0,.585-.48V48.94a.541.541,0,0,0-.585-.48H19.855a.541.541,0,0,0-.585.48V64.4a.541.541,0,0,0,.585.48ZM20.441,49.419H74.9v14.5H20.441Zm54.363.1H20.541v14.3H74.8Z" transform="translate(-9.29 -43.069)" fill="#12263f"/>
            <path id="Trazado_817484-2" data-name="Trazado 817484" d="M115.585,60.394a1.863,1.863,0,1,0,1.864,1.863,1.863,1.863,0,0,0-1.864-1.863Zm0,2.693a.83.83,0,1,1,.83-.83.83.83,0,0,1-.83.83Z" transform="translate(-44.335 -48.658)" fill="#12263f"/>
            <path id="Trazado_817484_-_Contorno-2" data-name="Trazado 817484 - Contorno" d="M115.585,60.344h0a1.913,1.913,0,1,1-1.913,1.913A1.918,1.918,0,0,1,115.585,60.344Zm0,3.726a1.813,1.813,0,1,0,0-3.626h0a1.813,1.813,0,0,0,0,3.626Zm0-2.693a.88.88,0,1,1,0,1.759h0a.88.88,0,0,1,0-1.759Zm0,1.659a.78.78,0,1,0-.779-.78A.781.781,0,0,0,115.585,63.037Z" transform="translate(-44.335 -48.658)" fill="#12263f"/>
            <path id="Trazado_817485-2" data-name="Trazado 817485" d="M8.93,60.394a1.863,1.863,0,1,0,1.863,1.863A1.863,1.863,0,0,0,8.93,60.394Zm0,2.693a.83.83,0,1,1,.83-.83A.83.83,0,0,1,8.93,63.087Z" transform="translate(-3.416 -48.658)" fill="#12263f"/>
            <path id="Trazado_817485_-_Contorno-2" data-name="Trazado 817485 - Contorno" d="M8.93,60.344h0a1.913,1.913,0,1,1-1.913,1.913A1.919,1.919,0,0,1,8.93,60.344Zm0,3.726a1.813,1.813,0,1,0-1.813-1.813A1.815,1.815,0,0,0,8.93,64.07Zm0-2.693a.88.88,0,0,1,0,1.759h0a.88.88,0,0,1,0-1.759Zm0,1.659a.78.78,0,1,0-.78-.78.782.782,0,0,0,.78.78Z" transform="translate(-3.416 -48.658)" fill="#12263f"/>
            <path id="Trazado_817486-2" data-name="Trazado 817486" d="M26.133,61.072h.939V62.4a.517.517,0,0,0,.517.517h.766v.9a.517.517,0,0,0,.517.517h3a.517.517,0,0,0,.517-.517v-.9h.765a.517.517,0,0,0,.517-.517V61.072h.94a.517.517,0,0,0,.517-.517V54.468a.517.517,0,0,0-.517-.517H26.133a.517.517,0,0,0-.517.517v6.088A.517.517,0,0,0,26.133,61.072Zm.517-6.088h7.44v5.055h-.942a.517.517,0,0,0-.517.517v1.331h-.765a.517.517,0,0,0-.517.517v.9H29.385v-.9a.517.517,0,0,0-.517-.517h-.764V60.556a.517.517,0,0,0-.517-.517h-.939Z" transform="translate(-9.896 -45.544)" fill="#12263f"/>
            <path id="Trazado_817486_-_Contorno-2" data-name="Trazado 817486 - Contorno" d="M31.867,64.385h-3a.567.567,0,0,1-.567-.567v-.848h-.716a.567.567,0,0,1-.567-.567V61.122h-.889a.567.567,0,0,1-.567-.567V54.468a.567.567,0,0,1,.567-.567h8.473a.567.567,0,0,1,.567.567v6.088a.567.567,0,0,1-.567.567h-.89V62.4a.567.567,0,0,1-.567.567h-.715v.848A.567.567,0,0,1,31.867,64.385ZM26.133,54a.467.467,0,0,0-.467.467v6.088a.467.467,0,0,0,.467.467h.989V62.4a.467.467,0,0,0,.467.467H28.4v.948a.467.467,0,0,0,.467.467h3a.467.467,0,0,0,.467-.467v-.948h.815a.467.467,0,0,0,.467-.467V61.022h.99a.467.467,0,0,0,.467-.467V54.468A.467.467,0,0,0,34.606,54ZM31.4,63.352H29.335V62.4a.467.467,0,0,0-.467-.467h-.814V60.556a.467.467,0,0,0-.467-.467H26.6V54.934h7.54v5.155h-.992a.467.467,0,0,0-.467.467v1.381h-.815a.467.467,0,0,0-.467.467Zm-1.963-.1H31.3V62.4a.567.567,0,0,1,.567-.567h.715V60.556a.567.567,0,0,1,.567-.567h.892V55.034H26.7v4.955h.889a.567.567,0,0,1,.567.567v1.281h.714a.567.567,0,0,1,.567.567Z" transform="translate(-9.896 -45.544)" fill="#12263f"/>
            <path id="Trazado_817487-2" data-name="Trazado 817487" d="M55.317,61.072h.94V62.4a.517.517,0,0,0,.517.517h.765v.9a.517.517,0,0,0,.517.517h3a.517.517,0,0,0,.517-.517v-.9h.765a.517.517,0,0,0,.517-.517V61.072h.94a.517.517,0,0,0,.517-.517V54.468a.517.517,0,0,0-.517-.517H55.317a.517.517,0,0,0-.517.517v6.088a.517.517,0,0,0,.517.517Zm.517-6.088h7.44v5.055h-.94a.517.517,0,0,0-.517.517v1.331h-.765a.517.517,0,0,0-.517.517v.9H58.572v-.9a.517.517,0,0,0-.517-.517H57.29V60.556a.517.517,0,0,0-.517-.517h-.94Z" transform="translate(-21.171 -45.544)" fill="#12263f"/>
            <path id="Trazado_817487_-_Contorno-2" data-name="Trazado 817487 - Contorno" d="M61.051,64.385h-3a.567.567,0,0,1-.567-.567v-.848h-.715a.567.567,0,0,1-.567-.567V61.122h-.89a.567.567,0,0,1-.567-.567V54.468a.567.567,0,0,1,.567-.567H63.79a.567.567,0,0,1,.567.567v6.088a.567.567,0,0,1-.567.567H62.9V62.4a.567.567,0,0,1-.567.567h-.715v.848A.567.567,0,0,1,61.051,64.385ZM55.317,54a.467.467,0,0,0-.467.467v6.088a.467.467,0,0,0,.467.467h.99V62.4a.467.467,0,0,0,.467.467h.815v.948a.467.467,0,0,0,.467.467h3a.467.467,0,0,0,.467-.467v-.948h.815A.467.467,0,0,0,62.8,62.4V61.022h.99a.467.467,0,0,0,.467-.467V54.468A.467.467,0,0,0,63.79,54Zm5.268,9.351H58.522V62.4a.467.467,0,0,0-.467-.467H57.24V60.556a.467.467,0,0,0-.467-.467h-.99V54.934h7.54v5.155h-.99a.467.467,0,0,0-.467.467v1.381h-.815a.467.467,0,0,0-.467.467Zm-1.963-.1h1.863V62.4a.567.567,0,0,1,.567-.567h.715V60.556a.567.567,0,0,1,.567-.567h.89V55.034h-7.34v4.955h.89a.567.567,0,0,1,.567.567v1.281h.715a.567.567,0,0,1,.567.567Z" transform="translate(-21.171 -45.544)" fill="#12263f"/>
            <path id="Trazado_817488-2" data-name="Trazado 817488" d="M84.5,61.072h.94V62.4a.517.517,0,0,0,.517.517h.765v.9a.517.517,0,0,0,.517.517h3a.517.517,0,0,0,.517-.517v-.9h.766a.517.517,0,0,0,.517-.517V61.072h.939a.517.517,0,0,0,.517-.517V54.468a.517.517,0,0,0-.517-.517H84.5a.517.517,0,0,0-.517.517v6.088a.517.517,0,0,0,.517.517Zm.517-6.088h7.44v5.055H91.52a.517.517,0,0,0-.517.517v1.331h-.766a.517.517,0,0,0-.517.517v.9H87.757v-.9a.517.517,0,0,0-.517-.517h-.763V60.556a.517.517,0,0,0-.517-.517h-.94Z" transform="translate(-32.447 -45.544)" fill="#12263f"/>
            <path id="Trazado_817488_-_Contorno-2" data-name="Trazado 817488 - Contorno" d="M90.239,64.385h-3a.567.567,0,0,1-.567-.567v-.848h-.715a.567.567,0,0,1-.567-.567V61.122H84.5a.567.567,0,0,1-.567-.567V54.468A.567.567,0,0,1,84.5,53.9h8.473a.567.567,0,0,1,.567.567v6.088a.567.567,0,0,1-.567.567h-.889V62.4a.567.567,0,0,1-.567.567h-.716v.848A.567.567,0,0,1,90.239,64.385ZM84.5,54a.467.467,0,0,0-.467.467v6.088a.467.467,0,0,0,.467.467h.99V62.4a.467.467,0,0,0,.467.467h.815v.948a.467.467,0,0,0,.467.467h3a.467.467,0,0,0,.467-.467v-.948h.816a.467.467,0,0,0,.467-.467V61.022h.989a.467.467,0,0,0,.467-.467V54.468A.467.467,0,0,0,92.978,54Zm5.266,9.351H87.707V62.4a.467.467,0,0,0-.467-.467h-.813V60.556a.467.467,0,0,0-.467-.467h-.99V54.934h7.54v5.155H91.52a.467.467,0,0,0-.467.467v1.381h-.816a.467.467,0,0,0-.467.467Zm-1.963-.1h1.863V62.4a.567.567,0,0,1,.567-.567h.716V60.556a.567.567,0,0,1,.567-.567h.891V55.034h-7.34v4.955h.89a.567.567,0,0,1,.567.567v1.281h.713a.567.567,0,0,1,.567.567Z" transform="translate(-32.447 -45.544)" fill="#12263f"/>
          </g>
          <path id="Trazado_817551" data-name="Trazado 817551" d="M-7342.389-8527.468h-1.2v-16.582h22.772v-21.024h1.2v22.224h-22.772Z" transform="translate(7361.378 8577.218)" fill="#12263f"/>
          <path id="Trazado_817552" data-name="Trazado 817552" d="M-7342.306-8525.291h-.683v-.6h-.518v-39.184h1.2Z" transform="translate(7399.787 8577.218)" fill="#12263f"/>
        </g>
      </g>
      <g id="Grupo_1070790" data-name="Grupo 1070790" transform="translate(-8624.462 -8013.76)">
        <g id="Grupo_1070770" data-name="Grupo 1070770" transform="translate(0 0)">
          <path id="Trazado_119005" data-name="Trazado 119005" d="M6405.546,2345.715h19.072a2.069,2.069,0,0,1,2.066,2.067v12.337h-23.207v-12.337A2.07,2.07,0,0,1,6405.546,2345.715Zm19.938,13.2v-11.137a.867.867,0,0,0-.866-.867h-19.072a.868.868,0,0,0-.868.867v11.137Z" transform="translate(-6364.466 -2346.315)" fill="#173042"/>
          <path id="Trazado_119006" data-name="Trazado 119006" d="M6368.663,2345.715h34.054l-.23.772a4.48,4.48,0,0,0-.213,1.3v5H6372.2v26.676h30.075v7.069h-4.782l.778,4.668h4v3.6a4.36,4.36,0,0,0,.2,1.235l.224.768h-24.5a2.8,2.8,0,0,1,0-5.6h4.872l.778-4.668h-15.186a3.538,3.538,0,0,1-3.534-3.535V2349.25A3.538,3.538,0,0,1,6368.663,2345.715Zm32.488,1.2h-32.488a2.337,2.337,0,0,0-2.333,2.334v33.743a2.337,2.337,0,0,0,2.333,2.334h16.6l-1.179,7.068H6378.2a1.6,1.6,0,0,0,0,3.2h22.944a4.789,4.789,0,0,1-.069-.8v-2.4h-3.82l-1.179-7.068h5v-4.668H6371v-29.076h30.075v-3.8A4.99,4.99,0,0,1,6401.151,2346.915Zm3.59,16.405h23.206v31.474a2.038,2.038,0,0,1-2.066,2H6406.81a2.039,2.039,0,0,1-2.068-2Zm22.006,1.2h-20.806v30.274a.838.838,0,0,0,.868.8h19.072a.837.837,0,0,0,.866-.8Zm-10.4,17.872a3.534,3.534,0,1,1-3.535,3.535A3.538,3.538,0,0,1,6416.345,2382.393Zm0,5.868a2.334,2.334,0,1,0-2.334-2.333A2.336,2.336,0,0,0,6416.345,2388.261Z" transform="translate(-6365.729 -2346.315)" fill="#173042"/>
        </g>
        <g id="Grupo_1070771" data-name="Grupo 1070771" transform="translate(97.977 0)">
          <path id="Trazado_119005-2" data-name="Trazado 119005" d="M6405.546,2345.715h19.072a2.069,2.069,0,0,1,2.066,2.067v12.337h-23.207v-12.337A2.07,2.07,0,0,1,6405.546,2345.715Zm19.938,13.2v-11.137a.867.867,0,0,0-.866-.867h-19.072a.868.868,0,0,0-.868.867v11.137Z" transform="translate(-6364.466 -2346.315)" fill="#173042"/>
          <path id="Trazado_119006-2" data-name="Trazado 119006" d="M6368.663,2345.715h34.054l-.23.772a4.48,4.48,0,0,0-.213,1.3v5H6372.2v26.676h30.075v7.069h-4.782l.778,4.668h4v3.6a4.36,4.36,0,0,0,.2,1.235l.224.768h-24.5a2.8,2.8,0,0,1,0-5.6h4.872l.778-4.668h-15.186a3.538,3.538,0,0,1-3.534-3.535V2349.25A3.538,3.538,0,0,1,6368.663,2345.715Zm32.488,1.2h-32.488a2.337,2.337,0,0,0-2.333,2.334v33.743a2.337,2.337,0,0,0,2.333,2.334h16.6l-1.179,7.068H6378.2a1.6,1.6,0,0,0,0,3.2h22.944a4.789,4.789,0,0,1-.069-.8v-2.4h-3.82l-1.179-7.068h5v-4.668H6371v-29.076h30.075v-3.8A4.99,4.99,0,0,1,6401.151,2346.915Zm3.59,16.405h23.206v31.474a2.038,2.038,0,0,1-2.066,2H6406.81a2.039,2.039,0,0,1-2.068-2Zm22.006,1.2h-20.806v30.274a.838.838,0,0,0,.868.8h19.072a.837.837,0,0,0,.866-.8Zm-10.4,17.872a3.534,3.534,0,1,1-3.535,3.535A3.538,3.538,0,0,1,6416.345,2382.393Zm0,5.868a2.334,2.334,0,1,0-2.334-2.333A2.336,2.336,0,0,0,6416.345,2388.261Z" transform="translate(-6365.729 -2346.315)" fill="#173042"/>
        </g>
        <g id="Grupo_1070772" data-name="Grupo 1070772" transform="translate(190.942 0)">
          <path id="Trazado_119005-3" data-name="Trazado 119005" d="M6405.546,2345.715h19.072a2.069,2.069,0,0,1,2.066,2.067v12.337h-23.207v-12.337A2.07,2.07,0,0,1,6405.546,2345.715Zm19.938,13.2v-11.137a.867.867,0,0,0-.866-.867h-19.072a.868.868,0,0,0-.868.867v11.137Z" transform="translate(-6364.466 -2346.315)" fill="#173042"/>
          <path id="Trazado_119006-3" data-name="Trazado 119006" d="M6368.663,2345.715h34.054l-.23.772a4.48,4.48,0,0,0-.213,1.3v5H6372.2v26.676h30.075v7.069h-4.782l.778,4.668h4v3.6a4.36,4.36,0,0,0,.2,1.235l.224.768h-24.5a2.8,2.8,0,0,1,0-5.6h4.872l.778-4.668h-15.186a3.538,3.538,0,0,1-3.534-3.535V2349.25A3.538,3.538,0,0,1,6368.663,2345.715Zm32.488,1.2h-32.488a2.337,2.337,0,0,0-2.333,2.334v33.743a2.337,2.337,0,0,0,2.333,2.334h16.6l-1.179,7.068H6378.2a1.6,1.6,0,0,0,0,3.2h22.944a4.789,4.789,0,0,1-.069-.8v-2.4h-3.82l-1.179-7.068h5v-4.668H6371v-29.076h30.075v-3.8A4.99,4.99,0,0,1,6401.151,2346.915Zm3.59,16.405h23.206v31.474a2.038,2.038,0,0,1-2.066,2H6406.81a2.039,2.039,0,0,1-2.068-2Zm22.006,1.2h-20.806v30.274a.838.838,0,0,0,.868.8h19.072a.837.837,0,0,0,.866-.8Zm-10.4,17.872a3.534,3.534,0,1,1-3.535,3.535A3.538,3.538,0,0,1,6416.345,2382.393Zm0,5.868a2.334,2.334,0,1,0-2.334-2.333A2.336,2.336,0,0,0,6416.345,2388.261Z" transform="translate(-6365.729 -2346.315)" fill="#173042"/>
        </g>
      </g>
      <g id="Grupo_1070797" data-name="Grupo 1070797" transform="translate(-8583.377 -8066.467)">
        <path id="Trazado_817633-2" data-name="Trazado 817633" d="M-7246.471-8591.761a1.006,1.006,0,0,1-.423-.094l-83.811-39.21v33.155a1,1,0,0,1-1,1,1,1,0,0,1-1-1v-34.728a1,1,0,0,1,.463-.844,1,1,0,0,1,.96-.062l85.234,39.876a1,1,0,0,1,.482,1.33A1,1,0,0,1-7246.471-8591.761Z" transform="translate(7416.939 8632.637)" fill="#ff6148"/>
        <path id="Trazado_817634-2" data-name="Trazado 817634" d="M-7331.7-8591.761a1,1,0,0,1-.906-.576,1,1,0,0,1,.482-1.33l85.234-39.876a1,1,0,0,1,.96.063,1,1,0,0,1,.463.844v34.728a1,1,0,0,1-1,1,1,1,0,0,1-1-1v-33.155l-83.811,39.21A1.006,1.006,0,0,1-7331.7-8591.761Z" transform="translate(7331.705 8632.637)" fill="#ff6148"/>
      </g>
    </g>
    <g id="Grupo_1076235" data-name="Grupo 1076235" transform="translate(394.599 68)">
      <path id="Trazado_817635" data-name="Trazado 817635" d="M-7571.23-8596.886a1,1,0,0,1-.979-.8l-1.907-9.463H-7790.1a1,1,0,0,1-.917-.6l-3.375-7.765a1,1,0,0,1,.519-1.315,1,1,0,0,1,1.315.519l3.113,7.163H-7573.3a1,1,0,0,1,.98.8l2.069,10.266a1,1,0,0,1-.783,1.178A.99.99,0,0,1-7571.23-8596.886Z" transform="translate(-1396.121 413.667)" fill="#ff6148"/>
      <path id="Trazado_817636" data-name="Trazado 817636" d="M-7793.478-8596.886a1.024,1.024,0,0,1-.195-.019,1,1,0,0,1-.787-1.176l2.029-10.266a1,1,0,0,1,.981-.806h211.987l3.051-7.157a1,1,0,0,1,1.312-.527,1,1,0,0,1,.528,1.313l-3.31,7.765a1,1,0,0,1-.92.607h-211.826l-1.87,9.46A1,1,0,0,1-7793.478-8596.886Z" transform="translate(-1173.871 413.667)" fill="#ff6148"/>
      <text id="Servidores" transform="translate(-9000.35 -8213.949)" fill="#12263f" font-size="14" font-family="SegoeUI, Segoe UI"><tspan x="0" y="0">Servidores</tspan></text>
      <text id="Escritorios_remotos" data-name="Escritorios remotos" transform="translate(-8892.364 -8213.949)" fill="#12263f" font-size="14" font-family="SegoeUI, Segoe UI"><tspan x="0" y="0">Escritorios remotos</tspan></text>
      <text id="Aplicaciones" transform="translate(-9097.508 -8346.327)" fill="#12263f" font-size="14" font-family="SegoeUI, Segoe UI"><tspan x="0" y="0">Aplicaciones</tspan></text>
      <text id="Almacenamiento_de_datos" data-name="Almacenamiento de datos" transform="translate(-8971.627 -8346.327)" fill="#12263f" font-size="14" font-family="SegoeUI, Segoe UI"><tspan x="0" y="0">Almacenamiento de datos</tspan></text>
      <g id="Grupo_1070801" data-name="Grupo 1070801" transform="translate(-9106.964 -8440)">
        <g id="Grupo_1070720" data-name="Grupo 1070720" transform="translate(0 0)">
          <path id="Rectngulo_374593" data-name="Rectngulo 374593" d="M2,2V54.733H92.556V2H2M2,0H92.556a2,2,0,0,1,2,2V54.733a2,2,0,0,1-2,2H2a2,2,0,0,1-2-2V2A2,2,0,0,1,2,0Z" transform="translate(0 0)" fill="#12263f"/>
          <path id="Rectngulo_374594" data-name="Rectngulo 374594" d="M2,2V54.733H93.5V2H2M2,0H93.5a2,2,0,0,1,2,2V54.733a2,2,0,0,1-2,2H2a2,2,0,0,1-2-2V2A2,2,0,0,1,2,0Z" transform="translate(5.673 5.728)" fill="#12263f"/>
          <rect id="Rectngulo_374595" data-name="Rectngulo 374595" width="91.719" height="56.733" rx="2" transform="translate(12.292 11.401)" fill="#12263f"/>
          <path id="Rectngulo_374595_-_Contorno" data-name="Rectngulo 374595 - Contorno" d="M2,2V54.733H89.719V2H2M2,0H89.719a2,2,0,0,1,2,2V54.733a2,2,0,0,1-2,2H2a2,2,0,0,1-2-2V2A2,2,0,0,1,2,0Z" transform="translate(12.292 11.401)" fill="#12263f"/>
          <text id="APPS" transform="translate(36.877 45.312)" fill="#fff" font-size="14" font-family="SegoeUIBlack, Segoe UI"><tspan x="0" y="0">APPS</tspan></text>
        </g>
      </g>
      <g id="Grupo_1070802" data-name="Grupo 1070802" transform="translate(-8998.782 -8312.349)">
        <path id="Trazado_817489" data-name="Trazado 817489" d="M24,42.736a.6.6,0,0,1-.6-.6V39a.6.6,0,0,1,1.2,0v3.136A.6.6,0,0,1,24,42.736Z" transform="translate(9.987 28.942)" fill="#12263f"/>
        <path id="Trazado_817490" data-name="Trazado 817490" d="M37.616,38.677h-.355A3.328,3.328,0,0,1,34,35.416v-.355A3.328,3.328,0,0,1,37.261,31.8h.355a3.328,3.328,0,0,1,3.261,3.261v.355a3.226,3.226,0,0,1-.984,2.363A3.277,3.277,0,0,1,37.616,38.677ZM37.261,33A2.142,2.142,0,0,0,35.2,35.061v.355a2.142,2.142,0,0,0,2.061,2.061h.355a2.018,2.018,0,0,0,2.061-2.061v-.355A2.142,2.142,0,0,0,37.616,33Z" transform="translate(21.295 23.834)" fill="#12263f"/>
        <path id="Trazado_817491" data-name="Trazado 817491" d="M30.916,38.677h-.355A3.328,3.328,0,0,1,27.3,35.416v-.355A3.328,3.328,0,0,1,30.561,31.8h.355a3.328,3.328,0,0,1,3.261,3.261v.355a3.226,3.226,0,0,1-.984,2.363A3.277,3.277,0,0,1,30.916,38.677ZM30.561,33A2.142,2.142,0,0,0,28.5,35.061v.355a2.142,2.142,0,0,0,2.061,2.061h.355a2.018,2.018,0,0,0,2.061-2.061v-.355A2.142,2.142,0,0,0,30.916,33Z" transform="translate(14.094 23.834)" fill="#12263f"/>
        <path id="Trazado_817492" data-name="Trazado 817492" d="M10,10.1H65.895a.6.6,0,0,1,.6.6v7.451a.6.6,0,0,1-.6.6H10a.6.6,0,0,1-.6-.6V10.7A.6.6,0,0,1,10,10.1Zm55.295,1.2H10.6v6.251H65.295Z" transform="translate(-3.969 7.039)" fill="#12263f"/>
        <path id="Trazado_817493" data-name="Trazado 817493" d="M10,24.3H65.895a.6.6,0,0,1,.6.6v7.273a.6.6,0,0,1-.6.6H10a.6.6,0,0,1-.6-.6V24.9A.6.6,0,0,1,10,24.3Zm55.295,1.2H10.6v6.073H65.295Z" transform="translate(-3.969 18.029)" fill="#12263f"/>
        <path id="Trazado_817494" data-name="Trazado 817494" d="M9.921.1H71.059l.054,0C73.39.309,74.98,1.8,74.98,3.716V15.424a3.877,3.877,0,0,1-3.921,3.616H9.921A3.877,3.877,0,0,1,6,15.424V3.716A3.877,3.877,0,0,1,9.921.1ZM71.031,1.3H9.921A2.684,2.684,0,0,0,7.2,3.716V15.424a2.684,2.684,0,0,0,2.721,2.416H71.059a2.684,2.684,0,0,0,2.721-2.416V3.716C73.78,2.447,72.651,1.457,71.031,1.3Z" transform="translate(-6.6 -0.7)" fill="#12263f"/>
        <path id="Trazado_817495" data-name="Trazado 817495" d="M9.921,28.4H71.059a4.048,4.048,0,0,1,2.805,1.073,3.478,3.478,0,0,1,1.115,2.542V43.724a3.877,3.877,0,0,1-3.921,3.616H9.921A3.877,3.877,0,0,1,6,43.724V32.016A3.877,3.877,0,0,1,9.921,28.4ZM71.059,46.139a2.684,2.684,0,0,0,2.721-2.416V32.016A2.549,2.549,0,0,0,71.059,29.6H9.921A2.684,2.684,0,0,0,7.2,32.016V43.724a2.684,2.684,0,0,0,2.721,2.416Z" transform="translate(-6.6 21.202)" fill="#12263f"/>
        <path id="Trazado_817496" data-name="Trazado 817496" d="M9.921,14.3H71.059a4.126,4.126,0,0,1,2.8,1,3.48,3.48,0,0,1,1.124,2.617V29.624a3.877,3.877,0,0,1-3.921,3.616H9.921A3.877,3.877,0,0,1,6,29.624V17.916A3.877,3.877,0,0,1,9.921,14.3ZM71.059,32.039a2.684,2.684,0,0,0,2.721-2.416V17.916A2.443,2.443,0,0,0,71.059,15.5H9.921A2.684,2.684,0,0,0,7.2,17.916V29.624a2.684,2.684,0,0,0,2.721,2.416Z" transform="translate(-6.6 10.29)" fill="#12263f"/>
        <path id="Trazado_817497" data-name="Trazado 817497" d="M11.951,4.7H10a.6.6,0,0,1,0-1.2h1.951a.6.6,0,0,1,0,1.2Z" transform="translate(-3.969 1.931)" fill="#12263f"/>
        <path id="Trazado_817498" data-name="Trazado 817498" d="M11.951,8.1H10a.6.6,0,0,1,0-1.2h1.951a.6.6,0,0,1,0,1.2Z" transform="translate(-3.969 4.563)" fill="#12263f"/>
        <path id="Trazado_817499" data-name="Trazado 817499" d="M16.151,4.7H14.2a.6.6,0,0,1,0-1.2h1.951a.6.6,0,1,1,0,1.2Z" transform="translate(0.69 1.931)" fill="#12263f"/>
        <path id="Trazado_817500" data-name="Trazado 817500" d="M16.151,8.1H14.2a.6.6,0,0,1,0-1.2h1.951a.6.6,0,1,1,0,1.2Z" transform="translate(0.69 4.563)" fill="#12263f"/>
        <path id="Trazado_817501" data-name="Trazado 817501" d="M20.351,4.7H18.4a.6.6,0,1,1,0-1.2h1.951a.6.6,0,1,1,0,1.2Z" transform="translate(4.719 1.931)" fill="#12263f"/>
        <path id="Trazado_817502" data-name="Trazado 817502" d="M20.351,8.1H18.4a.6.6,0,1,1,0-1.2h1.951a.6.6,0,1,1,0,1.2Z" transform="translate(4.719 4.563)" fill="#12263f"/>
        <path id="Trazado_817503" data-name="Trazado 817503" d="M24.551,4.7H22.6a.6.6,0,1,1,0-1.2h1.951a.6.6,0,1,1,0,1.2Z" transform="translate(8.747 1.931)" fill="#12263f"/>
        <path id="Trazado_817504" data-name="Trazado 817504" d="M24.551,8.1H22.6a.6.6,0,1,1,0-1.2h1.951a.6.6,0,1,1,0,1.2Z" transform="translate(8.747 4.563)" fill="#12263f"/>
        <path id="Trazado_817505" data-name="Trazado 817505" d="M11.951,18.8H10a.6.6,0,0,1,0-1.2h1.951a.6.6,0,0,1,0,1.2Z" transform="translate(-3.969 12.844)" fill="#12263f"/>
        <path id="Trazado_817506" data-name="Trazado 817506" d="M11.951,22.2H10A.6.6,0,0,1,10,21h1.951a.6.6,0,0,1,0,1.2Z" transform="translate(-3.969 15.475)" fill="#12263f"/>
        <path id="Trazado_817507" data-name="Trazado 817507" d="M16.151,18.8H14.2a.6.6,0,0,1,0-1.2h1.951a.6.6,0,0,1,0,1.2Z" transform="translate(0.69 12.844)" fill="#12263f"/>
        <path id="Trazado_817508" data-name="Trazado 817508" d="M16.151,22.2H14.2a.6.6,0,0,1,0-1.2h1.951a.6.6,0,1,1,0,1.2Z" transform="translate(0.69 15.475)" fill="#12263f"/>
        <path id="Trazado_817509" data-name="Trazado 817509" d="M20.351,18.8H18.4a.6.6,0,0,1,0-1.2h1.951a.6.6,0,0,1,0,1.2Z" transform="translate(4.719 12.844)" fill="#12263f"/>
        <path id="Trazado_817510" data-name="Trazado 817510" d="M20.351,22.2H18.4a.6.6,0,0,1,0-1.2h1.951a.6.6,0,1,1,0,1.2Z" transform="translate(4.719 15.475)" fill="#12263f"/>
        <path id="Trazado_817511" data-name="Trazado 817511" d="M24.551,18.8H22.6a.6.6,0,1,1,0-1.2h1.951a.6.6,0,0,1,0,1.2Z" transform="translate(8.747 12.844)" fill="#12263f"/>
        <path id="Trazado_817512" data-name="Trazado 817512" d="M24.551,22.2H22.6a.6.6,0,0,1,0-1.2h1.951a.6.6,0,0,1,0,1.2Z" transform="translate(8.747 15.475)" fill="#12263f"/>
        <path id="Trazado_817513" data-name="Trazado 817513" d="M11.951,33H10a.6.6,0,1,1,0-1.2h1.951a.6.6,0,1,1,0,1.2Z" transform="translate(-3.969 23.834)" fill="#12263f"/>
        <path id="Trazado_817514" data-name="Trazado 817514" d="M11.951,36.3H10a.6.6,0,1,1,0-1.2h1.951a.6.6,0,1,1,0,1.2Z" transform="translate(-3.969 26.387)" fill="#12263f"/>
        <path id="Trazado_817515" data-name="Trazado 817515" d="M16.151,33H14.2a.6.6,0,1,1,0-1.2h1.951a.6.6,0,1,1,0,1.2Z" transform="translate(0.69 23.834)" fill="#12263f"/>
        <path id="Trazado_817516" data-name="Trazado 817516" d="M16.151,36.3H14.2a.6.6,0,1,1,0-1.2h1.951a.6.6,0,1,1,0,1.2Z" transform="translate(0.69 26.387)" fill="#12263f"/>
        <path id="Trazado_817517" data-name="Trazado 817517" d="M20.351,33H18.4a.6.6,0,1,1,0-1.2h1.951a.6.6,0,1,1,0,1.2Z" transform="translate(4.719 23.834)" fill="#12263f"/>
        <path id="Trazado_817518" data-name="Trazado 817518" d="M20.351,36.3H18.4a.6.6,0,1,1,0-1.2h1.951a.6.6,0,1,1,0,1.2Z" transform="translate(4.719 26.387)" fill="#12263f"/>
        <path id="Trazado_817519" data-name="Trazado 817519" d="M24.551,33H22.6a.6.6,0,1,1,0-1.2h1.951a.6.6,0,1,1,0,1.2Z" transform="translate(8.747 23.834)" fill="#12263f"/>
        <path id="Trazado_817520" data-name="Trazado 817520" d="M24.551,36.3H22.6a.6.6,0,1,1,0-1.2h1.951a.6.6,0,1,1,0,1.2Z" transform="translate(8.747 26.387)" fill="#12263f"/>
        <path id="Trazado_817521" data-name="Trazado 817521" d="M37.616,24.577h-.355A3.328,3.328,0,0,1,34,21.316v-.355A3.328,3.328,0,0,1,37.261,17.7h.355a3.328,3.328,0,0,1,3.261,3.261v.355a3.328,3.328,0,0,1-3.261,3.261ZM37.261,18.9A2.142,2.142,0,0,0,35.2,20.961v.355a2.142,2.142,0,0,0,2.061,2.061h.355a2.142,2.142,0,0,0,2.061-2.061v-.355A2.142,2.142,0,0,0,37.616,18.9Z" transform="translate(21.295 12.921)" fill="#12263f"/>
        <path id="Trazado_817522" data-name="Trazado 817522" d="M30.916,24.577h-.355A3.328,3.328,0,0,1,27.3,21.316v-.355A3.328,3.328,0,0,1,30.561,17.7h.355a3.328,3.328,0,0,1,3.261,3.261v.355a3.328,3.328,0,0,1-3.261,3.261ZM30.561,18.9A2.142,2.142,0,0,0,28.5,20.961v.355a2.142,2.142,0,0,0,2.061,2.061h.355a2.142,2.142,0,0,0,2.061-2.061v-.355A2.142,2.142,0,0,0,30.916,18.9Z" transform="translate(14.094 12.921)" fill="#12263f"/>
        <path id="Trazado_817523" data-name="Trazado 817523" d="M37.616,10.477h-.355A3.328,3.328,0,0,1,34,7.216V6.861A3.328,3.328,0,0,1,37.261,3.6h.355a3.328,3.328,0,0,1,3.261,3.261v.355a3.328,3.328,0,0,1-3.261,3.261ZM37.261,4.8A2.142,2.142,0,0,0,35.2,6.861v.355a2.142,2.142,0,0,0,2.061,2.061h.355a2.142,2.142,0,0,0,2.061-2.061V6.861A2.142,2.142,0,0,0,37.616,4.8Z" transform="translate(21.295 2.009)" fill="#12263f"/>
        <path id="Trazado_817524" data-name="Trazado 817524" d="M30.916,10.477h-.355A3.328,3.328,0,0,1,27.3,7.216V6.861A3.328,3.328,0,0,1,30.561,3.6h.355a3.328,3.328,0,0,1,3.261,3.261v.355a3.328,3.328,0,0,1-3.261,3.261ZM30.561,4.8A2.142,2.142,0,0,0,28.5,6.861v.355a2.142,2.142,0,0,0,2.061,2.061h.355a2.142,2.142,0,0,0,2.061-2.061V6.861A2.142,2.142,0,0,0,30.916,4.8Z" transform="translate(14.094 2.009)" fill="#12263f"/>
        <path id="Elipse_9260" data-name="Elipse 9260" d="M3.9-.6A4.5,4.5,0,1,1-.6,3.9,4.508,4.508,0,0,1,3.9-.6Zm0,7.805A3.3,3.3,0,1,0,.6,3.9,3.306,3.306,0,0,0,3.9,7.205Z" transform="translate(30.086 71.078)" fill="#12263f"/>
        <g id="Grupo_1070723" data-name="Grupo 1070723" transform="translate(9.269 74.98)">
          <path id="Trazado_817525" data-name="Trazado 817525" d="M46.925,45.7H26.5a.6.6,0,1,1,0-1.2H46.925a.6.6,0,1,1,0,1.2Z" transform="translate(2.539 -45.1)" fill="#12263f"/>
          <path id="Trazado_817526" data-name="Trazado 817526" d="M34.27,45.7H13.6a.6.6,0,1,1,0-1.2H34.27a.6.6,0,0,1,0,1.2Z" transform="translate(-13.6 -45.1)" fill="#12263f"/>
        </g>
      </g>
      <g id="ordenador-portatil_8_2" data-name="ordenador-portatil (8)" transform="translate(-8875.345 -8308.566)">
        <g id="Grupo_1070731-2" data-name="Grupo 1070731" transform="translate(47.924 1.631)">
          <g id="Grupo_1070730-2" data-name="Grupo 1070730" transform="translate(0 0)">
            <path id="Trazado_817532-2" data-name="Trazado 817532" d="M252.994,95.99h-.016a.808.808,0,0,0-.807.815.819.819,0,1,0,.823-.815Z" transform="translate(-252.171 -95.99)" fill="#12263f"/>
          </g>
        </g>
        <g id="Grupo_1070733-2" data-name="Grupo 1070733" transform="translate(8.153 0)">
          <g id="Grupo_1070732-2" data-name="Grupo 1070732">
            <path id="Trazado_817533-2" data-name="Trazado 817533" d="M118.84,87.991H42.248A2.358,2.358,0,0,0,40,90.437v55.439a.754.754,0,1,0,1.5,0V90.437a.786.786,0,0,1,.751-.815H118.84a.787.787,0,0,1,.751.815v55.439a.753.753,0,1,0,1.5,0V90.437A2.358,2.358,0,0,0,118.84,87.991Z" transform="translate(-39.995 -87.991)" fill="#12263f"/>
          </g>
        </g>
        <g id="Grupo_1070735-2" data-name="Grupo 1070735" transform="translate(3.261 66.853)">
          <g id="Grupo_1070734-2" data-name="Grupo 1070734" transform="translate(0 0)">
            <path id="Trazado_817534-2" data-name="Trazado 817534" d="M106.122,415.954H16.756a.817.817,0,0,0,0,1.63h89.366a.817.817,0,0,0,0-1.63Z" transform="translate(-15.999 -415.954)" fill="#12263f"/>
          </g>
        </g>
        <g id="Grupo_1070737-2" data-name="Grupo 1070737" transform="translate(0 60.331)">
          <g id="Grupo_1070736-2" data-name="Grupo 1070736" transform="translate(0 0)">
            <path id="Trazado_817535-2" data-name="Trazado 817535" d="M96.642,383.957H57.072a.789.789,0,0,0-.761.815v.815H41.092v-.815a.789.789,0,0,0-.761-.815H.761a.789.789,0,0,0-.761.815v3.261a.789.789,0,0,0,.761.815.789.789,0,0,0,.761-.815v-2.446H39.57v.815a.789.789,0,0,0,.761.815H57.072a.789.789,0,0,0,.761-.815v-.815H95.881v2.446a.763.763,0,1,0,1.522,0v-3.261A.789.789,0,0,0,96.642,383.957Z" transform="translate(0 -383.957)" fill="#12263f"/>
          </g>
        </g>
        <g id="Grupo_1070739-2" data-name="Grupo 1070739" transform="translate(11.414 3.261)">
          <g id="Grupo_1070738-2" data-name="Grupo 1070738" transform="translate(0 0)">
            <path id="Trazado_817536-2" data-name="Trazado 817536" d="M129.823,103.989H56.74a.783.783,0,0,0-.746.815v50.548a.782.782,0,0,0,.746.815h73.084a.782.782,0,0,0,.745-.815V104.8A.782.782,0,0,0,129.823,103.989Zm-.745,50.548H57.486V105.62h71.592Z" transform="translate(-55.994 -103.989)" fill="#12263f"/>
          </g>
        </g>
        <g id="Grupo_1070741-2" data-name="Grupo 1070741" transform="translate(0 63.592)">
          <g id="Grupo_1070740-2" data-name="Grupo 1070740">
            <path id="Trazado_817537-2" data-name="Trazado 817537" d="M4.078,403.216a2.449,2.449,0,0,1-2.446-2.446.815.815,0,0,0-1.631,0,4.081,4.081,0,0,0,4.076,4.076.815.815,0,1,0,0-1.63Z" transform="translate(-0.001 -399.955)" fill="#12263f"/>
          </g>
        </g>
        <g id="Grupo_1070743-2" data-name="Grupo 1070743" transform="translate(92.512 63.592)">
          <g id="Grupo_1070742-2" data-name="Grupo 1070742">
            <path id="Trazado_817538-2" data-name="Trazado 817538" d="M492.022,399.955a.815.815,0,0,0-.815.815,2.449,2.449,0,0,1-2.446,2.446.815.815,0,0,0,0,1.63,4.08,4.08,0,0,0,4.077-4.076A.815.815,0,0,0,492.022,399.955Z" transform="translate(-487.946 -399.955)" fill="#12263f"/>
          </g>
        </g>
        <g id="Grupo_1070745-2" data-name="Grupo 1070745" transform="translate(3.261 59.516)">
          <g id="Grupo_1070744-2" data-name="Grupo 1070744">
            <path id="Trazado_817539-2" data-name="Trazado 817539" d="M20.075,379.958H16.814a.815.815,0,1,0,0,1.63h3.261a.815.815,0,0,0,0-1.63Z" transform="translate(-15.999 -379.958)" fill="#12263f"/>
          </g>
        </g>
        <g id="Grupo_1070747-2" data-name="Grupo 1070747" transform="translate(9.784 59.516)">
          <g id="Grupo_1070746-2" data-name="Grupo 1070746">
            <path id="Trazado_817540-2" data-name="Trazado 817540" d="M52.071,379.958H48.81a.815.815,0,1,0,0,1.63h3.261a.815.815,0,1,0,0-1.63Z" transform="translate(-47.995 -379.958)" fill="#12263f"/>
          </g>
        </g>
        <g id="Grupo_1070749-2" data-name="Grupo 1070749" transform="translate(15.166 59.516)">
          <g id="Grupo_1070748-2" data-name="Grupo 1070748">
            <path id="Trazado_817541-2" data-name="Trazado 817541" d="M84.068,379.958H80.807a.815.815,0,1,0,0,1.63h3.261a.815.815,0,1,0,0-1.63Z" transform="translate(-79.992 -379.958)" fill="#12263f"/>
          </g>
        </g>
        <g id="Grupo_1070751-2" data-name="Grupo 1070751" transform="translate(21.232 59.516)">
          <g id="Grupo_1070750-2" data-name="Grupo 1070750">
            <path id="Trazado_817542-2" data-name="Trazado 817542" d="M116.064,379.958H112.8a.815.815,0,1,0,0,1.63h3.261a.815.815,0,1,0,0-1.63Z" transform="translate(-111.988 -379.958)" fill="#12263f"/>
          </g>
        </g>
        <g id="Grupo_1070753-2" data-name="Grupo 1070753" transform="translate(27.299 59.516)">
          <g id="Grupo_1070752-2" data-name="Grupo 1070752">
            <path id="Trazado_817543-2" data-name="Trazado 817543" d="M148.061,379.958H144.8a.815.815,0,1,0,0,1.63h3.261a.815.815,0,0,0,0-1.63Z" transform="translate(-143.985 -379.958)" fill="#12263f"/>
          </g>
        </g>
        <g id="Grupo_1070755-2" data-name="Grupo 1070755" transform="translate(33.365 59.516)">
          <g id="Grupo_1070754-2" data-name="Grupo 1070754">
            <path id="Trazado_817544-2" data-name="Trazado 817544" d="M180.057,379.958H176.8a.815.815,0,1,0,0,1.63h3.261a.815.815,0,1,0,0-1.63Z" transform="translate(-175.981 -379.958)" fill="#12263f"/>
          </g>
        </g>
        <g id="Grupo_1070757-2" data-name="Grupo 1070757" transform="translate(59.147 59.516)">
          <g id="Grupo_1070756-2" data-name="Grupo 1070756">
            <path id="Trazado_817545-2" data-name="Trazado 817545" d="M316.042,379.958h-3.261a.815.815,0,1,0,0,1.63h3.261a.815.815,0,0,0,0-1.63Z" transform="translate(-311.966 -379.958)" fill="#12263f"/>
          </g>
        </g>
        <g id="Grupo_1070759-2" data-name="Grupo 1070759" transform="translate(65.213 59.516)">
          <g id="Grupo_1070758-2" data-name="Grupo 1070758">
            <path id="Trazado_817546-2" data-name="Trazado 817546" d="M348.038,379.958h-3.261a.815.815,0,0,0,0,1.63h3.261a.815.815,0,1,0,0-1.63Z" transform="translate(-343.962 -379.958)" fill="#12263f"/>
          </g>
        </g>
        <g id="Grupo_1070761-2" data-name="Grupo 1070761" transform="translate(71.279 59.516)">
          <g id="Grupo_1070760-2" data-name="Grupo 1070760">
            <path id="Trazado_817547-2" data-name="Trazado 817547" d="M380.035,379.958h-3.261a.815.815,0,1,0,0,1.63h3.261a.815.815,0,0,0,0-1.63Z" transform="translate(-375.958 -379.958)" fill="#12263f"/>
          </g>
        </g>
        <g id="Grupo_1070763-2" data-name="Grupo 1070763" transform="translate(77.346 59.516)">
          <g id="Grupo_1070762-2" data-name="Grupo 1070762">
            <path id="Trazado_817548-2" data-name="Trazado 817548" d="M412.03,379.958h-3.261a.815.815,0,1,0,0,1.63h3.261a.815.815,0,1,0,0-1.63Z" transform="translate(-407.954 -379.958)" fill="#12263f"/>
          </g>
        </g>
        <g id="Grupo_1070765-2" data-name="Grupo 1070765" transform="translate(82.728 59.516)">
          <g id="Grupo_1070764-2" data-name="Grupo 1070764">
            <path id="Trazado_817549-2" data-name="Trazado 817549" d="M444.028,379.958h-3.261a.815.815,0,1,0,0,1.63h3.261a.815.815,0,1,0,0-1.63Z" transform="translate(-439.951 -379.958)" fill="#12263f"/>
          </g>
        </g>
        <g id="Grupo_1070767-2" data-name="Grupo 1070767" transform="translate(89.251 59.516)">
          <g id="Grupo_1070766-2" data-name="Grupo 1070766">
            <path id="Trazado_817550-2" data-name="Trazado 817550" d="M476.024,379.958h-3.261a.815.815,0,0,0,0,1.63h3.261a.815.815,0,1,0,0-1.63Z" transform="translate(-471.948 -379.958)" fill="#12263f"/>
          </g>
        </g>
      </g>
      <g id="Grupo_1070803" data-name="Grupo 1070803" transform="translate(-8957.443 -8438.108)" opacity="0.92">
        <g id="Layer_x0020_1-2" data-name="Layer_x0020_1" transform="translate(0 0)">
          <g id="_1810537758736" transform="translate(0 0)">
            <g id="Grupo_1070789" data-name="Grupo 1070789" transform="translate(0 0)">
              <g id="Grupo_1070783" data-name="Grupo 1070783" transform="translate(0 19.315)">
                <g id="_329902000" transform="translate(0 10.427)">
                  <path id="Trazado_817606" data-name="Trazado 817606" d="M13.392,246.52A41.352,41.352,0,0,1,.615,244.8a.862.862,0,0,1,.572-1.626A39.623,39.623,0,0,0,13.392,244.8,39.633,39.633,0,0,0,25.6,243.178a.862.862,0,0,1,.57,1.626,41.346,41.346,0,0,1-12.777,1.715Z" transform="translate(-0.039 -243.129)" fill="#12263f" fill-rule="evenodd"/>
                </g>
                <g id="_329903584" transform="translate(0)">
                  <path id="Trazado_817607" data-name="Trazado 817607" d="M13.393,179.07C6.963,179.07.04,177.737.04,174.81s6.922-4.26,13.353-4.26,13.353,1.333,13.353,4.26-6.922,4.261-13.353,4.261Zm0-6.8a34.265,34.265,0,0,0-8.607.965c-2.51.682-3.023,1.412-3.023,1.57s.513.889,3.023,1.572a34.341,34.341,0,0,0,8.607.965A34.324,34.324,0,0,0,22,176.381c2.51-.682,3.023-1.414,3.023-1.572s-.513-.888-3.023-1.57a34.257,34.257,0,0,0-8.607-.965Z" transform="translate(-0.04 -170.55)" fill="#12263f" fill-rule="evenodd"/>
                </g>
                <g id="_329903824" transform="translate(0 3.4)">
                  <path id="Trazado_817608" data-name="Trazado 817608" d="M13.393,219.613a44.415,44.415,0,0,1-8.766-.766C1.54,218.191.04,217.181.04,215.762v-20.68A.862.862,0,0,1,.9,194.22h0a.862.862,0,0,1,.862.861.117.117,0,0,0,0,.014.826.826,0,0,1,0,.3v20.364c0,.151.547.83,3.221,1.4a42.591,42.591,0,0,0,8.408.728,42.591,42.591,0,0,0,8.408-.728c2.675-.569,3.221-1.248,3.221-1.4v-20.68a.862.862,0,1,1,1.724,0v20.68c0,1.419-1.5,2.429-4.586,3.086a44.43,44.43,0,0,1-8.768.766Z" transform="translate(-0.04 -194.22)" fill="#12263f" fill-rule="evenodd"/>
                </g>
                <g id="_329903752" transform="translate(0 15.708)">
                  <path id="Trazado_817609" data-name="Trazado 817609" d="M13.392,283.279A41.336,41.336,0,0,1,.617,281.564a.862.862,0,1,1,.57-1.626,39.624,39.624,0,0,0,12.205,1.618A39.634,39.634,0,0,0,25.6,279.938a.862.862,0,0,1,.57,1.626,41.352,41.352,0,0,1-12.777,1.715Z" transform="translate(-0.039 -279.889)" fill="#12263f" fill-rule="evenodd"/>
                </g>
                <g id="_329904664" transform="translate(0 20.989)">
                  <path id="Trazado_817610" data-name="Trazado 817610" d="M13.392,320.04A41.353,41.353,0,0,1,.615,318.324a.862.862,0,0,1,.572-1.626,39.6,39.6,0,0,0,12.205,1.619A39.621,39.621,0,0,0,25.6,316.7a.862.862,0,0,1,.57,1.626,41.347,41.347,0,0,1-12.777,1.715Z" transform="translate(-0.039 -316.649)" fill="#12263f" fill-rule="evenodd"/>
                </g>
              </g>
              <g id="Grupo_1070784" data-name="Grupo 1070784" transform="translate(46.836)">
                <g id="_329904304" transform="translate(0 10.427)">
                  <path id="Trazado_817611" data-name="Trazado 817611" d="M339.412,112.07a41.352,41.352,0,0,1-12.777-1.715.862.862,0,0,1,.57-1.626,46.86,46.86,0,0,0,24.412,0,.862.862,0,0,1,.572,1.626A41.352,41.352,0,0,1,339.412,112.07Z" transform="translate(-326.059 -108.679)" fill="#12263f" fill-rule="evenodd"/>
                </g>
                <g id="_329904592" transform="translate(0)">
                  <path id="Trazado_817612" data-name="Trazado 817612" d="M339.413,44.621c-6.432,0-13.353-1.333-13.353-4.261s6.922-4.26,13.353-4.26,13.353,1.333,13.353,4.26S345.845,44.621,339.413,44.621Zm0-6.8a34.266,34.266,0,0,0-8.607.965c-2.51.682-3.023,1.412-3.023,1.57s.513.889,3.023,1.572a38.848,38.848,0,0,0,17.213,0c2.51-.682,3.023-1.414,3.023-1.572s-.513-.888-3.023-1.57A34.266,34.266,0,0,0,339.413,37.824Z" transform="translate(-326.06 -36.1)" fill="#12263f" fill-rule="evenodd"/>
                </g>
                <g id="_329904352" transform="translate(0 3.4)">
                  <path id="Trazado_817613" data-name="Trazado 817613" d="M339.413,85.163a44.333,44.333,0,0,1-8.768-.766c-3.086-.657-4.586-1.666-4.586-3.086V60.632a.862.862,0,0,1,.861-.862h0a.862.862,0,0,1,.862.859c0,.474,0,.006,0,.019a.876.876,0,0,1,0,.3V81.312c0,.151.546.83,3.221,1.4a48.9,48.9,0,0,0,16.817,0c2.675-.569,3.221-1.248,3.221-1.4V60.632a.862.862,0,1,1,1.724,0v20.68c0,1.419-1.5,2.429-4.586,3.086A44.323,44.323,0,0,1,339.413,85.163Z" transform="translate(-326.06 -59.77)" fill="#12263f" fill-rule="evenodd"/>
                </g>
                <g id="_329904184" transform="translate(0 15.708)">
                  <path id="Trazado_817614" data-name="Trazado 817614" d="M339.412,148.833a41.345,41.345,0,0,1-12.777-1.715.862.862,0,1,1,.572-1.626,46.855,46.855,0,0,0,24.411,0,.862.862,0,0,1,.572,1.626A41.352,41.352,0,0,1,339.412,148.833Z" transform="translate(-326.059 -145.443)" fill="#12263f" fill-rule="evenodd"/>
                </g>
                <g id="_329904640" transform="translate(0 20.989)">
                  <path id="Trazado_817615" data-name="Trazado 817615" d="M339.412,185.593a41.352,41.352,0,0,1-12.777-1.715.862.862,0,0,1,.572-1.626,46.816,46.816,0,0,0,24.411,0,.862.862,0,0,1,.572,1.626A41.352,41.352,0,0,1,339.412,185.593Z" transform="translate(-326.059 -182.203)" fill="#12263f" fill-rule="evenodd"/>
                </g>
              </g>
              <g id="Grupo_1070786" data-name="Grupo 1070786" transform="translate(35.54 35.817)">
                <g id="_329904568">
                  <path id="Trazado_817616" data-name="Trazado 817616" d="M281.315,297.884H249.47a2.042,2.042,0,0,1-2.04-2.04V287.46a2.042,2.042,0,0,1,2.04-2.04h31.845a2.043,2.043,0,0,1,2.041,2.04v8.384A2.043,2.043,0,0,1,281.315,297.884Zm-31.845-10.74a.321.321,0,0,0-.316.316v8.384a.321.321,0,0,0,.316.317h31.845a.321.321,0,0,0,.317-.317V287.46a.321.321,0,0,0-.317-.316Z" transform="translate(-247.43 -285.42)" fill="#12263f" fill-rule="evenodd"/>
                </g>
                <g id="Grupo_1070785" data-name="Grupo 1070785" transform="translate(2.903 5.37)">
                  <g id="_329904160" transform="translate(16.917)">
                    <path id="Trazado_817617" data-name="Trazado 817617" d="M397.74,324.524H386.262a.862.862,0,1,1,0-1.724H397.74a.862.862,0,1,1,0,1.724Z" transform="translate(-385.4 -322.8)" fill="#12263f" fill-rule="evenodd"/>
                  </g>
                  <g id="_329904784">
                    <path id="Trazado_817618" data-name="Trazado 817618" d="M270.7,324.524h-2.2a.862.862,0,0,1,0-1.724h2.2a.862.862,0,1,1,0,1.724Z" transform="translate(-267.64 -322.8)" fill="#12263f" fill-rule="evenodd"/>
                  </g>
                  <g id="_329905000" transform="translate(5.258)">
                    <path id="Trazado_817619" data-name="Trazado 817619" d="M307.3,324.524H305.1a.862.862,0,1,1,0-1.724H307.3a.862.862,0,1,1,0,1.724Z" transform="translate(-304.24 -322.8)" fill="#12263f" fill-rule="evenodd"/>
                  </g>
                  <g id="_329905216" transform="translate(10.516)">
                    <path id="Trazado_817620" data-name="Trazado 817620" d="M343.9,324.524h-2.2a.862.862,0,1,1,0-1.724h2.2a.862.862,0,0,1,0,1.724Z" transform="translate(-340.84 -322.8)" fill="#12263f" fill-rule="evenodd"/>
                  </g>
                </g>
              </g>
              <g id="_329905384" transform="translate(24.983 41.187)">
                <path id="Trazado_817621" data-name="Trazado 817621" d="M185.36,324.524H174.8a.862.862,0,0,1,0-1.724H185.36a.862.862,0,1,1,0,1.724Z" transform="translate(-173.94 -322.8)" fill="#12263f" fill-rule="evenodd"/>
              </g>
              <g id="_329904976" transform="translate(59.134 27.07)">
                <path id="Trazado_817622" data-name="Trazado 817622" d="M412.522,234.512a.863.863,0,0,1-.862-.862v-8.258a.862.862,0,1,1,1.724,0v8.258A.863.863,0,0,1,412.522,234.512Z" transform="translate(-411.66 -224.53)" fill="#12263f" fill-rule="evenodd"/>
              </g>
              <g id="Grupo_1070788" data-name="Grupo 1070788" transform="translate(35.54 50.716)">
                <g id="_329904376">
                  <path id="Trazado_817623" data-name="Trazado 817623" d="M281.315,401.6H249.47a2.042,2.042,0,0,1-2.04-2.04v-8.384a2.044,2.044,0,0,1,2.04-2.041h31.845a2.044,2.044,0,0,1,2.041,2.041v8.384A2.043,2.043,0,0,1,281.315,401.6ZM249.47,390.854a.321.321,0,0,0-.316.318v8.383a.321.321,0,0,0,.316.317h31.845a.321.321,0,0,0,.317-.317v-8.383a.321.321,0,0,0-.317-.318Z" transform="translate(-247.43 -389.13)" fill="#12263f" fill-rule="evenodd"/>
                </g>
                <g id="Grupo_1070787" data-name="Grupo 1070787" transform="translate(2.903 5.371)">
                  <g id="_329904928" transform="translate(16.917)">
                    <path id="Trazado_817624" data-name="Trazado 817624" d="M397.74,428.242H386.262a.861.861,0,1,1,0-1.723H397.74a.861.861,0,1,1,0,1.723Z" transform="translate(-385.4 -426.52)" fill="#12263f" fill-rule="evenodd"/>
                  </g>
                  <g id="_329905024">
                    <path id="Trazado_817625" data-name="Trazado 817625" d="M270.7,428.242h-2.2a.861.861,0,0,1,0-1.723h2.2a.861.861,0,1,1,0,1.723Z" transform="translate(-267.64 -426.52)" fill="#12263f" fill-rule="evenodd"/>
                  </g>
                  <g id="_329905336" transform="translate(5.258)">
                    <path id="Trazado_817626" data-name="Trazado 817626" d="M307.3,428.242H305.1a.861.861,0,1,1,0-1.723H307.3a.861.861,0,1,1,0,1.723Z" transform="translate(-304.24 -426.52)" fill="#12263f" fill-rule="evenodd"/>
                  </g>
                  <g id="_329905504" transform="translate(10.516)">
                    <path id="Trazado_817627" data-name="Trazado 817627" d="M343.9,428.242h-2.2a.861.861,0,1,1,0-1.723h2.2a.861.861,0,0,1,0,1.723Z" transform="translate(-340.84 -426.52)" fill="#12263f" fill-rule="evenodd"/>
                  </g>
                </g>
              </g>
              <g id="_329905480" transform="translate(40.386 46.559)">
                <path id="Trazado_817628" data-name="Trazado 817628" d="M306.532,366.071h-24.51a.863.863,0,0,1-.862-.862v-4.158a.862.862,0,0,1,.862-.862h24.51a.862.862,0,0,1,.862.862v4.158A.863.863,0,0,1,306.532,366.071Zm-23.648-1.724H305.67v-2.435H282.884Z" transform="translate(-281.16 -360.19)" fill="#12263f" fill-rule="evenodd"/>
              </g>
            </g>
          </g>
        </g>
        <g id="Layer_x0020_1-3" data-name="Layer_x0020_1" transform="translate(74.595 0)">
          <g id="_1810537758736-2" data-name="_1810537758736" transform="translate(0 0)">
            <g id="Grupo_1070789-2" data-name="Grupo 1070789" transform="translate(0 0)">
              <g id="Grupo_1070783-2" data-name="Grupo 1070783" transform="translate(46.836 19.315)">
                <g id="_329902000-2" data-name="_329902000" transform="translate(0 10.427)">
                  <path id="Trazado_817606-2" data-name="Trazado 817606" d="M13.392,246.52A41.352,41.352,0,0,0,26.17,244.8a.862.862,0,0,0-.572-1.626A39.623,39.623,0,0,1,13.392,244.8a39.633,39.633,0,0,1-12.207-1.618.862.862,0,0,0-.57,1.626,41.346,41.346,0,0,0,12.777,1.715Z" transform="translate(-0.039 -243.129)" fill="#12263f" fill-rule="evenodd"/>
                </g>
                <g id="_329903584-2" data-name="_329903584" transform="translate(0)">
                  <path id="Trazado_817607-2" data-name="Trazado 817607" d="M13.393,179.07c6.43,0,13.353-1.333,13.353-4.261s-6.922-4.26-13.353-4.26S.04,171.883.04,174.81s6.922,4.261,13.353,4.261Zm0-6.8a34.265,34.265,0,0,1,8.607.965c2.51.682,3.023,1.412,3.023,1.57s-.513.889-3.023,1.572a34.341,34.341,0,0,1-8.607.965,34.324,34.324,0,0,1-8.607-.965c-2.51-.682-3.023-1.414-3.023-1.572s.513-.888,3.023-1.57a34.257,34.257,0,0,1,8.607-.965Z" transform="translate(-0.04 -170.55)" fill="#12263f" fill-rule="evenodd"/>
                </g>
                <g id="_329903824-2" data-name="_329903824" transform="translate(0 3.4)">
                  <path id="Trazado_817608-2" data-name="Trazado 817608" d="M13.393,219.613a44.415,44.415,0,0,0,8.766-.766c3.087-.657,4.587-1.666,4.587-3.086v-20.68a.862.862,0,0,0-.861-.862h0a.862.862,0,0,0-.862.861.117.117,0,0,1,0,.014.826.826,0,0,0,0,.3v20.364c0,.151-.547.83-3.221,1.4a42.59,42.59,0,0,1-8.408.728,42.59,42.59,0,0,1-8.408-.728c-2.675-.569-3.221-1.248-3.221-1.4v-20.68a.862.862,0,1,0-1.724,0v20.68c0,1.419,1.5,2.429,4.586,3.086a44.43,44.43,0,0,0,8.768.766Z" transform="translate(-0.04 -194.22)" fill="#12263f" fill-rule="evenodd"/>
                </g>
                <g id="_329903752-2" data-name="_329903752" transform="translate(0 15.708)">
                  <path id="Trazado_817609-2" data-name="Trazado 817609" d="M13.393,283.279a41.336,41.336,0,0,0,12.776-1.715.862.862,0,1,0-.57-1.626,39.624,39.624,0,0,1-12.205,1.618,39.634,39.634,0,0,1-12.207-1.618.862.862,0,0,0-.57,1.626,41.352,41.352,0,0,0,12.777,1.715Z" transform="translate(-0.039 -279.889)" fill="#12263f" fill-rule="evenodd"/>
                </g>
                <g id="_329904664-2" data-name="_329904664" transform="translate(0 20.989)">
                  <path id="Trazado_817610-2" data-name="Trazado 817610" d="M13.392,320.04a41.353,41.353,0,0,0,12.777-1.715A.862.862,0,0,0,25.6,316.7a39.6,39.6,0,0,1-12.205,1.619A39.621,39.621,0,0,1,1.186,316.7a.862.862,0,0,0-.57,1.626,41.347,41.347,0,0,0,12.777,1.715Z" transform="translate(-0.039 -316.649)" fill="#12263f" fill-rule="evenodd"/>
                </g>
              </g>
              <g id="Grupo_1070784-2" data-name="Grupo 1070784">
                <g id="_329904304-2" data-name="_329904304" transform="translate(0 10.427)">
                  <path id="Trazado_817611-2" data-name="Trazado 817611" d="M339.412,112.07a41.352,41.352,0,0,0,12.777-1.715.862.862,0,0,0-.57-1.626,46.861,46.861,0,0,1-24.412,0,.862.862,0,1,0-.572,1.626A41.352,41.352,0,0,0,339.412,112.07Z" transform="translate(-326.059 -108.679)" fill="#12263f" fill-rule="evenodd"/>
                </g>
                <g id="_329904592-2" data-name="_329904592" transform="translate(0)">
                  <path id="Trazado_817612-2" data-name="Trazado 817612" d="M339.413,44.621c6.432,0,13.353-1.333,13.353-4.261s-6.922-4.26-13.353-4.26-13.353,1.333-13.353,4.26S332.982,44.621,339.413,44.621Zm0-6.8a34.266,34.266,0,0,1,8.607.965c2.51.682,3.023,1.412,3.023,1.57s-.513.889-3.023,1.572a38.848,38.848,0,0,1-17.213,0c-2.51-.682-3.023-1.414-3.023-1.572s.513-.888,3.023-1.57A34.266,34.266,0,0,1,339.413,37.824Z" transform="translate(-326.06 -36.1)" fill="#12263f" fill-rule="evenodd"/>
                </g>
                <g id="_329904352-2" data-name="_329904352" transform="translate(0 3.4)">
                  <path id="Trazado_817613-2" data-name="Trazado 817613" d="M339.413,85.163a44.332,44.332,0,0,0,8.768-.766c3.086-.657,4.586-1.666,4.586-3.086V60.632a.862.862,0,0,0-.861-.862h0a.862.862,0,0,0-.862.859c0,.474,0,.006,0,.019a.876.876,0,0,0,0,.3V81.312c0,.151-.546.83-3.221,1.4a48.9,48.9,0,0,1-16.817,0c-2.675-.569-3.221-1.248-3.221-1.4V60.632a.862.862,0,1,0-1.724,0v20.68c0,1.419,1.5,2.429,4.586,3.086A44.322,44.322,0,0,0,339.413,85.163Z" transform="translate(-326.06 -59.77)" fill="#12263f" fill-rule="evenodd"/>
                </g>
                <g id="_329904184-2" data-name="_329904184" transform="translate(0 15.708)">
                  <path id="Trazado_817614-2" data-name="Trazado 817614" d="M339.412,148.833a41.346,41.346,0,0,0,12.777-1.715.862.862,0,0,0-.572-1.626,46.855,46.855,0,0,1-24.411,0,.862.862,0,1,0-.572,1.626A41.352,41.352,0,0,0,339.412,148.833Z" transform="translate(-326.059 -145.443)" fill="#12263f" fill-rule="evenodd"/>
                </g>
                <g id="_329904640-2" data-name="_329904640" transform="translate(0 20.989)">
                  <path id="Trazado_817615-2" data-name="Trazado 817615" d="M339.412,185.593a41.352,41.352,0,0,0,12.777-1.715.862.862,0,0,0-.572-1.626,46.816,46.816,0,0,1-24.411,0,.862.862,0,0,0-.572,1.626A41.352,41.352,0,0,0,339.412,185.593Z" transform="translate(-326.059 -182.203)" fill="#12263f" fill-rule="evenodd"/>
                </g>
              </g>
              <g id="Grupo_1070786-2" data-name="Grupo 1070786" transform="translate(2.076 35.817)">
                <g id="_329904568-2" data-name="_329904568">
                  <path id="Trazado_817616-2" data-name="Trazado 817616" d="M249.471,297.884h31.845a2.042,2.042,0,0,0,2.04-2.04V287.46a2.042,2.042,0,0,0-2.04-2.04H249.471a2.043,2.043,0,0,0-2.041,2.04v8.384A2.043,2.043,0,0,0,249.471,297.884Zm31.845-10.74a.321.321,0,0,1,.316.316v8.384a.321.321,0,0,1-.316.317H249.471a.321.321,0,0,1-.317-.317V287.46a.321.321,0,0,1,.317-.316Z" transform="translate(-247.43 -285.42)" fill="#12263f" fill-rule="evenodd"/>
                </g>
                <g id="Grupo_1070785-2" data-name="Grupo 1070785" transform="translate(2.903 5.37)">
                  <g id="_329904160-2" data-name="_329904160" transform="translate(0)">
                    <path id="Trazado_817617-2" data-name="Trazado 817617" d="M386.262,324.524H397.74a.862.862,0,1,0,0-1.724H386.262a.862.862,0,1,0,0,1.724Z" transform="translate(-385.4 -322.8)" fill="#12263f" fill-rule="evenodd"/>
                  </g>
                  <g id="_329904784-2" data-name="_329904784" transform="translate(26.202)">
                    <path id="Trazado_817618-2" data-name="Trazado 817618" d="M268.5,324.524h2.2a.862.862,0,0,0,0-1.724h-2.2a.862.862,0,1,0,0,1.724Z" transform="translate(-267.64 -322.8)" fill="#12263f" fill-rule="evenodd"/>
                  </g>
                  <g id="_329905000-2" data-name="_329905000" transform="translate(20.944)">
                    <path id="Trazado_817619-2" data-name="Trazado 817619" d="M305.1,324.524H307.3a.862.862,0,1,0,0-1.724H305.1a.862.862,0,1,0,0,1.724Z" transform="translate(-304.24 -322.8)" fill="#12263f" fill-rule="evenodd"/>
                  </g>
                  <g id="_329905216-2" data-name="_329905216" transform="translate(15.686)">
                    <path id="Trazado_817620-2" data-name="Trazado 817620" d="M341.7,324.524h2.2a.862.862,0,1,0,0-1.724h-2.2a.862.862,0,0,0,0,1.724Z" transform="translate(-340.84 -322.8)" fill="#12263f" fill-rule="evenodd"/>
                  </g>
                </g>
              </g>
              <g id="_329905384-2" data-name="_329905384" transform="translate(36.279 41.188)">
                <path id="Trazado_817621-2" data-name="Trazado 817621" d="M174.8,324.524H185.36a.862.862,0,0,0,0-1.724H174.8a.862.862,0,1,0,0,1.724Z" transform="translate(-173.94 -322.8)" fill="#12263f" fill-rule="evenodd"/>
              </g>
              <g id="_329904976-2" data-name="_329904976" transform="translate(12.685 27.07)">
                <path id="Trazado_817622-2" data-name="Trazado 817622" d="M412.522,234.512a.863.863,0,0,0,.862-.862v-8.258a.862.862,0,1,0-1.724,0v8.258A.863.863,0,0,0,412.522,234.512Z" transform="translate(-411.66 -224.53)" fill="#12263f" fill-rule="evenodd"/>
              </g>
              <g id="Grupo_1070788-2" data-name="Grupo 1070788" transform="translate(2.076 50.717)">
                <g id="_329904376-2" data-name="_329904376">
                  <path id="Trazado_817623-2" data-name="Trazado 817623" d="M249.471,401.6h31.845a2.042,2.042,0,0,0,2.04-2.04v-8.384a2.044,2.044,0,0,0-2.04-2.041H249.471a2.044,2.044,0,0,0-2.041,2.041v8.384A2.043,2.043,0,0,0,249.471,401.6Zm31.845-10.742a.321.321,0,0,1,.316.318v8.383a.321.321,0,0,1-.316.317H249.471a.321.321,0,0,1-.317-.317v-8.383a.321.321,0,0,1,.317-.318Z" transform="translate(-247.43 -389.13)" fill="#12263f" fill-rule="evenodd"/>
                </g>
                <g id="Grupo_1070787-2" data-name="Grupo 1070787" transform="translate(2.903 5.371)">
                  <g id="_329904928-2" data-name="_329904928" transform="translate(0)">
                    <path id="Trazado_817624-2" data-name="Trazado 817624" d="M386.262,428.242H397.74a.861.861,0,1,0,0-1.723H386.262a.861.861,0,1,0,0,1.723Z" transform="translate(-385.4 -426.52)" fill="#12263f" fill-rule="evenodd"/>
                  </g>
                  <g id="_329905024-2" data-name="_329905024" transform="translate(26.202)">
                    <path id="Trazado_817625-2" data-name="Trazado 817625" d="M268.5,428.242h2.2a.861.861,0,0,0,0-1.723h-2.2a.861.861,0,1,0,0,1.723Z" transform="translate(-267.64 -426.52)" fill="#12263f" fill-rule="evenodd"/>
                  </g>
                  <g id="_329905336-2" data-name="_329905336" transform="translate(20.944)">
                    <path id="Trazado_817626-2" data-name="Trazado 817626" d="M305.1,428.242H307.3a.861.861,0,1,0,0-1.723H305.1a.861.861,0,1,0,0,1.723Z" transform="translate(-304.24 -426.52)" fill="#12263f" fill-rule="evenodd"/>
                  </g>
                  <g id="_329905504-2" data-name="_329905504" transform="translate(15.686)">
                    <path id="Trazado_817627-2" data-name="Trazado 817627" d="M341.7,428.242h2.2a.861.861,0,1,0,0-1.723h-2.2a.861.861,0,0,0,0,1.723Z" transform="translate(-340.84 -426.52)" fill="#12263f" fill-rule="evenodd"/>
                  </g>
                </g>
              </g>
              <g id="_329905480-2" data-name="_329905480" transform="translate(6.923 46.559)">
                <path id="Trazado_817628-2" data-name="Trazado 817628" d="M282.022,366.071h24.51a.863.863,0,0,0,.862-.862v-4.158a.862.862,0,0,0-.862-.862h-24.51a.862.862,0,0,0-.862.862v4.158A.863.863,0,0,0,282.022,366.071Zm23.648-1.724H282.884v-2.435H305.67Z" transform="translate(-281.16 -360.19)" fill="#12263f" fill-rule="evenodd"/>
              </g>
            </g>
          </g>
        </g>
      </g>
      <path id="Unin_29" data-name="Unin 29" d="M112.8,78.881H28.583c-.132,0-.265,0-.4,0a28.286,28.286,0,1,1,9.452-54.944A35.306,35.306,0,0,1,104.4,23.7a28.273,28.273,0,1,1,9.136,55.185h-.03l-.367,0Z" transform="translate(-9172.491 -8312.349)" fill="#ffe9e6"/>
      <path id="Unin_29_-_Contorno" data-name="Unin 29 - Contorno" d="M113.144,77.883h.273l.11,0a27.054,27.054,0,0,0,18.965-8.115,27.329,27.329,0,0,0-8.768-44.311,27.223,27.223,0,0,0-19.009-.808l-.931.3-.324-.924A34.534,34.534,0,0,0,91.112,7.482a34.2,34.2,0,0,0-40.2.072A34.522,34.522,0,0,0,38.583,24.262l-.328.959-.955-.341A27.285,27.285,0,0,0,17.6,75.739a26.926,26.926,0,0,0,10.58,2.144c.155,0,.272,0,.38,0l1.017-.017v.017h83.229l.333,0m0,1-.348,0H28.583c-.132,0-.265,0-.4,0a28.286,28.286,0,1,1,9.452-54.944A35.306,35.306,0,0,1,104.4,23.7a28.273,28.273,0,1,1,9.136,55.185h-.03Z" transform="translate(-9172.491 -8312.349)" fill="#083142"/>
    </g>
  </g>
</svg>
